ISO-10303-21;
HEADER;
FILE_DESCRIPTION(('FreeCAD Model'),'2;1');
FILE_NAME('Open CASCADE Shape Model','2026-07-21T18:05:42',('Author'),(
    ''),'Open CASCADE STEP processor 7.8','FreeCAD','Unknown');
FILE_SCHEMA(('AUTOMOTIVE_DESIGN { 1 0 10303 214 1 1 1 1 }'));
ENDSEC;
DATA;
#1 = APPLICATION_PROTOCOL_DEFINITION('international standard',
  'automotive_design',2000,#2);
#2 = APPLICATION_CONTEXT(
  'core data for automotive mechanical design processes');
#3 = SHAPE_DEFINITION_REPRESENTATION(#4,#10);
#4 = PRODUCT_DEFINITION_SHAPE('','',#5);
#5 = PRODUCT_DEFINITION('design','',#6,#9);
#6 = PRODUCT_DEFINITION_FORMATION('','',#7);
#7 = PRODUCT('Drilling jig','Drilling jig','',(#8));
#8 = PRODUCT_CONTEXT('',#2,'mechanical');
#9 = PRODUCT_DEFINITION_CONTEXT('part definition',#2,'design');
#10 = SHAPE_REPRESENTATION('',(#11,#15),#19);
#11 = AXIS2_PLACEMENT_3D('',#12,#13,#14);
#12 = CARTESIAN_POINT('',(0.,0.,0.));
#13 = DIRECTION('',(0.,0.,1.));
#14 = DIRECTION('',(1.,0.,-0.));
#15 = AXIS2_PLACEMENT_3D('',#16,#17,#18);
#16 = CARTESIAN_POINT('',(0.,0.,0.));
#17 = DIRECTION('',(0.,0.,1.));
#18 = DIRECTION('',(1.,0.,0.));
#19 = ( GEOMETRIC_REPRESENTATION_CONTEXT(3) 
GLOBAL_UNCERTAINTY_ASSIGNED_CONTEXT((#23)) GLOBAL_UNIT_ASSIGNED_CONTEXT(
(#20,#21,#22)) REPRESENTATION_CONTEXT('Context #1',
  '3D Context with UNIT and UNCERTAINTY') );
#20 = ( LENGTH_UNIT() NAMED_UNIT(*) SI_UNIT(.MILLI.,.METRE.) );
#21 = ( NAMED_UNIT(*) PLANE_ANGLE_UNIT() SI_UNIT($,.RADIAN.) );
#22 = ( NAMED_UNIT(*) SI_UNIT($,.STERADIAN.) SOLID_ANGLE_UNIT() );
#23 = UNCERTAINTY_MEASURE_WITH_UNIT(LENGTH_MEASURE(1.E-07),#20,
  'distance_accuracy_value','confusion accuracy');
#24 = PRODUCT_RELATED_PRODUCT_CATEGORY('part',$,(#7));
#25 = SHAPE_DEFINITION_REPRESENTATION(#26,#32);
#26 = PRODUCT_DEFINITION_SHAPE('','',#27);
#27 = PRODUCT_DEFINITION('design','',#28,#31);
#28 = PRODUCT_DEFINITION_FORMATION('','',#29);
#29 = PRODUCT('Cut007','Cut007','',(#30));
#30 = PRODUCT_CONTEXT('',#2,'mechanical');
#31 = PRODUCT_DEFINITION_CONTEXT('part definition',#2,'design');
#32 = ADVANCED_BREP_SHAPE_REPRESENTATION('',(#11,#33),#1050);
#33 = MANIFOLD_SOLID_BREP('',#34);
#34 = CLOSED_SHELL('',(#35,#75,#117,#174,#215,#321,#338,#786,#803,#820,
    #837,#857,#874,#891,#903,#925,#942,#959,#971,#988,#1013,#1038));
#35 = ADVANCED_FACE('',(#36),#70,.F.);
#36 = FACE_BOUND('',#37,.F.);
#37 = EDGE_LOOP('',(#38,#48,#56,#64));
#38 = ORIENTED_EDGE('',*,*,#39,.F.);
#39 = EDGE_CURVE('',#40,#42,#44,.T.);
#40 = VERTEX_POINT('',#41);
#41 = CARTESIAN_POINT('',(-15.,-9.5,0.));
#42 = VERTEX_POINT('',#43);
#43 = CARTESIAN_POINT('',(-15.,-9.5,-23.));
#44 = LINE('',#45,#46);
#45 = CARTESIAN_POINT('',(-15.,-9.5,0.));
#46 = VECTOR('',#47,1.);
#47 = DIRECTION('',(0.,-1.224646799147E-16,-1.));
#48 = ORIENTED_EDGE('',*,*,#49,.T.);
#49 = EDGE_CURVE('',#40,#50,#52,.T.);
#50 = VERTEX_POINT('',#51);
#51 = CARTESIAN_POINT('',(-15.,-40.5,3.796405077357E-15));
#52 = LINE('',#53,#54);
#53 = CARTESIAN_POINT('',(-15.,-9.5,0.));
#54 = VECTOR('',#55,1.);
#55 = DIRECTION('',(0.,-1.,1.224646799147E-16));
#56 = ORIENTED_EDGE('',*,*,#57,.T.);
#57 = EDGE_CURVE('',#50,#58,#60,.T.);
#58 = VERTEX_POINT('',#59);
#59 = CARTESIAN_POINT('',(-15.,-40.5,-23.));
#60 = LINE('',#61,#62);
#61 = CARTESIAN_POINT('',(-15.,-40.5,3.796405077357E-15));
#62 = VECTOR('',#63,1.);
#63 = DIRECTION('',(0.,-1.224646799147E-16,-1.));
#64 = ORIENTED_EDGE('',*,*,#65,.F.);
#65 = EDGE_CURVE('',#42,#58,#66,.T.);
#66 = LINE('',#67,#68);
#67 = CARTESIAN_POINT('',(-15.,-9.5,-23.));
#68 = VECTOR('',#69,1.);
#69 = DIRECTION('',(0.,-1.,1.224646799147E-16));
#70 = PLANE('',#71);
#71 = AXIS2_PLACEMENT_3D('',#72,#73,#74);
#72 = CARTESIAN_POINT('',(-15.,-9.5,0.));
#73 = DIRECTION('',(1.,0.,0.));
#74 = DIRECTION('',(0.,-1.224646799147E-16,-1.));
#75 = ADVANCED_FACE('',(#76,#101),#112,.F.);
#76 = FACE_BOUND('',#77,.F.);
#77 = EDGE_LOOP('',(#78,#86,#87,#95));
#78 = ORIENTED_EDGE('',*,*,#79,.F.);
#79 = EDGE_CURVE('',#40,#80,#82,.T.);
#80 = VERTEX_POINT('',#81);
#81 = CARTESIAN_POINT('',(15.,-9.5,0.));
#82 = LINE('',#83,#84);
#83 = CARTESIAN_POINT('',(-15.,-9.5,0.));
#84 = VECTOR('',#85,1.);
#85 = DIRECTION('',(1.,0.,0.));
#86 = ORIENTED_EDGE('',*,*,#39,.T.);
#87 = ORIENTED_EDGE('',*,*,#88,.T.);
#88 = EDGE_CURVE('',#42,#89,#91,.T.);
#89 = VERTEX_POINT('',#90);
#90 = CARTESIAN_POINT('',(15.,-9.5,-23.));
#91 = LINE('',#92,#93);
#92 = CARTESIAN_POINT('',(-15.,-9.5,-23.));
#93 = VECTOR('',#94,1.);
#94 = DIRECTION('',(1.,0.,0.));
#95 = ORIENTED_EDGE('',*,*,#96,.F.);
#96 = EDGE_CURVE('',#80,#89,#97,.T.);
#97 = LINE('',#98,#99);
#98 = CARTESIAN_POINT('',(15.,-9.5,0.));
#99 = VECTOR('',#100,1.);
#100 = DIRECTION('',(0.,-1.224646799147E-16,-1.));
#101 = FACE_BOUND('',#102,.F.);
#102 = EDGE_LOOP('',(#103));
#103 = ORIENTED_EDGE('',*,*,#104,.F.);
#104 = EDGE_CURVE('',#105,#105,#107,.T.);
#105 = VERTEX_POINT('',#106);
#106 = CARTESIAN_POINT('',(5.05,-9.5,-5.876872393281));
#107 = ELLIPSE('',#108,5.374097751004,5.05);
#108 = AXIS2_PLACEMENT_3D('',#109,#110,#111);
#109 = CARTESIAN_POINT('',(0.,-9.5,-5.876872393281));
#110 = DIRECTION('',(0.,-1.,1.224646799147E-16));
#111 = DIRECTION('',(0.,1.224646799147E-16,1.));
#112 = PLANE('',#113);
#113 = AXIS2_PLACEMENT_3D('',#114,#115,#116);
#114 = CARTESIAN_POINT('',(-15.,-9.5,0.));
#115 = DIRECTION('',(0.,-1.,1.224646799147E-16));
#116 = DIRECTION('',(0.,-1.224646799147E-16,-1.));
#117 = ADVANCED_FACE('',(#118),#169,.T.);
#118 = FACE_BOUND('',#119,.T.);
#119 = EDGE_LOOP('',(#120,#128,#129,#130,#138,#146,#154,#163));
#120 = ORIENTED_EDGE('',*,*,#121,.F.);
#121 = EDGE_CURVE('',#58,#122,#124,.T.);
#122 = VERTEX_POINT('',#123);
#123 = CARTESIAN_POINT('',(-3.,-40.5,-23.));
#124 = LINE('',#125,#126);
#125 = CARTESIAN_POINT('',(-15.,-40.5,-23.));
#126 = VECTOR('',#127,1.);
#127 = DIRECTION('',(1.,0.,0.));
#128 = ORIENTED_EDGE('',*,*,#65,.F.);
#129 = ORIENTED_EDGE('',*,*,#88,.T.);
#130 = ORIENTED_EDGE('',*,*,#131,.T.);
#131 = EDGE_CURVE('',#89,#132,#134,.T.);
#132 = VERTEX_POINT('',#133);
#133 = CARTESIAN_POINT('',(15.,-40.5,-23.));
#134 = LINE('',#135,#136);
#135 = CARTESIAN_POINT('',(15.,-9.5,-23.));
#136 = VECTOR('',#137,1.);
#137 = DIRECTION('',(0.,-1.,1.224646799147E-16));
#138 = ORIENTED_EDGE('',*,*,#139,.F.);
#139 = EDGE_CURVE('',#140,#132,#142,.T.);
#140 = VERTEX_POINT('',#141);
#141 = CARTESIAN_POINT('',(3.,-40.5,-23.));
#142 = LINE('',#143,#144);
#143 = CARTESIAN_POINT('',(-15.,-40.5,-23.));
#144 = VECTOR('',#145,1.);
#145 = DIRECTION('',(1.,0.,0.));
#146 = ORIENTED_EDGE('',*,*,#147,.T.);
#147 = EDGE_CURVE('',#140,#148,#150,.T.);
#148 = VERTEX_POINT('',#149);
#149 = CARTESIAN_POINT('',(3.,-36.,-23.));
#150 = LINE('',#151,#152);
#151 = CARTESIAN_POINT('',(3.,-40.5,-23.));
#152 = VECTOR('',#153,1.);
#153 = DIRECTION('',(0.,1.,0.));
#154 = ORIENTED_EDGE('',*,*,#155,.T.);
#155 = EDGE_CURVE('',#148,#156,#158,.T.);
#156 = VERTEX_POINT('',#157);
#157 = CARTESIAN_POINT('',(-3.,-36.,-23.));
#158 = CIRCLE('',#159,3.);
#159 = AXIS2_PLACEMENT_3D('',#160,#161,#162);
#160 = CARTESIAN_POINT('',(0.,-36.,-23.));
#161 = DIRECTION('',(0.,0.,1.));
#162 = DIRECTION('',(1.,0.,0.));
#163 = ORIENTED_EDGE('',*,*,#164,.F.);
#164 = EDGE_CURVE('',#122,#156,#165,.T.);
#165 = LINE('',#166,#167);
#166 = CARTESIAN_POINT('',(-3.,-40.5,-23.));
#167 = VECTOR('',#168,1.);
#168 = DIRECTION('',(0.,1.,0.));
#169 = PLANE('',#170);
#170 = AXIS2_PLACEMENT_3D('',#171,#172,#173);
#171 = CARTESIAN_POINT('',(-15.,-9.5,-23.));
#172 = DIRECTION('',(0.,-1.224646799147E-16,-1.));
#173 = DIRECTION('',(1.,0.,0.));
#174 = ADVANCED_FACE('',(#175),#210,.T.);
#175 = FACE_BOUND('',#176,.T.);
#176 = EDGE_LOOP('',(#177,#185,#186,#187,#195,#204));
#177 = ORIENTED_EDGE('',*,*,#178,.F.);
#178 = EDGE_CURVE('',#50,#179,#181,.T.);
#179 = VERTEX_POINT('',#180);
#180 = CARTESIAN_POINT('',(-3.,-40.5,0.));
#181 = LINE('',#182,#183);
#182 = CARTESIAN_POINT('',(-15.,-40.5,3.796405077357E-15));
#183 = VECTOR('',#184,1.);
#184 = DIRECTION('',(1.,0.,0.));
#185 = ORIENTED_EDGE('',*,*,#57,.T.);
#186 = ORIENTED_EDGE('',*,*,#121,.T.);
#187 = ORIENTED_EDGE('',*,*,#188,.T.);
#188 = EDGE_CURVE('',#122,#189,#191,.T.);
#189 = VERTEX_POINT('',#190);
#190 = CARTESIAN_POINT('',(-3.,-40.5,-21.48298766768));
#191 = LINE('',#192,#193);
#192 = CARTESIAN_POINT('',(-3.,-40.5,-23.));
#193 = VECTOR('',#194,1.);
#194 = DIRECTION('',(0.,0.,1.));
#195 = ORIENTED_EDGE('',*,*,#196,.F.);
#196 = EDGE_CURVE('',#197,#189,#199,.T.);
#197 = VERTEX_POINT('',#198);
#198 = CARTESIAN_POINT('',(-3.,-40.5,-12.83691164339));
#199 = ELLIPSE('',#200,5.374097751004,5.05);
#200 = AXIS2_PLACEMENT_3D('',#201,#202,#203);
#201 = CARTESIAN_POINT('',(0.,-40.5,-17.15994965554));
#202 = DIRECTION('',(0.,-1.,1.224646799147E-16));
#203 = DIRECTION('',(0.,1.224646799147E-16,1.));
#204 = ORIENTED_EDGE('',*,*,#205,.T.);
#205 = EDGE_CURVE('',#197,#179,#206,.T.);
#206 = LINE('',#207,#208);
#207 = CARTESIAN_POINT('',(-3.,-40.5,-23.));
#208 = VECTOR('',#209,1.);
#209 = DIRECTION('',(0.,0.,1.));
#210 = PLANE('',#211);
#211 = AXIS2_PLACEMENT_3D('',#212,#213,#214);
#212 = CARTESIAN_POINT('',(-15.,-40.5,3.796405077357E-15));
#213 = DIRECTION('',(0.,-1.,1.224646799147E-16));
#214 = DIRECTION('',(0.,-1.224646799147E-16,-1.));
#215 = ADVANCED_FACE('',(#216,#260,#294,#305),#316,.F.);
#216 = FACE_BOUND('',#217,.F.);
#217 = EDGE_LOOP('',(#218,#219,#220,#221,#229,#237,#245,#254));
#218 = ORIENTED_EDGE('',*,*,#178,.F.);
#219 = ORIENTED_EDGE('',*,*,#49,.F.);
#220 = ORIENTED_EDGE('',*,*,#79,.T.);
#221 = ORIENTED_EDGE('',*,*,#222,.T.);
#222 = EDGE_CURVE('',#80,#223,#225,.T.);
#223 = VERTEX_POINT('',#224);
#224 = CARTESIAN_POINT('',(15.,-40.5,3.796405077357E-15));
#225 = LINE('',#226,#227);
#226 = CARTESIAN_POINT('',(15.,-9.5,0.));
#227 = VECTOR('',#228,1.);
#228 = DIRECTION('',(0.,-1.,1.224646799147E-16));
#229 = ORIENTED_EDGE('',*,*,#230,.F.);
#230 = EDGE_CURVE('',#231,#223,#233,.T.);
#231 = VERTEX_POINT('',#232);
#232 = CARTESIAN_POINT('',(3.,-40.5,0.));
#233 = LINE('',#234,#235);
#234 = CARTESIAN_POINT('',(-15.,-40.5,3.796405077357E-15));
#235 = VECTOR('',#236,1.);
#236 = DIRECTION('',(1.,0.,0.));
#237 = ORIENTED_EDGE('',*,*,#238,.T.);
#238 = EDGE_CURVE('',#231,#239,#241,.T.);
#239 = VERTEX_POINT('',#240);
#240 = CARTESIAN_POINT('',(3.,-36.,0.));
#241 = LINE('',#242,#243);
#242 = CARTESIAN_POINT('',(3.,-40.5,0.));
#243 = VECTOR('',#244,1.);
#244 = DIRECTION('',(0.,1.,0.));
#245 = ORIENTED_EDGE('',*,*,#246,.T.);
#246 = EDGE_CURVE('',#239,#247,#249,.T.);
#247 = VERTEX_POINT('',#248);
#248 = CARTESIAN_POINT('',(-3.,-36.,0.));
#249 = CIRCLE('',#250,3.);
#250 = AXIS2_PLACEMENT_3D('',#251,#252,#253);
#251 = CARTESIAN_POINT('',(0.,-36.,0.));
#252 = DIRECTION('',(0.,0.,1.));
#253 = DIRECTION('',(1.,0.,0.));
#254 = ORIENTED_EDGE('',*,*,#255,.F.);
#255 = EDGE_CURVE('',#179,#247,#256,.T.);
#256 = LINE('',#257,#258);
#257 = CARTESIAN_POINT('',(-3.,-40.5,0.));
#258 = VECTOR('',#259,1.);
#259 = DIRECTION('',(0.,1.,0.));
#260 = FACE_BOUND('',#261,.F.);
#261 = EDGE_LOOP('',(#262,#272,#280,#288));
#262 = ORIENTED_EDGE('',*,*,#263,.F.);
#263 = EDGE_CURVE('',#264,#266,#268,.T.);
#264 = VERTEX_POINT('',#265);
#265 = CARTESIAN_POINT('',(-1.5,-15.5,0.));
#266 = VERTEX_POINT('',#267);
#267 = CARTESIAN_POINT('',(-1.5,-14.5,0.));
#268 = LINE('',#269,#270);
#269 = CARTESIAN_POINT('',(-1.5,-15.5,0.));
#270 = VECTOR('',#271,1.);
#271 = DIRECTION('',(0.,1.,0.));
#272 = ORIENTED_EDGE('',*,*,#273,.T.);
#273 = EDGE_CURVE('',#264,#274,#276,.T.);
#274 = VERTEX_POINT('',#275);
#275 = CARTESIAN_POINT('',(1.5,-15.5,0.));
#276 = LINE('',#277,#278);
#277 = CARTESIAN_POINT('',(-1.5,-15.5,0.));
#278 = VECTOR('',#279,1.);
#279 = DIRECTION('',(1.,0.,0.));
#280 = ORIENTED_EDGE('',*,*,#281,.T.);
#281 = EDGE_CURVE('',#274,#282,#284,.T.);
#282 = VERTEX_POINT('',#283);
#283 = CARTESIAN_POINT('',(1.5,-14.5,0.));
#284 = LINE('',#285,#286);
#285 = CARTESIAN_POINT('',(1.5,-15.5,0.));
#286 = VECTOR('',#287,1.);
#287 = DIRECTION('',(0.,1.,0.));
#288 = ORIENTED_EDGE('',*,*,#289,.F.);
#289 = EDGE_CURVE('',#266,#282,#290,.T.);
#290 = LINE('',#291,#292);
#291 = CARTESIAN_POINT('',(-1.5,-14.5,0.));
#292 = VECTOR('',#293,1.);
#293 = DIRECTION('',(1.,0.,0.));
#294 = FACE_BOUND('',#295,.F.);
#295 = EDGE_LOOP('',(#296));
#296 = ORIENTED_EDGE('',*,*,#297,.T.);
#297 = EDGE_CURVE('',#298,#298,#300,.T.);
#298 = VERTEX_POINT('',#299);
#299 = CARTESIAN_POINT('',(3.,-20.,0.));
#300 = CIRCLE('',#301,3.);
#301 = AXIS2_PLACEMENT_3D('',#302,#303,#304);
#302 = CARTESIAN_POINT('',(0.,-20.,0.));
#303 = DIRECTION('',(0.,0.,1.));
#304 = DIRECTION('',(1.,0.,0.));
#305 = FACE_BOUND('',#306,.F.);
#306 = EDGE_LOOP('',(#307));
#307 = ORIENTED_EDGE('',*,*,#308,.T.);
#308 = EDGE_CURVE('',#309,#309,#311,.T.);
#309 = VERTEX_POINT('',#310);
#310 = CARTESIAN_POINT('',(3.1,-27.,0.));
#311 = CIRCLE('',#312,3.);
#312 = AXIS2_PLACEMENT_3D('',#313,#314,#315);
#313 = CARTESIAN_POINT('',(1.E-01,-27.,0.));
#314 = DIRECTION('',(0.,0.,1.));
#315 = DIRECTION('',(1.,0.,0.));
#316 = PLANE('',#317);
#317 = AXIS2_PLACEMENT_3D('',#318,#319,#320);
#318 = CARTESIAN_POINT('',(-15.,-9.5,0.));
#319 = DIRECTION('',(0.,-1.224646799147E-16,-1.));
#320 = DIRECTION('',(1.,0.,0.));
#321 = ADVANCED_FACE('',(#322),#333,.T.);
#322 = FACE_BOUND('',#323,.T.);
#323 = EDGE_LOOP('',(#324,#325,#326,#332));
#324 = ORIENTED_EDGE('',*,*,#96,.F.);
#325 = ORIENTED_EDGE('',*,*,#222,.T.);
#326 = ORIENTED_EDGE('',*,*,#327,.T.);
#327 = EDGE_CURVE('',#223,#132,#328,.T.);
#328 = LINE('',#329,#330);
#329 = CARTESIAN_POINT('',(15.,-40.5,3.796405077357E-15));
#330 = VECTOR('',#331,1.);
#331 = DIRECTION('',(0.,-1.224646799147E-16,-1.));
#332 = ORIENTED_EDGE('',*,*,#131,.F.);
#333 = PLANE('',#334);
#334 = AXIS2_PLACEMENT_3D('',#335,#336,#337);
#335 = CARTESIAN_POINT('',(15.,-9.5,0.));
#336 = DIRECTION('',(1.,0.,0.));
#337 = DIRECTION('',(0.,-1.224646799147E-16,-1.));
#338 = ADVANCED_FACE('',(#339,#520,#631,#745),#781,.F.);
#339 = FACE_BOUND('',#340,.T.);
#340 = EDGE_LOOP('',(#341,#342,#350,#359,#367,#428,#434,#435,#443,#504,
    #512,#519));
#341 = ORIENTED_EDGE('',*,*,#104,.F.);
#342 = ORIENTED_EDGE('',*,*,#343,.T.);
#343 = EDGE_CURVE('',#105,#344,#346,.T.);
#344 = VERTEX_POINT('',#345);
#345 = CARTESIAN_POINT('',(5.05,-40.5,-17.15994965554));
#346 = LINE('',#347,#348);
#347 = CARTESIAN_POINT('',(5.05,64.3576915016,21.005128884941));
#348 = VECTOR('',#349,1.);
#349 = DIRECTION('',(0.,-0.939692620786,-0.342020143326));
#350 = ORIENTED_EDGE('',*,*,#351,.T.);
#351 = EDGE_CURVE('',#344,#352,#354,.T.);
#352 = VERTEX_POINT('',#353);
#353 = CARTESIAN_POINT('',(3.,-40.5,-12.83691164339));
#354 = ELLIPSE('',#355,5.374097751004,5.05);
#355 = AXIS2_PLACEMENT_3D('',#356,#357,#358);
#356 = CARTESIAN_POINT('',(0.,-40.5,-17.15994965554));
#357 = DIRECTION('',(0.,-1.,1.224646799147E-16));
#358 = DIRECTION('',(0.,1.224646799147E-16,1.));
#359 = ORIENTED_EDGE('',*,*,#360,.T.);
#360 = EDGE_CURVE('',#352,#361,#363,.T.);
#361 = VERTEX_POINT('',#362);
#362 = CARTESIAN_POINT('',(3.,-36.,-11.19904558919));
#363 = LINE('',#364,#365);
#364 = CARTESIAN_POINT('',(3.,62.968293866394,24.822467514311));
#365 = VECTOR('',#366,1.);
#366 = DIRECTION('',(0.,0.939692620786,0.342020143326));
#367 = ORIENTED_EDGE('',*,*,#368,.T.);
#368 = EDGE_CURVE('',#361,#369,#371,.T.);
#369 = VERTEX_POINT('',#370);
#370 = CARTESIAN_POINT('',(-3.,-36.,-11.19904558919));
#371 = B_SPLINE_CURVE_WITH_KNOTS('',7,(#372,#373,#374,#375,#376,#377,
    #378,#379,#380,#381,#382,#383,#384,#385,#386,#387,#388,#389,#390,
    #391,#392,#393,#394,#395,#396,#397,#398,#399,#400,#401,#402,#403,
    #404,#405,#406,#407,#408,#409,#410,#411,#412,#413,#414,#415,#416,
    #417,#418,#419,#420,#421,#422,#423,#424,#425,#426,#427),
  .UNSPECIFIED.,.F.,.F.,(8,6,6,6,6,6,6,6,6,8),(0.,0.183778898236,
    0.322628031928,0.45230768618,0.535952997898,0.58685162799,
    0.635726049979,0.677460702184,0.815150752386,1.),.UNSPECIFIED.);
#372 = CARTESIAN_POINT('',(3.,-36.,-11.19904558919));
#373 = CARTESIAN_POINT('',(3.,-35.76606537224,-11.11390034792));
#374 = CARTESIAN_POINT('',(2.978718326257,-35.54037136794,
    -11.01502922464));
#375 = CARTESIAN_POINT('',(2.938850524346,-35.32288639841,
    -10.90454074748));
#376 = CARTESIAN_POINT('',(2.881997676023,-35.11340429151,
    -10.78476702667));
#377 = CARTESIAN_POINT('',(2.809110581037,-34.91174573054,
    -10.65790520467));
#378 = CARTESIAN_POINT('',(2.720579915882,-34.71784073669,
    -10.52598772625));
#379 = CARTESIAN_POINT('',(2.537347592204,-34.39132598106,
    -10.28904445273));
#380 = CARTESIAN_POINT('',(2.449532711232,-34.25547497445,
    -10.18544077896));
#381 = CARTESIAN_POINT('',(2.352423638336,-34.12383998482,
    -10.08071107086));
#382 = CARTESIAN_POINT('',(2.245367938752,-33.99626433045,
    -9.975392918498));
#383 = CARTESIAN_POINT('',(2.127487962986,-33.87296308925,
    -9.870248291295));
#384 = CARTESIAN_POINT('',(1.9977798076,-33.75460832201,-9.766438746156)
  );
#385 = CARTESIAN_POINT('',(1.72207637857,-33.53765193673,-9.571583933862
    ));
#386 = CARTESIAN_POINT('',(1.577334019888,-33.437956335,-9.47987306053)
  );
#387 = CARTESIAN_POINT('',(1.419407212271,-33.34389415035,
    -9.391534772621));
#388 = CARTESIAN_POINT('',(1.246749634378,-33.25693031239,
    -9.308353765964));
#389 = CARTESIAN_POINT('',(1.057993283824,-33.17939030564,
    -9.233061586082));
#390 = CARTESIAN_POINT('',(0.852146266315,-33.11451921288,
    -9.169408585786));
#391 = CARTESIAN_POINT('',(0.484821073745,-33.03577222047,
    -9.091688514702));
#392 = CARTESIAN_POINT('',(0.333123282999,-33.01188063501,
    -9.067953313739));
#393 = CARTESIAN_POINT('',(0.17638332866,-32.99681286383,-9.052899915377
    ));
#394 = CARTESIAN_POINT('',(1.722006652885E-02,-32.99158718584,
    -9.04767166602));
#395 = CARTESIAN_POINT('',(-0.141747295422,-32.99646061127,
    -9.052560277409));
#396 = CARTESIAN_POINT('',(-0.297897462219,-33.01093804578,
    -9.06699872037));
#397 = CARTESIAN_POINT('',(-0.540321780723,-33.04760173226,
    -9.103351788882));
#398 = CARTESIAN_POINT('',(-0.629888152884,-33.0645312229,
    -9.120106879242));
#399 = CARTESIAN_POINT('',(-0.717165900797,-33.08428009631,
    -9.13960169136));
#400 = CARTESIAN_POINT('',(-0.80201930386,-33.10659980366,
    -9.161559643209));
#401 = CARTESIAN_POINT('',(-0.884321675687,-33.13123159187,
    -9.185692008727));
#402 = CARTESIAN_POINT('',(-0.963955425842,-33.15790479197,
    -9.211699530504));
#403 = CARTESIAN_POINT('',(-1.114612272425,-33.21363476626,
    -9.265751912976));
#404 = CARTESIAN_POINT('',(-1.185990533471,-33.24260581038,
    -9.293724375172));
#405 = CARTESIAN_POINT('',(-1.255012031127,-33.27307397412,
    -9.322992647843));
#406 = CARTESIAN_POINT('',(-1.321748724612,-33.30488625517,
    -9.353380359483));
#407 = CARTESIAN_POINT('',(-1.386279050559,-33.3379109925,-9.38473337932
    ));
#408 = CARTESIAN_POINT('',(-1.448687567642,-33.37203794419,
    -9.41691965834));
#409 = CARTESIAN_POINT('',(-1.560621517754,-33.43718533402,
    -9.477930944606));
#410 = CARTESIAN_POINT('',(-1.610706000037,-33.46793649343,
    -9.506564953094));
#411 = CARTESIAN_POINT('',(-1.659367348352,-33.49937384595,
    -9.535659695831));
#412 = CARTESIAN_POINT('',(-1.706655651629,-33.53144839025,
    -9.565153134406));
#413 = CARTESIAN_POINT('',(-1.752621712261,-33.56412029876,
    -9.594992366949));
#414 = CARTESIAN_POINT('',(-1.797316970956,-33.59735909528,
    -9.62513340314));
#415 = CARTESIAN_POINT('',(-1.984230017932,-33.74260569736,
    -9.755860816035));
#416 = CARTESIAN_POINT('',(-2.114762833171,-33.86029189694,
    -9.859335262936));
#417 = CARTESIAN_POINT('',(-2.233419726324,-33.98294904116,
    -9.964220429811));
#418 = CARTESIAN_POINT('',(-2.341216762346,-34.10988450785,
    -10.06934003561));
#419 = CARTESIAN_POINT('',(-2.439048613362,-34.24086973369,
    -10.17392755386));
#420 = CARTESIAN_POINT('',(-2.527587885883,-34.37605610099,
    -10.27745086842));
#421 = CARTESIAN_POINT('',(-2.714063970518,-34.70364880668,
    -10.51631241528));
#422 = CARTESIAN_POINT('',(-2.804643931898,-34.89946247868,
    -10.65016130926));
#423 = CARTESIAN_POINT('',(-2.879202001525,-35.10318150364,
    -10.77890717673));
#424 = CARTESIAN_POINT('',(-2.937371064128,-35.31489613276,
    -10.90046999217));
#425 = CARTESIAN_POINT('',(-2.978187294026,-35.53481277194,
    -11.01258869056));
#426 = CARTESIAN_POINT('',(-3.,-35.76316437029,-11.11284446957));
#427 = CARTESIAN_POINT('',(-3.,-36.,-11.19904558919));
#428 = ORIENTED_EDGE('',*,*,#429,.F.);
#429 = EDGE_CURVE('',#197,#369,#430,.T.);
#430 = LINE('',#431,#432);
#431 = CARTESIAN_POINT('',(-3.,62.968293866394,24.822467514311));
#432 = VECTOR('',#433,1.);
#433 = DIRECTION('',(0.,0.939692620786,0.342020143326));
#434 = ORIENTED_EDGE('',*,*,#196,.T.);
#435 = ORIENTED_EDGE('',*,*,#436,.T.);
#436 = EDGE_CURVE('',#189,#437,#439,.T.);
#437 = VERTEX_POINT('',#438);
#438 = CARTESIAN_POINT('',(-3.,-36.,-19.84512161348));
#439 = LINE('',#440,#441);
#440 = CARTESIAN_POINT('',(-3.,65.747089136807,17.187790255571));
#441 = VECTOR('',#442,1.);
#442 = DIRECTION('',(0.,0.939692620786,0.342020143326));
#443 = ORIENTED_EDGE('',*,*,#444,.F.);
#444 = EDGE_CURVE('',#445,#437,#447,.T.);
#445 = VERTEX_POINT('',#446);
#446 = CARTESIAN_POINT('',(3.,-36.,-19.84512161348));
#447 = B_SPLINE_CURVE_WITH_KNOTS('',7,(#448,#449,#450,#451,#452,#453,
    #454,#455,#456,#457,#458,#459,#460,#461,#462,#463,#464,#465,#466,
    #467,#468,#469,#470,#471,#472,#473,#474,#475,#476,#477,#478,#479,
    #480,#481,#482,#483,#484,#485,#486,#487,#488,#489,#490,#491,#492,
    #493,#494,#495,#496,#497,#498,#499,#500,#501,#502,#503),
  .UNSPECIFIED.,.F.,.F.,(8,6,6,6,6,6,6,6,6,8),(0.,0.149109461548,
    0.335743439361,0.434215898481,0.498044474129,0.56611064742,
    0.598818160198,0.662230647111,0.782489996826,1.),.UNSPECIFIED.);
#448 = CARTESIAN_POINT('',(3.,-36.,-19.84512161348));
#449 = CARTESIAN_POINT('',(3.,-35.83959430703,-19.78673871584));
#450 = CARTESIAN_POINT('',(2.989993674574,-35.67524350533,
    -19.73478390311));
#451 = CARTESIAN_POINT('',(2.969096300556,-35.5078806485,-19.69029126032
    ));
#452 = CARTESIAN_POINT('',(2.936525246554,-35.33840694744,
    -19.65395068362));
#453 = CARTESIAN_POINT('',(2.891530991039,-35.16777890863,
    -19.62605938509));
#454 = CARTESIAN_POINT('',(2.833383557346,-34.99707910769,
    -19.60651311399));
#455 = CARTESIAN_POINT('',(2.671333586027,-34.61540399943,
    -19.58022271673));
#456 = CARTESIAN_POINT('',(2.560020925009,-34.4060981888,-19.57800696879
    ));
#457 = CARTESIAN_POINT('',(2.426534240656,-34.20211112426,
    -19.58705448269));
#458 = CARTESIAN_POINT('',(2.2701774731,-34.00634092163,-19.60536885748)
  );
#459 = CARTESIAN_POINT('',(2.090674164166,-33.82218484441,
    -19.63023669657));
#460 = CARTESIAN_POINT('',(1.888401770978,-33.65343876206,
    -19.65860937511));
#461 = CARTESIAN_POINT('',(1.546408021507,-33.42535819103,
    -19.70265409113));
#462 = CARTESIAN_POINT('',(1.422053876092,-33.35184737579,
    -19.71802296159));
#463 = CARTESIAN_POINT('',(1.291786314349,-33.2843565354,-19.73307741514
    ));
#464 = CARTESIAN_POINT('',(1.156006413066,-33.22358964502,
    -19.74734434847));
#465 = CARTESIAN_POINT('',(1.015189759502,-33.17019706659,
    -19.76037848256));
#466 = CARTESIAN_POINT('',(0.869879475387,-33.12477238035,
    -19.77178574416));
#467 = CARTESIAN_POINT('',(0.623968816626,-33.06391612407,
    -19.78736788615));
#468 = CARTESIAN_POINT('',(0.525686834991,-33.04357054287,
    -19.79267144531));
#469 = CARTESIAN_POINT('',(0.426117785397,-33.0269778363,-19.79705588943
    ));
#470 = CARTESIAN_POINT('',(0.325554822928,-33.01426413181,
    -19.80044671807));
#471 = CARTESIAN_POINT('',(0.224298411714,-33.00551648257,
    -19.80279130677));
#472 = CARTESIAN_POINT('',(0.122655429468,-33.00078301389,
    -19.80406064124));
#473 = CARTESIAN_POINT('',(-8.753191702136E-02,-32.99931599154,
    -19.8044541034));
#474 = CARTESIAN_POINT('',(-0.196025131254,-33.00313491645,
    -19.80343013737));
#475 = CARTESIAN_POINT('',(-0.304160644622,-33.01153021773,
    -19.80117633665));
#476 = CARTESIAN_POINT('',(-0.411564406951,-33.02445185929,
    -19.79772297687));
#477 = CARTESIAN_POINT('',(-0.517870291949,-33.04179919698,
    -19.79313111177));
#478 = CARTESIAN_POINT('',(-0.622721345202,-33.06342078028,
    -19.78749025895));
#479 = CARTESIAN_POINT('',(-0.775289005499,-33.1014604679,
    -19.77775702943));
#480 = CARTESIAN_POINT('',(-0.824399700329,-33.11474908661,
    -19.77438183736));
#481 = CARTESIAN_POINT('',(-0.873074661516,-33.12896060433,
    -19.77080261717));
#482 = CARTESIAN_POINT('',(-0.921286296734,-33.1440741517,
    -19.76703236604));
#483 = CARTESIAN_POINT('',(-0.969007876481,-33.16006739566,
    -19.76308497049));
#484 = CARTESIAN_POINT('',(-1.016213534078,-33.17691653947,
    -19.75897520638));
#485 = CARTESIAN_POINT('',(-1.153350650446,-33.22887343309,
    -19.74646640892));
#486 = CARTESIAN_POINT('',(-1.241767882271,-33.26626449557,
    -19.73766447067));
#487 = CARTESIAN_POINT('',(-1.328010592378,-33.30660562427,
    -19.72842102832));
#488 = CARTESIAN_POINT('',(-1.41197124979,-33.34972792106,-19.7188515268
    ));
#489 = CARTESIAN_POINT('',(-1.4935540377,-33.39545755095,-19.70907646544
    ));
#490 = CARTESIAN_POINT('',(-1.572674729856,-33.44361581735,
    -19.69921911153));
#491 = CARTESIAN_POINT('',(-1.794502670113,-33.58960739078,
    -19.67078774038));
#492 = CARTESIAN_POINT('',(-1.930428069316,-33.69313855223,
    -19.65234688003));
#493 = CARTESIAN_POINT('',(-2.056960619176,-33.80356810312,
    -19.63487542434));
#494 = CARTESIAN_POINT('',(-2.174078416435,-33.91995093865,
    -19.61915764121));
#495 = CARTESIAN_POINT('',(-2.281808304329,-34.04142195367,
    -19.60595108806));
#496 = CARTESIAN_POINT('',(-2.380218912707,-34.16717971205,
    -19.59596188406));
#497 = CARTESIAN_POINT('',(-2.630733907503,-34.53032329691,
    -19.57868729387));
#498 = CARTESIAN_POINT('',(-2.761346781193,-34.77493414659,
    -19.58015988577));
#499 = CARTESIAN_POINT('',(-2.861682834,-35.02491363133,-19.59778155258)
  );
#500 = CARTESIAN_POINT('',(-2.93346417259,-35.2758041885,-19.63382300903
    ));
#501 = CARTESIAN_POINT('',(-2.978801061519,-35.52404796493,
    -19.68854979692));
#502 = CARTESIAN_POINT('',(-3.,-35.76652636397,-19.76014415949));
#503 = CARTESIAN_POINT('',(-3.,-36.,-19.84512161348));
#504 = ORIENTED_EDGE('',*,*,#505,.F.);
#505 = EDGE_CURVE('',#506,#445,#508,.T.);
#506 = VERTEX_POINT('',#507);
#507 = CARTESIAN_POINT('',(3.,-40.5,-21.48298766768));
#508 = LINE('',#509,#510);
#509 = CARTESIAN_POINT('',(3.,65.747089136807,17.187790255571));
#510 = VECTOR('',#511,1.);
#511 = DIRECTION('',(0.,0.939692620786,0.342020143326));
#512 = ORIENTED_EDGE('',*,*,#513,.T.);
#513 = EDGE_CURVE('',#506,#344,#514,.T.);
#514 = ELLIPSE('',#515,5.374097751004,5.05);
#515 = AXIS2_PLACEMENT_3D('',#516,#517,#518);
#516 = CARTESIAN_POINT('',(0.,-40.5,-17.15994965554));
#517 = DIRECTION('',(0.,-1.,1.224646799147E-16));
#518 = DIRECTION('',(0.,1.224646799147E-16,1.));
#519 = ORIENTED_EDGE('',*,*,#343,.F.);
#520 = FACE_BOUND('',#521,.T.);
#521 = EDGE_LOOP('',(#522));
#522 = ORIENTED_EDGE('',*,*,#523,.T.);
#523 = EDGE_CURVE('',#524,#524,#526,.T.);
#524 = VERTEX_POINT('',#525);
#525 = CARTESIAN_POINT('',(1.6,-27.,-7.149117699123));
#526 = B_SPLINE_CURVE_WITH_KNOTS('',7,(#527,#528,#529,#530,#531,#532,
    #533,#534,#535,#536,#537,#538,#539,#540,#541,#542,#543,#544,#545,
    #546,#547,#548,#549,#550,#551,#552,#553,#554,#555,#556,#557,#558,
    #559,#560,#561,#562,#563,#564,#565,#566,#567,#568,#569,#570,#571,
    #572,#573,#574,#575,#576,#577,#578,#579,#580,#581,#582,#583,#584,
    #585,#586,#587,#588,#589,#590,#591,#592,#593,#594,#595,#596,#597,
    #598,#599,#600,#601,#602,#603,#604,#605,#606,#607,#608,#609,#610,
    #611,#612,#613,#614,#615,#616,#617,#618,#619,#620,#621,#622,#623,
    #624,#625,#626,#627,#628,#629,#630),.UNSPECIFIED.,.T.,.F.,(8,6,6,6,6
    ,6,6,6,6,6,6,6,6,6,6,6,6,8),(0.,5.795595478453E-02,0.166130771208,
    0.199839450359,0.23715295262,0.287347175828,0.324453610805,
    0.356848288278,0.468377208909,0.559901160163,0.602428712587,
    0.65746158859,0.719878475366,0.761516523124,0.820428467074,
    0.861074551267,0.911832324704,1.),.UNSPECIFIED.);
#527 = CARTESIAN_POINT('',(1.6,-27.,-7.149117699123));
#528 = CARTESIAN_POINT('',(1.6,-26.93196313341,-7.124354304854));
#529 = CARTESIAN_POINT('',(1.596399938247,-26.86443729302,
    -7.098497052549));
#530 = CARTESIAN_POINT('',(1.589296073788,-26.79752493214,-7.07161787404
    ));
#531 = CARTESIAN_POINT('',(1.578764126049,-26.73132436664,
    -7.043799113218));
#532 = CARTESIAN_POINT('',(1.564859986757,-26.66593153508,
    -7.015132915642));
#533 = CARTESIAN_POINT('',(1.547620431874,-26.60144175868,
    -6.985720618134));
#534 = CARTESIAN_POINT('',(1.488694933187,-26.41944690683,
    -6.899586637018));
#535 = CARTESIAN_POINT('',(1.438891568012,-26.30480248908,
    -6.841463784187));
#536 = CARTESIAN_POINT('',(1.377738678536,-26.19411245432,
    -6.781810374409));
#537 = CARTESIAN_POINT('',(1.304842712923,-26.08775132328,
    -6.721257342967));
#538 = CARTESIAN_POINT('',(1.219516764412,-25.98655887131,
    -6.660716713588));
#539 = CARTESIAN_POINT('',(1.120936781113,-25.89198635192,
    -6.601606179238));
#540 = CARTESIAN_POINT('',(0.973304809433,-25.77963884002,
    -6.528699367543));
#541 = CARTESIAN_POINT('',(0.936837620912,-25.75378606932,
    -6.511702901223));
#542 = CARTESIAN_POINT('',(0.89895207984,-25.72884588355,-6.495096455746
    ));
#543 = CARTESIAN_POINT('',(0.859625728914,-25.70490176798,
    -6.478953200301));
#544 = CARTESIAN_POINT('',(0.818839753058,-25.68204705097,
    -6.463354141417));
#545 = CARTESIAN_POINT('',(0.776579512891,-25.66038509687,
    -6.448388078843));
#546 = CARTESIAN_POINT('',(0.684412591632,-25.61749706307,
    -6.418392583677));
#547 = CARTESIAN_POINT('',(0.634096003967,-25.59653026935,-6.4035029647)
  );
#548 = CARTESIAN_POINT('',(0.581981735812,-25.5773482148,-6.38965778365)
  );
#549 = CARTESIAN_POINT('',(0.528178460446,-25.56015439122,
    -6.377025303397));
#550 = CARTESIAN_POINT('',(0.472806557934,-25.54513825016,
    -6.365764896126));
#551 = CARTESIAN_POINT('',(0.415997569254,-25.53247676796,
    -6.356024968942));
#552 = CARTESIAN_POINT('',(0.279732103137,-25.50869463702,
    -6.337066164112));
#553 = CARTESIAN_POINT('',(0.199298992274,-25.49962716564,
    -6.329197791305));
#554 = CARTESIAN_POINT('',(0.117514200505,-25.49562156188,
    -6.324734254024));
#555 = CARTESIAN_POINT('',(3.532585095532E-02,-25.49690921614,
    -6.323883745335));
#556 = CARTESIAN_POINT('',(-4.630973518154E-02,-25.50347731527,
    -6.326649358332));
#557 = CARTESIAN_POINT('',(-0.126448701973,-25.51506821081,
    -6.332829884535));
#558 = CARTESIAN_POINT('',(-0.261645052732,-25.54306602909,
    -6.348842069979));
#559 = CARTESIAN_POINT('',(-0.317760686424,-25.5574223246,
    -6.357297593229));
#560 = CARTESIAN_POINT('',(-0.372392674334,-25.57406864257,
    -6.367269397225));
#561 = CARTESIAN_POINT('',(-0.425416296621,-25.59282842388,
    -6.37861201196));
#562 = CARTESIAN_POINT('',(-0.476717965122,-25.6135130772,
    -6.391169930808));
#563 = CARTESIAN_POINT('',(-0.526195905099,-25.63592047803,
    -6.404779650637));
#564 = CARTESIAN_POINT('',(-0.615285996405,-25.68070999712,
    -6.43192357815));
#565 = CARTESIAN_POINT('',(-0.655407867777,-25.70276150461,
    -6.44526460815));
#566 = CARTESIAN_POINT('',(-0.694136890373,-25.72588763695,
    -6.459208639026));
#567 = CARTESIAN_POINT('',(-0.731487363777,-25.7499967164,
    -6.473676244873));
#568 = CARTESIAN_POINT('',(-0.767477016838,-25.77500559591,
    -6.488594743515));
#569 = CARTESIAN_POINT('',(-0.802126576624,-25.80083951432,
    -6.503898203238));
#570 = CARTESIAN_POINT('',(-0.9502179063,-25.91898482565,-6.573336071979
    ));
#571 = CARTESIAN_POINT('',(-1.049751983222,-26.0198345939,
    -6.631186067546));
#572 = CARTESIAN_POINT('',(-1.134884103058,-26.12742971425,
    -6.690738075518));
#573 = CARTESIAN_POINT('',(-1.206539897673,-26.24017168761,
    -6.750434850745));
#574 = CARTESIAN_POINT('',(-1.265479874694,-26.35713947486,
    -6.809296942246));
#575 = CARTESIAN_POINT('',(-1.312123187316,-26.47791839094,
    -6.866665567666));
#576 = CARTESIAN_POINT('',(-1.374418004585,-26.70451448857,
    -6.967477266185));
#577 = CARTESIAN_POINT('',(-1.394063940385,-26.80889743922,
    -7.011469173913));
#578 = CARTESIAN_POINT('',(-1.405177265254,-26.9150874679,
    -7.053590846409));
#579 = CARTESIAN_POINT('',(-1.407561976669,-27.02266006728,
    -7.093494747808));
#580 = CARTESIAN_POINT('',(-1.400925581251,-27.13116736614,
    -7.130897742047));
#581 = CARTESIAN_POINT('',(-1.384872072433,-27.24008957707,
    -7.165583352269));
#582 = CARTESIAN_POINT('',(-1.346814503406,-27.39927945602,
    -7.21220835348));
#583 = CARTESIAN_POINT('',(-1.332600653053,-27.44971515655,
    -7.226379464074));
#584 = CARTESIAN_POINT('',(-1.316201073282,-27.50000341272,
    -7.239912638452));
#585 = CARTESIAN_POINT('',(-1.297569301053,-27.55005656395,
    -7.252795173033));
#586 = CARTESIAN_POINT('',(-1.276657998325,-27.59977923886,
    -7.265019491268));
#587 = CARTESIAN_POINT('',(-1.253418978761,-27.64906780831,
    -7.276583609228));
#588 = CARTESIAN_POINT('',(-1.194655122207,-27.76088457342,
    -7.301607113005));
#589 = CARTESIAN_POINT('',(-1.157518902364,-27.82305979037,
    -7.314627596789));
#590 = CARTESIAN_POINT('',(-1.116305386365,-27.88404939645,
    -7.32655064191));
#591 = CARTESIAN_POINT('',(-1.070941973805,-27.94353949312,
    -7.337395201793));
#592 = CARTESIAN_POINT('',(-1.021374728392,-28.00118789932,
    -7.347200147058));
#593 = CARTESIAN_POINT('',(-0.967570453925,-28.05662367464,
    -7.356022818665));
#594 = CARTESIAN_POINT('',(-0.843678028704,-28.16935710765,
    -7.372914303042));
#595 = CARTESIAN_POINT('',(-0.772267748189,-28.22600213834,
    -7.380737466519));
#596 = CARTESIAN_POINT('',(-0.695447746438,-28.27859001578,
    -7.387478144673));
#597 = CARTESIAN_POINT('',(-0.613487416427,-28.32635564497,
    -7.393262003751));
#598 = CARTESIAN_POINT('',(-0.526763748886,-28.36857112954,
    -7.398240542585));
#599 = CARTESIAN_POINT('',(-0.435759354789,-28.4045563467,
    -7.402562332125));
#600 = CARTESIAN_POINT('',(-0.277887264256,-28.45312414342,
    -7.408867160088));
#601 = CARTESIAN_POINT('',(-0.21312446484,-28.46949263925,-7.41114730892
    ));
#602 = CARTESIAN_POINT('',(-0.147069047078,-28.48258487606,
    -7.413216239162));
#603 = CARTESIAN_POINT('',(-8.003681440299E-02,-28.49224225429,
    -7.415100039741));
#604 = CARTESIAN_POINT('',(-1.235856255853E-02,-28.49835878917,
    -7.416816054963));
#605 = CARTESIAN_POINT('',(5.562377404374E-02,-28.50088219157,
    -7.418369588679));
#606 = CARTESIAN_POINT('',(0.219682500569,-28.49830495115,
    -7.421704555928));
#607 = CARTESIAN_POINT('',(0.315516471866,-28.48961062228,
    -7.423309601463));
#608 = CARTESIAN_POINT('',(0.410149773456,-28.47379348471,
    -7.424544649628));
#609 = CARTESIAN_POINT('',(0.502689983751,-28.45110716247,
    -7.425334473758));
#610 = CARTESIAN_POINT('',(0.592302943074,-28.42198893658,
    -7.425555753371));
#611 = CARTESIAN_POINT('',(0.678247688263,-28.38704670733,
    -7.425062203603));
#612 = CARTESIAN_POINT('',(0.816250514409,-28.3194398204,-7.42280881731)
  );
#613 = CARTESIAN_POINT('',(0.870611813423,-28.28939931681,
    -7.421488074641));
#614 = CARTESIAN_POINT('',(0.922883124539,-28.25711159317,
    -7.419722095101));
#615 = CARTESIAN_POINT('',(0.97297341288,-28.22277257179,-7.417466188712
    ));
#616 = CARTESIAN_POINT('',(1.020809830818,-28.18658126024,
    -7.414678371581));
#617 = CARTESIAN_POINT('',(1.066337412816,-28.14873865454,
    -7.411322288411));
#618 = CARTESIAN_POINT('',(1.163442527046,-28.06037979909,
    -7.402434788601));
#619 = CARTESIAN_POINT('',(1.213715685318,-28.00904545549,
    -7.396569288859));
#620 = CARTESIAN_POINT('',(1.260336357714,-27.95576865287,
    -7.389711364512));
#621 = CARTESIAN_POINT('',(1.303322460379,-27.90085449953,
    -7.381812103211));
#622 = CARTESIAN_POINT('',(1.34271012021,-27.84458815714,-7.372837513348
    ));
#623 = CARTESIAN_POINT('',(1.378552082098,-27.7872348269,-7.362770085844
    ));
#624 = CARTESIAN_POINT('',(1.46713335057,-27.62795323122,-7.332225592285
    ));
#625 = CARTESIAN_POINT('',(1.512822768297,-27.52438793643,
    -7.309556407014));
#626 = CARTESIAN_POINT('',(1.548494524942,-27.41938908541,
    -7.283561825548));
#627 = CARTESIAN_POINT('',(1.574627554841,-27.31379888993,
    -7.254311834246));
#628 = CARTESIAN_POINT('',(1.591662706803,-27.20831379081,
    -7.221973970234));
#629 = CARTESIAN_POINT('',(1.6,-27.10353323811,-7.186800716054));
#630 = CARTESIAN_POINT('',(1.6,-27.,-7.149117699123));
#631 = FACE_BOUND('',#632,.T.);
#632 = EDGE_LOOP('',(#633));
#633 = ORIENTED_EDGE('',*,*,#634,.T.);
#634 = EDGE_CURVE('',#635,#635,#637,.T.);
#635 = VERTEX_POINT('',#636);
#636 = CARTESIAN_POINT('',(3.,-20.,-5.375521840934));
#637 = B_SPLINE_CURVE_WITH_KNOTS('',8,(#638,#639,#640,#641,#642,#643,
    #644,#645,#646,#647,#648,#649,#650,#651,#652,#653,#654,#655,#656,
    #657,#658,#659,#660,#661,#662,#663,#664,#665,#666,#667,#668,#669,
    #670,#671,#672,#673,#674,#675,#676,#677,#678,#679,#680,#681,#682,
    #683,#684,#685,#686,#687,#688,#689,#690,#691,#692,#693,#694,#695,
    #696,#697,#698,#699,#700,#701,#702,#703,#704,#705,#706,#707,#708,
    #709,#710,#711,#712,#713,#714,#715,#716,#717,#718,#719,#720,#721,
    #722,#723,#724,#725,#726,#727,#728,#729,#730,#731,#732,#733,#734,
    #735,#736,#737,#738,#739,#740,#741,#742,#743,#744),.UNSPECIFIED.,.T.
  ,.F.,(9,7,7,7,7,7,7,7,7,7,7,7,7,7,7,9),(0.,0.100134521108,
    0.176467827373,0.224694786045,0.270954240684,0.317672562542,
    0.367338280658,0.441498052697,0.541978752386,0.576183551098,
    0.662578509721,0.715402998563,0.770690184696,0.815768181912,
    0.933478413979,1.),.UNSPECIFIED.);
#638 = CARTESIAN_POINT('',(3.,-20.,-5.375521840934));
#639 = CARTESIAN_POINT('',(3.,-19.79360297996,-5.300399469201));
#640 = CARTESIAN_POINT('',(2.983771884905,-19.59350158957,
    -5.214814864002));
#641 = CARTESIAN_POINT('',(2.953045921317,-19.39967135523,
    -5.120120022629));
#642 = CARTESIAN_POINT('',(2.908984959775,-19.2119974049,-5.017780888936
    ));
#643 = CARTESIAN_POINT('',(2.852357728046,-19.03035256158,-4.90923654552
    ));
#644 = CARTESIAN_POINT('',(2.783619293592,-18.85464506583,
    -4.795845730255));
#645 = CARTESIAN_POINT('',(2.702929324849,-18.68485640716,
    -4.678898929012));
#646 = CARTESIAN_POINT('',(2.539403844246,-18.39624917292,
    -4.468788453041));
#647 = CARTESIAN_POINT('',(2.461719794517,-18.27505392421,
    -4.376684980569));
#648 = CARTESIAN_POINT('',(2.376852096245,-18.15719057176,
    -4.283684814734));
#649 = CARTESIAN_POINT('',(2.284395645688,-18.04251338123,
    -4.190130156867));
#650 = CARTESIAN_POINT('',(2.183812876339,-17.93107332506,
    -4.096464431021));
#651 = CARTESIAN_POINT('',(2.074474396265,-17.82315073382,
    -4.003307157483));
#652 = CARTESIAN_POINT('',(1.955702157282,-17.71929158416,-3.91152374263
    ));
#653 = CARTESIAN_POINT('',(1.745385064851,-17.55783505232,-3.76591291946
    ));
#654 = CARTESIAN_POINT('',(1.659853907761,-17.49723569185,
    -3.710509304408));
#655 = CARTESIAN_POINT('',(1.569876486232,-17.43864466807,
    -3.656266093265));
#656 = CARTESIAN_POINT('',(1.475106912633,-17.38226445075,
    -3.603463978916));
#657 = CARTESIAN_POINT('',(1.375209548295,-17.32840439923,
    -3.552488202174));
#658 = CARTESIAN_POINT('',(1.269870458189,-17.27748268745,-3.50383701019
    ));
#659 = CARTESIAN_POINT('',(1.158809382147,-17.2300304078,-3.458127964924
    ));
#660 = CARTESIAN_POINT('',(0.929548985049,-17.14513312828,
    -3.375790757895));
#661 = CARTESIAN_POINT('',(0.810404349151,-17.10683210158,
    -3.338357386318));
#662 = CARTESIAN_POINT('',(0.685216846194,-17.07302315792,-3.30507744032
    ));
#663 = CARTESIAN_POINT('',(0.554862700581,-17.04471635075,
    -3.277050969365));
#664 = CARTESIAN_POINT('',(0.420238172408,-17.02272242757,
    -3.255186494557));
#665 = CARTESIAN_POINT('',(0.282259949208,-17.00766702011,
    -3.240188908464));
#666 = CARTESIAN_POINT('',(0.141863586906,-17.,-3.232551399276));
#667 = CARTESIAN_POINT('',(-0.143270792201,-17.,-3.232551399276));
#668 = CARTESIAN_POINT('',(-0.284975906057,-17.00781988256,
    -3.240341184028));
#669 = CARTESIAN_POINT('',(-0.424162676422,-17.02315943518,
    -3.255621816902));
#670 = CARTESIAN_POINT('',(-0.559895097507,-17.04554879852,
    -3.277878413458));
#671 = CARTESIAN_POINT('',(-0.691257649137,-17.07434363963,
    -3.306384618982));
#672 = CARTESIAN_POINT('',(-0.817356971263,-17.10871543688,
    -3.340211055301));
#673 = CARTESIAN_POINT('',(-0.937321386726,-17.14763687684,
    -3.378237736854));
#674 = CARTESIAN_POINT('',(-1.170402717978,-17.23475179829,
    -3.462685565557));
#675 = CARTESIAN_POINT('',(-1.284209749878,-17.28397357663,
    -3.510064856679));
#676 = CARTESIAN_POINT('',(-1.391975838128,-17.33682394795,
    -3.56050563039));
#677 = CARTESIAN_POINT('',(-1.494008271729,-17.39273221837,
    -3.613343193387));
#678 = CARTESIAN_POINT('',(-1.590650841903,-17.45125343799,
    -3.668045821664));
#679 = CARTESIAN_POINT('',(-1.68227012852,-17.51206361605,
    -3.724207217994));
#680 = CARTESIAN_POINT('',(-1.769242389559,-17.57495746351,
    -3.781536463328));
#681 = CARTESIAN_POINT('',(-1.975424903359,-17.73674279305,
    -3.926911193126));
#682 = CARTESIAN_POINT('',(-2.089478951892,-17.83816757832,
    -4.016231092246));
#683 = CARTESIAN_POINT('',(-2.194722201098,-17.94337893907,
    -4.106763331019));
#684 = CARTESIAN_POINT('',(-2.291765956036,-18.05189876178,
    -4.197734447458));
#685 = CARTESIAN_POINT('',(-2.381175268714,-18.16348065864,
    -4.288583175792));
#686 = CARTESIAN_POINT('',(-2.463432441331,-18.27807858681,
    -4.378900304837));
#687 = CARTESIAN_POINT('',(-2.538902589029,-18.39581832703,
    -4.468364564961));
#688 = CARTESIAN_POINT('',(-2.701153583587,-18.68112534588,
    -4.676327668274));
#689 = CARTESIAN_POINT('',(-2.782323678145,-18.85133797125,
    -4.793710431761));
#690 = CARTESIAN_POINT('',(-2.851468187152,-19.02750385169,
    -4.907533292128));
#691 = CARTESIAN_POINT('',(-2.908430744638,-19.20964164675,
    -5.016495452835));
#692 = CARTESIAN_POINT('',(-2.952755619549,-19.39784479638,
    -5.11922707733));
#693 = CARTESIAN_POINT('',(-2.98366948104,-19.59224281462,
    -5.214276225598));
#694 = CARTESIAN_POINT('',(-3.,-19.79295275496,-5.300162806653));
#695 = CARTESIAN_POINT('',(-3.,-20.07048129006,-5.401174932589));
#696 = CARTESIAN_POINT('',(-2.998107591895,-20.14163678082,
    -5.425586223903));
#697 = CARTESIAN_POINT('',(-2.994259371845,-20.21341407965,
    -5.448686717259));
#698 = CARTESIAN_POINT('',(-2.988392349866,-20.28576021228,
    -5.470415824711));
#699 = CARTESIAN_POINT('',(-2.980443241721,-20.35862132683,
    -5.490721859655));
#700 = CARTESIAN_POINT('',(-2.970347760802,-20.43194239784,
    -5.509562528494));
#701 = CARTESIAN_POINT('',(-2.958039910023,-20.50566693032,
    -5.526905422302));
#702 = CARTESIAN_POINT('',(-2.906603092217,-20.76682303162,
    -5.582694680736));
#703 = CARTESIAN_POINT('',(-2.855241525674,-20.95592014876,
    -5.612923410087));
#704 = CARTESIAN_POINT('',(-2.788416229918,-21.14557283249,
    -5.632984996349));
#705 = CARTESIAN_POINT('',(-2.705303147798,-21.33421073363,
    -5.643001068756));
#706 = CARTESIAN_POINT('',(-2.605222123287,-21.52003986675,
    -5.643673424923));
#707 = CARTESIAN_POINT('',(-2.487722666035,-21.70099929047,
    -5.636226303421));
#708 = CARTESIAN_POINT('',(-2.352713954053,-21.87478512161,
    -5.622278632217));
#709 = CARTESIAN_POINT('',(-2.107617363883,-22.1393158075,
    -5.592280509875));
#710 = CARTESIAN_POINT('',(-2.008061356655,-22.23627127092,
    -5.579132196319));
#711 = CARTESIAN_POINT('',(-1.901967944075,-22.32926406496,
    -5.564622332188));
#712 = CARTESIAN_POINT('',(-1.789400809727,-22.41772969212,
    -5.54918517976));
#713 = CARTESIAN_POINT('',(-1.670469523411,-22.50108705424,
    -5.533272528804));
#714 = CARTESIAN_POINT('',(-1.545332547375,-22.57873995723,
    -5.517341439408));
#715 = CARTESIAN_POINT('',(-1.414200242532,-22.65007861565,
    -5.501841984808));
#716 = CARTESIAN_POINT('',(-1.134094932429,-22.78188616956,
    -5.471885621689));
#717 = CARTESIAN_POINT('',(-0.984267292307,-22.84183808316,
    -5.457478151795));
#718 = CARTESIAN_POINT('',(-0.828681058608,-22.89329841495,
    -5.444545690865));
#719 = CARTESIAN_POINT('',(-0.66827736041,-22.93541497587,
    -5.433605429933));
#720 = CARTESIAN_POINT('',(-0.504088766989,-22.96752264976,
    -5.425083554524));
#721 = CARTESIAN_POINT('',(-0.337215144839,-22.98914547082,
    -5.419284250343));
#722 = CARTESIAN_POINT('',(-0.168798956331,-23.,-5.416372804875));
#723 = CARTESIAN_POINT('',(0.137628977266,-23.,-5.416372804875));
#724 = CARTESIAN_POINT('',(0.275105943166,-22.9927840934,-5.418308238516
    ));
#725 = CARTESIAN_POINT('',(0.411764272087,-22.9783802087,-5.422171516434
    ));
#726 = CARTESIAN_POINT('',(0.546943193798,-22.95691467318,
    -5.427889144147));
#727 = CARTESIAN_POINT('',(0.679998044522,-22.92861063333,
    -5.435322490497));
#728 = CARTESIAN_POINT('',(0.810310379758,-22.89378697612,
    -5.444273253112));
#729 = CARTESIAN_POINT('',(0.937297948855,-22.85285775097,
    -5.454493620892));
#730 = CARTESIAN_POINT('',(1.381939671602,-22.68484164492,
    -5.494966828399));
#731 = CARTESIAN_POINT('',(1.675749665646,-22.52571179986,
    -5.530838393083));
#732 = CARTESIAN_POINT('',(1.93911200502,-22.33615737659,-5.568770348258
    ));
#733 = CARTESIAN_POINT('',(2.170537618513,-22.12257096989,
    -5.603717081889));
#734 = CARTESIAN_POINT('',(2.36935000054,-21.89084851096,-5.63065346729)
  );
#735 = CARTESIAN_POINT('',(2.535741237928,-21.6464654202,-5.644858373274
    ));
#736 = CARTESIAN_POINT('',(2.670594143808,-21.39432428882,
    -5.642954777371));
#737 = CARTESIAN_POINT('',(2.834630323597,-20.99459103113,
    -5.612298650324));
#738 = CARTESIAN_POINT('',(2.884120295492,-20.84956676774,
    -5.595608975167));
#739 = CARTESIAN_POINT('',(2.924268780975,-20.70455690081,
    -5.573053364663));
#740 = CARTESIAN_POINT('',(2.95549533319,-20.56018767504,-5.544551659108
    ));
#741 = CARTESIAN_POINT('',(2.978229587753,-20.41702492497,
    -5.510197552377));
#742 = CARTESIAN_POINT('',(2.992911026921,-20.27559547716,
    -5.470259174841));
#743 = CARTESIAN_POINT('',(3.,-20.1364118141,-5.42517168087));
#744 = CARTESIAN_POINT('',(3.,-20.,-5.375521840934));
#745 = FACE_BOUND('',#746,.T.);
#746 = EDGE_LOOP('',(#747,#757,#766,#774));
#747 = ORIENTED_EDGE('',*,*,#748,.F.);
#748 = EDGE_CURVE('',#749,#751,#753,.T.);
#749 = VERTEX_POINT('',#750);
#750 = CARTESIAN_POINT('',(-1.5,-15.5,-2.929138538374));
#751 = VERTEX_POINT('',#752);
#752 = CARTESIAN_POINT('',(-1.5,-14.5,-2.565168304108));
#753 = LINE('',#754,#755);
#754 = CARTESIAN_POINT('',(-1.5,62.708441431662,25.536406211127));
#755 = VECTOR('',#756,1.);
#756 = DIRECTION('',(0.,0.939692620786,0.342020143326));
#757 = ORIENTED_EDGE('',*,*,#758,.T.);
#758 = EDGE_CURVE('',#749,#759,#761,.T.);
#759 = VERTEX_POINT('',#760);
#760 = CARTESIAN_POINT('',(1.5,-15.5,-2.929138538374));
#761 = ELLIPSE('',#762,5.374097751004,5.05);
#762 = AXIS2_PLACEMENT_3D('',#763,#764,#765);
#763 = CARTESIAN_POINT('',(0.,-15.5,-8.06069379888));
#764 = DIRECTION('',(0.,1.,0.));
#765 = DIRECTION('',(0.,0.,1.));
#766 = ORIENTED_EDGE('',*,*,#767,.T.);
#767 = EDGE_CURVE('',#759,#768,#770,.T.);
#768 = VERTEX_POINT('',#769);
#769 = CARTESIAN_POINT('',(1.5,-14.5,-2.565168304108));
#770 = LINE('',#771,#772);
#771 = CARTESIAN_POINT('',(1.5,62.708441431662,25.536406211127));
#772 = VECTOR('',#773,1.);
#773 = DIRECTION('',(0.,0.939692620786,0.342020143326));
#774 = ORIENTED_EDGE('',*,*,#775,.F.);
#775 = EDGE_CURVE('',#751,#768,#776,.T.);
#776 = ELLIPSE('',#777,5.374097751004,5.05);
#777 = AXIS2_PLACEMENT_3D('',#778,#779,#780);
#778 = CARTESIAN_POINT('',(0.,-14.5,-7.696723564613));
#779 = DIRECTION('',(0.,1.,0.));
#780 = DIRECTION('',(0.,0.,1.));
#781 = CYLINDRICAL_SURFACE('',#782,5.05);
#782 = AXIS2_PLACEMENT_3D('',#783,#784,#785);
#783 = CARTESIAN_POINT('',(0.,64.3576915016,21.005128884941));
#784 = DIRECTION('',(-0.,0.939692620786,0.342020143326));
#785 = DIRECTION('',(1.,0.,0.));
#786 = ADVANCED_FACE('',(#787),#798,.T.);
#787 = FACE_BOUND('',#788,.T.);
#788 = EDGE_LOOP('',(#789,#790,#791,#797));
#789 = ORIENTED_EDGE('',*,*,#188,.F.);
#790 = ORIENTED_EDGE('',*,*,#164,.T.);
#791 = ORIENTED_EDGE('',*,*,#792,.T.);
#792 = EDGE_CURVE('',#156,#437,#793,.T.);
#793 = LINE('',#794,#795);
#794 = CARTESIAN_POINT('',(-3.,-36.,-23.));
#795 = VECTOR('',#796,1.);
#796 = DIRECTION('',(0.,0.,1.));
#797 = ORIENTED_EDGE('',*,*,#436,.F.);
#798 = PLANE('',#799);
#799 = AXIS2_PLACEMENT_3D('',#800,#801,#802);
#800 = CARTESIAN_POINT('',(-3.,-40.5,-23.));
#801 = DIRECTION('',(1.,0.,0.));
#802 = DIRECTION('',(0.,0.,1.));
#803 = ADVANCED_FACE('',(#804),#815,.F.);
#804 = FACE_BOUND('',#805,.T.);
#805 = EDGE_LOOP('',(#806,#807,#813,#814));
#806 = ORIENTED_EDGE('',*,*,#155,.F.);
#807 = ORIENTED_EDGE('',*,*,#808,.T.);
#808 = EDGE_CURVE('',#148,#445,#809,.T.);
#809 = LINE('',#810,#811);
#810 = CARTESIAN_POINT('',(3.,-36.,-23.));
#811 = VECTOR('',#812,1.);
#812 = DIRECTION('',(0.,0.,1.));
#813 = ORIENTED_EDGE('',*,*,#444,.T.);
#814 = ORIENTED_EDGE('',*,*,#792,.F.);
#815 = CYLINDRICAL_SURFACE('',#816,3.);
#816 = AXIS2_PLACEMENT_3D('',#817,#818,#819);
#817 = CARTESIAN_POINT('',(0.,-36.,-23.));
#818 = DIRECTION('',(-0.,-0.,-1.));
#819 = DIRECTION('',(1.,0.,0.));
#820 = ADVANCED_FACE('',(#821),#832,.F.);
#821 = FACE_BOUND('',#822,.F.);
#822 = EDGE_LOOP('',(#823,#829,#830,#831));
#823 = ORIENTED_EDGE('',*,*,#824,.F.);
#824 = EDGE_CURVE('',#140,#506,#825,.T.);
#825 = LINE('',#826,#827);
#826 = CARTESIAN_POINT('',(3.,-40.5,-23.));
#827 = VECTOR('',#828,1.);
#828 = DIRECTION('',(0.,0.,1.));
#829 = ORIENTED_EDGE('',*,*,#147,.T.);
#830 = ORIENTED_EDGE('',*,*,#808,.T.);
#831 = ORIENTED_EDGE('',*,*,#505,.F.);
#832 = PLANE('',#833);
#833 = AXIS2_PLACEMENT_3D('',#834,#835,#836);
#834 = CARTESIAN_POINT('',(3.,-40.5,-23.));
#835 = DIRECTION('',(1.,0.,0.));
#836 = DIRECTION('',(0.,0.,1.));
#837 = ADVANCED_FACE('',(#838),#852,.T.);
#838 = FACE_BOUND('',#839,.T.);
#839 = EDGE_LOOP('',(#840,#841,#847,#848,#849,#850,#851));
#840 = ORIENTED_EDGE('',*,*,#230,.F.);
#841 = ORIENTED_EDGE('',*,*,#842,.F.);
#842 = EDGE_CURVE('',#352,#231,#843,.T.);
#843 = LINE('',#844,#845);
#844 = CARTESIAN_POINT('',(3.,-40.5,-23.));
#845 = VECTOR('',#846,1.);
#846 = DIRECTION('',(0.,0.,1.));
#847 = ORIENTED_EDGE('',*,*,#351,.F.);
#848 = ORIENTED_EDGE('',*,*,#513,.F.);
#849 = ORIENTED_EDGE('',*,*,#824,.F.);
#850 = ORIENTED_EDGE('',*,*,#139,.T.);
#851 = ORIENTED_EDGE('',*,*,#327,.F.);
#852 = PLANE('',#853);
#853 = AXIS2_PLACEMENT_3D('',#854,#855,#856);
#854 = CARTESIAN_POINT('',(-15.,-40.5,3.796405077357E-15));
#855 = DIRECTION('',(0.,-1.,1.224646799147E-16));
#856 = DIRECTION('',(0.,-1.224646799147E-16,-1.));
#857 = ADVANCED_FACE('',(#858),#869,.T.);
#858 = FACE_BOUND('',#859,.T.);
#859 = EDGE_LOOP('',(#860,#861,#862,#868));
#860 = ORIENTED_EDGE('',*,*,#205,.F.);
#861 = ORIENTED_EDGE('',*,*,#429,.T.);
#862 = ORIENTED_EDGE('',*,*,#863,.T.);
#863 = EDGE_CURVE('',#369,#247,#864,.T.);
#864 = LINE('',#865,#866);
#865 = CARTESIAN_POINT('',(-3.,-36.,-23.));
#866 = VECTOR('',#867,1.);
#867 = DIRECTION('',(0.,0.,1.));
#868 = ORIENTED_EDGE('',*,*,#255,.F.);
#869 = PLANE('',#870);
#870 = AXIS2_PLACEMENT_3D('',#871,#872,#873);
#871 = CARTESIAN_POINT('',(-3.,-40.5,-23.));
#872 = DIRECTION('',(1.,0.,0.));
#873 = DIRECTION('',(0.,0.,1.));
#874 = ADVANCED_FACE('',(#875),#886,.F.);
#875 = FACE_BOUND('',#876,.T.);
#876 = EDGE_LOOP('',(#877,#878,#884,#885));
#877 = ORIENTED_EDGE('',*,*,#368,.F.);
#878 = ORIENTED_EDGE('',*,*,#879,.T.);
#879 = EDGE_CURVE('',#361,#239,#880,.T.);
#880 = LINE('',#881,#882);
#881 = CARTESIAN_POINT('',(3.,-36.,-23.));
#882 = VECTOR('',#883,1.);
#883 = DIRECTION('',(0.,0.,1.));
#884 = ORIENTED_EDGE('',*,*,#246,.T.);
#885 = ORIENTED_EDGE('',*,*,#863,.F.);
#886 = CYLINDRICAL_SURFACE('',#887,3.);
#887 = AXIS2_PLACEMENT_3D('',#888,#889,#890);
#888 = CARTESIAN_POINT('',(0.,-36.,-23.));
#889 = DIRECTION('',(-0.,-0.,-1.));
#890 = DIRECTION('',(1.,0.,0.));
#891 = ADVANCED_FACE('',(#892),#898,.F.);
#892 = FACE_BOUND('',#893,.F.);
#893 = EDGE_LOOP('',(#894,#895,#896,#897));
#894 = ORIENTED_EDGE('',*,*,#842,.F.);
#895 = ORIENTED_EDGE('',*,*,#360,.T.);
#896 = ORIENTED_EDGE('',*,*,#879,.T.);
#897 = ORIENTED_EDGE('',*,*,#238,.F.);
#898 = PLANE('',#899);
#899 = AXIS2_PLACEMENT_3D('',#900,#901,#902);
#900 = CARTESIAN_POINT('',(3.,-40.5,-23.));
#901 = DIRECTION('',(1.,0.,0.));
#902 = DIRECTION('',(0.,0.,1.));
#903 = ADVANCED_FACE('',(#904),#920,.T.);
#904 = FACE_BOUND('',#905,.T.);
#905 = EDGE_LOOP('',(#906,#912,#913,#919));
#906 = ORIENTED_EDGE('',*,*,#907,.F.);
#907 = EDGE_CURVE('',#749,#264,#908,.T.);
#908 = LINE('',#909,#910);
#909 = CARTESIAN_POINT('',(-1.5,-15.5,-10.));
#910 = VECTOR('',#911,1.);
#911 = DIRECTION('',(0.,0.,1.));
#912 = ORIENTED_EDGE('',*,*,#748,.T.);
#913 = ORIENTED_EDGE('',*,*,#914,.T.);
#914 = EDGE_CURVE('',#751,#266,#915,.T.);
#915 = LINE('',#916,#917);
#916 = CARTESIAN_POINT('',(-1.5,-14.5,-10.));
#917 = VECTOR('',#918,1.);
#918 = DIRECTION('',(0.,0.,1.));
#919 = ORIENTED_EDGE('',*,*,#263,.F.);
#920 = PLANE('',#921);
#921 = AXIS2_PLACEMENT_3D('',#922,#923,#924);
#922 = CARTESIAN_POINT('',(-1.5,-15.5,-10.));
#923 = DIRECTION('',(1.,0.,0.));
#924 = DIRECTION('',(0.,0.,1.));
#925 = ADVANCED_FACE('',(#926),#937,.F.);
#926 = FACE_BOUND('',#927,.F.);
#927 = EDGE_LOOP('',(#928,#934,#935,#936));
#928 = ORIENTED_EDGE('',*,*,#929,.F.);
#929 = EDGE_CURVE('',#768,#282,#930,.T.);
#930 = LINE('',#931,#932);
#931 = CARTESIAN_POINT('',(1.5,-14.5,-10.));
#932 = VECTOR('',#933,1.);
#933 = DIRECTION('',(0.,0.,1.));
#934 = ORIENTED_EDGE('',*,*,#775,.F.);
#935 = ORIENTED_EDGE('',*,*,#914,.T.);
#936 = ORIENTED_EDGE('',*,*,#289,.T.);
#937 = PLANE('',#938);
#938 = AXIS2_PLACEMENT_3D('',#939,#940,#941);
#939 = CARTESIAN_POINT('',(-1.5,-14.5,-10.));
#940 = DIRECTION('',(0.,1.,0.));
#941 = DIRECTION('',(0.,0.,1.));
#942 = ADVANCED_FACE('',(#943),#954,.F.);
#943 = FACE_BOUND('',#944,.F.);
#944 = EDGE_LOOP('',(#945,#951,#952,#953));
#945 = ORIENTED_EDGE('',*,*,#946,.F.);
#946 = EDGE_CURVE('',#759,#274,#947,.T.);
#947 = LINE('',#948,#949);
#948 = CARTESIAN_POINT('',(1.5,-15.5,-10.));
#949 = VECTOR('',#950,1.);
#950 = DIRECTION('',(0.,0.,1.));
#951 = ORIENTED_EDGE('',*,*,#767,.T.);
#952 = ORIENTED_EDGE('',*,*,#929,.T.);
#953 = ORIENTED_EDGE('',*,*,#281,.F.);
#954 = PLANE('',#955);
#955 = AXIS2_PLACEMENT_3D('',#956,#957,#958);
#956 = CARTESIAN_POINT('',(1.5,-15.5,-10.));
#957 = DIRECTION('',(1.,0.,0.));
#958 = DIRECTION('',(0.,0.,1.));
#959 = ADVANCED_FACE('',(#960),#966,.T.);
#960 = FACE_BOUND('',#961,.T.);
#961 = EDGE_LOOP('',(#962,#963,#964,#965));
#962 = ORIENTED_EDGE('',*,*,#946,.F.);
#963 = ORIENTED_EDGE('',*,*,#758,.F.);
#964 = ORIENTED_EDGE('',*,*,#907,.T.);
#965 = ORIENTED_EDGE('',*,*,#273,.T.);
#966 = PLANE('',#967);
#967 = AXIS2_PLACEMENT_3D('',#968,#969,#970);
#968 = CARTESIAN_POINT('',(-1.5,-15.5,-10.));
#969 = DIRECTION('',(0.,1.,0.));
#970 = DIRECTION('',(0.,0.,1.));
#971 = ADVANCED_FACE('',(#972),#983,.F.);
#972 = FACE_BOUND('',#973,.T.);
#973 = EDGE_LOOP('',(#974,#980,#981,#982));
#974 = ORIENTED_EDGE('',*,*,#975,.F.);
#975 = EDGE_CURVE('',#635,#298,#976,.T.);
#976 = LINE('',#977,#978);
#977 = CARTESIAN_POINT('',(3.,-20.,-8.));
#978 = VECTOR('',#979,1.);
#979 = DIRECTION('',(0.,0.,1.));
#980 = ORIENTED_EDGE('',*,*,#634,.F.);
#981 = ORIENTED_EDGE('',*,*,#975,.T.);
#982 = ORIENTED_EDGE('',*,*,#297,.T.);
#983 = CYLINDRICAL_SURFACE('',#984,3.);
#984 = AXIS2_PLACEMENT_3D('',#985,#986,#987);
#985 = CARTESIAN_POINT('',(0.,-20.,-8.));
#986 = DIRECTION('',(-0.,-0.,-1.));
#987 = DIRECTION('',(1.,0.,0.));
#988 = ADVANCED_FACE('',(#989),#1008,.F.);
#989 = FACE_BOUND('',#990,.T.);
#990 = EDGE_LOOP('',(#991,#999,#1000,#1001));
#991 = ORIENTED_EDGE('',*,*,#992,.T.);
#992 = EDGE_CURVE('',#993,#309,#995,.T.);
#993 = VERTEX_POINT('',#994);
#994 = CARTESIAN_POINT('',(3.1,-27.,-2.));
#995 = LINE('',#996,#997);
#996 = CARTESIAN_POINT('',(3.1,-27.,-2.));
#997 = VECTOR('',#998,1.);
#998 = DIRECTION('',(0.,0.,1.));
#999 = ORIENTED_EDGE('',*,*,#308,.T.);
#1000 = ORIENTED_EDGE('',*,*,#992,.F.);
#1001 = ORIENTED_EDGE('',*,*,#1002,.F.);
#1002 = EDGE_CURVE('',#993,#993,#1003,.T.);
#1003 = CIRCLE('',#1004,3.);
#1004 = AXIS2_PLACEMENT_3D('',#1005,#1006,#1007);
#1005 = CARTESIAN_POINT('',(1.E-01,-27.,-2.));
#1006 = DIRECTION('',(0.,0.,1.));
#1007 = DIRECTION('',(1.,0.,0.));
#1008 = CYLINDRICAL_SURFACE('',#1009,3.);
#1009 = AXIS2_PLACEMENT_3D('',#1010,#1011,#1012);
#1010 = CARTESIAN_POINT('',(1.E-01,-27.,-2.));
#1011 = DIRECTION('',(-0.,-0.,-1.));
#1012 = DIRECTION('',(1.,0.,0.));
#1013 = ADVANCED_FACE('',(#1014),#1033,.F.);
#1014 = FACE_BOUND('',#1015,.T.);
#1015 = EDGE_LOOP('',(#1016,#1017,#1025,#1032));
#1016 = ORIENTED_EDGE('',*,*,#523,.F.);
#1017 = ORIENTED_EDGE('',*,*,#1018,.T.);
#1018 = EDGE_CURVE('',#524,#1019,#1021,.T.);
#1019 = VERTEX_POINT('',#1020);
#1020 = CARTESIAN_POINT('',(1.6,-27.,-2.));
#1021 = LINE('',#1022,#1023);
#1022 = CARTESIAN_POINT('',(1.6,-27.,-8.));
#1023 = VECTOR('',#1024,1.);
#1024 = DIRECTION('',(0.,0.,1.));
#1025 = ORIENTED_EDGE('',*,*,#1026,.F.);
#1026 = EDGE_CURVE('',#1019,#1019,#1027,.T.);
#1027 = CIRCLE('',#1028,1.5);
#1028 = AXIS2_PLACEMENT_3D('',#1029,#1030,#1031);
#1029 = CARTESIAN_POINT('',(1.E-01,-27.,-2.));
#1030 = DIRECTION('',(0.,0.,-1.));
#1031 = DIRECTION('',(1.,0.,0.));
#1032 = ORIENTED_EDGE('',*,*,#1018,.F.);
#1033 = CYLINDRICAL_SURFACE('',#1034,1.5);
#1034 = AXIS2_PLACEMENT_3D('',#1035,#1036,#1037);
#1035 = CARTESIAN_POINT('',(1.E-01,-27.,-8.));
#1036 = DIRECTION('',(-0.,-0.,-1.));
#1037 = DIRECTION('',(1.,0.,0.));
#1038 = ADVANCED_FACE('',(#1039,#1042),#1045,.T.);
#1039 = FACE_BOUND('',#1040,.T.);
#1040 = EDGE_LOOP('',(#1041));
#1041 = ORIENTED_EDGE('',*,*,#1002,.T.);
#1042 = FACE_BOUND('',#1043,.T.);
#1043 = EDGE_LOOP('',(#1044));
#1044 = ORIENTED_EDGE('',*,*,#1026,.T.);
#1045 = PLANE('',#1046);
#1046 = AXIS2_PLACEMENT_3D('',#1047,#1048,#1049);
#1047 = CARTESIAN_POINT('',(1.E-01,-27.,-2.));
#1048 = DIRECTION('',(0.,0.,1.));
#1049 = DIRECTION('',(1.,0.,0.));
#1050 = ( GEOMETRIC_REPRESENTATION_CONTEXT(3) 
GLOBAL_UNCERTAINTY_ASSIGNED_CONTEXT((#1054)) 
GLOBAL_UNIT_ASSIGNED_CONTEXT((#1051,#1052,#1053)) REPRESENTATION_CONTEXT
('Context #1','3D Context with UNIT and UNCERTAINTY') );
#1051 = ( LENGTH_UNIT() NAMED_UNIT(*) SI_UNIT(.MILLI.,.METRE.) );
#1052 = ( NAMED_UNIT(*) PLANE_ANGLE_UNIT() SI_UNIT($,.RADIAN.) );
#1053 = ( NAMED_UNIT(*) SI_UNIT($,.STERADIAN.) SOLID_ANGLE_UNIT() );
#1054 = UNCERTAINTY_MEASURE_WITH_UNIT(LENGTH_MEASURE(1.E-07),#1051,
  'distance_accuracy_value','confusion accuracy');
#1055 = CONTEXT_DEPENDENT_SHAPE_REPRESENTATION(#1056,#1058);
#1056 = ( REPRESENTATION_RELATIONSHIP('','',#32,#10) 
REPRESENTATION_RELATIONSHIP_WITH_TRANSFORMATION(#1057) 
SHAPE_REPRESENTATION_RELATIONSHIP() );
#1057 = ITEM_DEFINED_TRANSFORMATION('','',#11,#15);
#1058 = PRODUCT_DEFINITION_SHAPE('Placement','Placement of an item',
  #1059);
#1059 = NEXT_ASSEMBLY_USAGE_OCCURRENCE('1','Cut007','',#5,#27,$);
#1060 = PRODUCT_RELATED_PRODUCT_CATEGORY('part',$,(#29));
#1061 = MECHANICAL_DESIGN_GEOMETRIC_PRESENTATION_REPRESENTATION('',(
    #1062),#1050);
#1062 = STYLED_ITEM('color',(#1063),#33);
#1063 = PRESENTATION_STYLE_ASSIGNMENT((#1064,#1072));
#1064 = SURFACE_STYLE_USAGE(.BOTH.,#1065);
#1065 = SURFACE_SIDE_STYLE('',(#1066,#1070));
#1066 = SURFACE_STYLE_FILL_AREA(#1067);
#1067 = FILL_AREA_STYLE('',(#1068));
#1068 = FILL_AREA_STYLE_COLOUR('',#1069);
#1069 = COLOUR_RGB('',0.678431390124,0.709803936702,0.741176476869);
#1070 = SURFACE_STYLE_RENDERING_WITH_PROPERTIES(.NORMAL_SHADING.,#1069,(
    #1071));
#1071 = SURFACE_STYLE_TRANSPARENT(0.699999988079);
#1072 = CURVE_STYLE('',#1073,POSITIVE_LENGTH_MEASURE(0.1),#1074);
#1073 = DRAUGHTING_PRE_DEFINED_CURVE_FONT('continuous');
#1074 = COLOUR_RGB('',9.803921802644E-02,9.803921802644E-02,
  9.803921802644E-02);
ENDSEC;
END-ISO-10303-21;
