ISO-10303-21;
HEADER;
/* Generated by software containing ST-Developer
 * from STEP Tools, Inc. (www.steptools.com) 
 */
/* OPTION: using custom renumber hook */

FILE_DESCRIPTION(
/* description */ ('STEP AP242 Edition 2',
'CAx-IF Rec.Pracs.---Representation and Presentation of Product Manufa
cturing Information (PMI)---4.0---2014-10-13',
'CAx-IF Rec.Pracs.---3D Tessellated Geometry---0.4---2014-09-14','2;1',
'CAx-IF Rec.Pracs.---User Defined Attributes---1.5---2016-08-15'),
/* implementation_level */ '2;1');

FILE_NAME(
/* name */ 'magnet_holder_2 - magnet holder 2',
/* time_stamp */ '2026-07-19T20:45:29Z',
/* author */ (''),
/* organization */ (''),
/* preprocessor_version */ 'ST-DEVELOPER v20',
/* originating_system */ 'ONSHAPE BY PTC INC, 1.218',
/* authorisation */ '  ');

FILE_SCHEMA (('AP242_MANAGED_MODEL_BASED_3D_ENGINEERING_MIM_LF { 1 0 10303 442 3 1 4 }'));
ENDSEC;

DATA;
#10=SHAPE_REPRESENTATION_RELATIONSHIP('','',#290,#11);
#11=ADVANCED_BREP_SHAPE_REPRESENTATION('',(#288),#523);
#12=CONICAL_SURFACE('',#304,0.007,0.380506377112365);
#13=CONICAL_SURFACE('',#321,0.008,0.358770670270572);
#14=CONICAL_SURFACE('',#338,0.00774278135270821,1.15824018568409);
#15=PLANE('',#301);
#16=PLANE('',#313);
#17=PLANE('',#323);
#18=PLANE('',#327);
#19=PLANE('',#330);
#20=PLANE('',#333);
#21=PLANE('',#336);
#22=LINE('',#448,#30);
#23=LINE('',#452,#31);
#24=LINE('',#457,#32);
#25=LINE('',#461,#33);
#26=LINE('',#466,#34);
#27=LINE('',#470,#35);
#28=LINE('',#487,#36);
#29=LINE('',#491,#37);
#30=VECTOR('',#345,1.);
#31=VECTOR('',#348,1.);
#32=VECTOR('',#353,1.);
#33=VECTOR('',#356,1.);
#34=VECTOR('',#361,1.);
#35=VECTOR('',#364,1.);
#36=VECTOR('',#387,1.);
#37=VECTOR('',#390,1.);
#38=ORIENTED_EDGE('',*,*,#108,.F.);
#39=ORIENTED_EDGE('',*,*,#109,.F.);
#40=ORIENTED_EDGE('',*,*,#110,.T.);
#41=ORIENTED_EDGE('',*,*,#111,.T.);
#42=ORIENTED_EDGE('',*,*,#112,.F.);
#43=ORIENTED_EDGE('',*,*,#113,.F.);
#44=ORIENTED_EDGE('',*,*,#114,.T.);
#45=ORIENTED_EDGE('',*,*,#115,.T.);
#46=ORIENTED_EDGE('',*,*,#116,.T.);
#47=ORIENTED_EDGE('',*,*,#117,.T.);
#48=ORIENTED_EDGE('',*,*,#118,.F.);
#49=ORIENTED_EDGE('',*,*,#119,.F.);
#50=ORIENTED_EDGE('',*,*,#120,.T.);
#51=ORIENTED_EDGE('',*,*,#121,.F.);
#52=ORIENTED_EDGE('',*,*,#122,.T.);
#53=ORIENTED_EDGE('',*,*,#110,.F.);
#54=ORIENTED_EDGE('',*,*,#123,.F.);
#55=ORIENTED_EDGE('',*,*,#116,.F.);
#56=ORIENTED_EDGE('',*,*,#124,.F.);
#57=ORIENTED_EDGE('',*,*,#125,.F.);
#58=ORIENTED_EDGE('',*,*,#126,.F.);
#59=ORIENTED_EDGE('',*,*,#114,.F.);
#60=ORIENTED_EDGE('',*,*,#127,.F.);
#61=ORIENTED_EDGE('',*,*,#125,.T.);
#62=ORIENTED_EDGE('',*,*,#128,.T.);
#63=ORIENTED_EDGE('',*,*,#129,.F.);
#64=ORIENTED_EDGE('',*,*,#130,.F.);
#65=ORIENTED_EDGE('',*,*,#131,.F.);
#66=ORIENTED_EDGE('',*,*,#118,.T.);
#67=ORIENTED_EDGE('',*,*,#132,.F.);
#68=ORIENTED_EDGE('',*,*,#108,.T.);
#69=ORIENTED_EDGE('',*,*,#133,.F.);
#70=ORIENTED_EDGE('',*,*,#112,.T.);
#71=ORIENTED_EDGE('',*,*,#134,.F.);
#72=ORIENTED_EDGE('',*,*,#129,.T.);
#73=ORIENTED_EDGE('',*,*,#135,.F.);
#74=ORIENTED_EDGE('',*,*,#136,.F.);
#75=ORIENTED_EDGE('',*,*,#131,.T.);
#76=ORIENTED_EDGE('',*,*,#137,.F.);
#77=ORIENTED_EDGE('',*,*,#136,.T.);
#78=ORIENTED_EDGE('',*,*,#138,.T.);
#79=ORIENTED_EDGE('',*,*,#137,.T.);
#80=ORIENTED_EDGE('',*,*,#134,.T.);
#81=ORIENTED_EDGE('',*,*,#115,.F.);
#82=ORIENTED_EDGE('',*,*,#139,.F.);
#83=ORIENTED_EDGE('',*,*,#130,.T.);
#84=ORIENTED_EDGE('',*,*,#139,.T.);
#85=ORIENTED_EDGE('',*,*,#126,.T.);
#86=ORIENTED_EDGE('',*,*,#135,.T.);
#87=ORIENTED_EDGE('',*,*,#128,.F.);
#88=ORIENTED_EDGE('',*,*,#140,.F.);
#89=ORIENTED_EDGE('',*,*,#119,.T.);
#90=ORIENTED_EDGE('',*,*,#140,.T.);
#91=ORIENTED_EDGE('',*,*,#124,.T.);
#92=ORIENTED_EDGE('',*,*,#133,.T.);
#93=ORIENTED_EDGE('',*,*,#111,.F.);
#94=ORIENTED_EDGE('',*,*,#141,.F.);
#95=ORIENTED_EDGE('',*,*,#113,.T.);
#96=ORIENTED_EDGE('',*,*,#127,.T.);
#97=ORIENTED_EDGE('',*,*,#141,.T.);
#98=ORIENTED_EDGE('',*,*,#132,.T.);
#99=ORIENTED_EDGE('',*,*,#117,.F.);
#100=ORIENTED_EDGE('',*,*,#142,.F.);
#101=ORIENTED_EDGE('',*,*,#109,.T.);
#102=ORIENTED_EDGE('',*,*,#123,.T.);
#103=ORIENTED_EDGE('',*,*,#142,.T.);
#104=ORIENTED_EDGE('',*,*,#121,.T.);
#105=ORIENTED_EDGE('',*,*,#138,.F.);
#106=ORIENTED_EDGE('',*,*,#120,.F.);
#107=ORIENTED_EDGE('',*,*,#122,.F.);
#108=EDGE_CURVE('',#143,#144,#166,.T.);
#109=EDGE_CURVE('',#145,#143,#22,.T.);
#110=EDGE_CURVE('',#145,#146,#167,.T.);
#111=EDGE_CURVE('',#146,#144,#23,.T.);
#112=EDGE_CURVE('',#147,#148,#168,.T.);
#113=EDGE_CURVE('',#149,#147,#24,.T.);
#114=EDGE_CURVE('',#149,#150,#169,.T.);
#115=EDGE_CURVE('',#150,#148,#25,.T.);
#116=EDGE_CURVE('',#151,#152,#170,.T.);
#117=EDGE_CURVE('',#152,#153,#26,.T.);
#118=EDGE_CURVE('',#154,#153,#171,.T.);
#119=EDGE_CURVE('',#151,#154,#27,.T.);
#120=EDGE_CURVE('',#155,#155,#172,.F.);
#121=EDGE_CURVE('',#156,#156,#173,.T.);
#122=EDGE_CURVE('',#157,#157,#174,.F.);
#123=EDGE_CURVE('',#152,#145,#175,.T.);
#124=EDGE_CURVE('',#158,#151,#176,.T.);
#125=EDGE_CURVE('',#159,#158,#177,.T.);
#126=EDGE_CURVE('',#150,#159,#178,.T.);
#127=EDGE_CURVE('',#146,#149,#179,.T.);
#128=EDGE_CURVE('',#158,#160,#28,.T.);
#129=EDGE_CURVE('',#161,#160,#180,.T.);
#130=EDGE_CURVE('',#159,#161,#29,.T.);
#131=EDGE_CURVE('',#162,#162,#181,.T.);
#132=EDGE_CURVE('',#143,#153,#182,.T.);
#133=EDGE_CURVE('',#147,#144,#183,.T.);
#134=EDGE_CURVE('',#161,#148,#184,.T.);
#135=EDGE_CURVE('',#154,#160,#185,.T.);
#136=EDGE_CURVE('',#163,#163,#186,.T.);
#137=EDGE_CURVE('',#164,#164,#187,.T.);
#138=EDGE_CURVE('',#165,#165,#188,.T.);
#139=EDGE_CURVE('',#159,#150,#189,.T.);
#140=EDGE_CURVE('',#151,#158,#190,.T.);
#141=EDGE_CURVE('',#149,#146,#191,.T.);
#142=EDGE_CURVE('',#145,#152,#192,.T.);
#143=VERTEX_POINT('',#446);
#144=VERTEX_POINT('',#447);
#145=VERTEX_POINT('',#449);
#146=VERTEX_POINT('',#451);
#147=VERTEX_POINT('',#455);
#148=VERTEX_POINT('',#456);
#149=VERTEX_POINT('',#458);
#150=VERTEX_POINT('',#460);
#151=VERTEX_POINT('',#464);
#152=VERTEX_POINT('',#465);
#153=VERTEX_POINT('',#467);
#154=VERTEX_POINT('',#469);
#155=VERTEX_POINT('',#473);
#156=VERTEX_POINT('',#475);
#157=VERTEX_POINT('',#478);
#158=VERTEX_POINT('',#481);
#159=VERTEX_POINT('',#483);
#160=VERTEX_POINT('',#488);
#161=VERTEX_POINT('',#490);
#162=VERTEX_POINT('',#494);
#163=VERTEX_POINT('',#501);
#164=VERTEX_POINT('',#504);
#165=VERTEX_POINT('',#507);
#166=CIRCLE('',#293,0.011);
#167=CIRCLE('',#294,0.011);
#168=CIRCLE('',#296,0.011);
#169=CIRCLE('',#297,0.011);
#170=CIRCLE('',#299,0.011);
#171=CIRCLE('',#300,0.011);
#172=CIRCLE('',#302,0.0035);
#173=CIRCLE('',#303,0.0025);
#174=CIRCLE('',#305,0.00774278135270821);
#175=CIRCLE('',#306,0.011);
#176=CIRCLE('',#307,0.011);
#177=CIRCLE('',#308,0.011);
#178=CIRCLE('',#309,0.011);
#179=CIRCLE('',#310,0.011);
#180=CIRCLE('',#312,0.011);
#181=CIRCLE('',#314,0.008);
#182=CIRCLE('',#315,0.00155);
#183=CIRCLE('',#316,0.00155);
#184=CIRCLE('',#317,0.00155);
#185=CIRCLE('',#318,0.00155);
#186=CIRCLE('',#320,0.008);
#187=CIRCLE('',#322,0.005);
#188=CIRCLE('',#324,0.0025);
#189=CIRCLE('',#326,0.00155);
#190=CIRCLE('',#329,0.00155);
#191=CIRCLE('',#332,0.00155);
#192=CIRCLE('',#335,0.00155);
#193=EDGE_LOOP('',(#38,#39,#40,#41));
#194=EDGE_LOOP('',(#42,#43,#44,#45));
#195=EDGE_LOOP('',(#46,#47,#48,#49));
#196=EDGE_LOOP('',(#50));
#197=EDGE_LOOP('',(#51));
#198=EDGE_LOOP('',(#52));
#199=EDGE_LOOP('',(#53,#54,#55,#56,#57,#58,#59,#60));
#200=EDGE_LOOP('',(#61,#62,#63,#64));
#201=EDGE_LOOP('',(#65));
#202=EDGE_LOOP('',(#66,#67,#68,#69,#70,#71,#72,#73));
#203=EDGE_LOOP('',(#74));
#204=EDGE_LOOP('',(#75));
#205=EDGE_LOOP('',(#76));
#206=EDGE_LOOP('',(#77));
#207=EDGE_LOOP('',(#78));
#208=EDGE_LOOP('',(#79));
#209=EDGE_LOOP('',(#80,#81,#82,#83));
#210=EDGE_LOOP('',(#84,#85));
#211=EDGE_LOOP('',(#86,#87,#88,#89));
#212=EDGE_LOOP('',(#90,#91));
#213=EDGE_LOOP('',(#92,#93,#94,#95));
#214=EDGE_LOOP('',(#96,#97));
#215=EDGE_LOOP('',(#98,#99,#100,#101));
#216=EDGE_LOOP('',(#102,#103));
#217=EDGE_LOOP('',(#104));
#218=EDGE_LOOP('',(#105));
#219=EDGE_LOOP('',(#106));
#220=EDGE_LOOP('',(#107));
#221=FACE_BOUND('',#193,.T.);
#222=FACE_BOUND('',#194,.T.);
#223=FACE_BOUND('',#195,.T.);
#224=FACE_BOUND('',#196,.T.);
#225=FACE_BOUND('',#197,.T.);
#226=FACE_BOUND('',#198,.T.);
#227=FACE_BOUND('',#199,.T.);
#228=FACE_BOUND('',#200,.T.);
#229=FACE_BOUND('',#201,.T.);
#230=FACE_BOUND('',#202,.T.);
#231=FACE_BOUND('',#203,.T.);
#232=FACE_BOUND('',#204,.T.);
#233=FACE_BOUND('',#205,.T.);
#234=FACE_BOUND('',#206,.T.);
#235=FACE_BOUND('',#207,.T.);
#236=FACE_BOUND('',#208,.T.);
#237=FACE_BOUND('',#209,.T.);
#238=FACE_BOUND('',#210,.T.);
#239=FACE_BOUND('',#211,.T.);
#240=FACE_BOUND('',#212,.T.);
#241=FACE_BOUND('',#213,.T.);
#242=FACE_BOUND('',#214,.T.);
#243=FACE_BOUND('',#215,.T.);
#244=FACE_BOUND('',#216,.T.);
#245=FACE_BOUND('',#217,.T.);
#246=FACE_BOUND('',#218,.T.);
#247=FACE_BOUND('',#219,.T.);
#248=FACE_BOUND('',#220,.T.);
#249=CYLINDRICAL_SURFACE('',#292,0.011);
#250=CYLINDRICAL_SURFACE('',#295,0.011);
#251=CYLINDRICAL_SURFACE('',#298,0.011);
#252=CYLINDRICAL_SURFACE('',#311,0.011);
#253=CYLINDRICAL_SURFACE('',#319,0.008);
#254=CYLINDRICAL_SURFACE('',#325,0.00155);
#255=CYLINDRICAL_SURFACE('',#328,0.00155);
#256=CYLINDRICAL_SURFACE('',#331,0.00155);
#257=CYLINDRICAL_SURFACE('',#334,0.00155);
#258=CYLINDRICAL_SURFACE('',#337,0.0025);
#259=ADVANCED_FACE('',(#221),#249,.T.);
#260=ADVANCED_FACE('',(#222),#250,.T.);
#261=ADVANCED_FACE('',(#223),#251,.T.);
#262=ADVANCED_FACE('',(#224,#225),#15,.F.);
#263=ADVANCED_FACE('',(#226,#227),#12,.T.);
#264=ADVANCED_FACE('',(#228),#252,.T.);
#265=ADVANCED_FACE('',(#229,#230),#16,.F.);
#266=ADVANCED_FACE('',(#231,#232),#253,.F.);
#267=ADVANCED_FACE('',(#233,#234),#13,.F.);
#268=ADVANCED_FACE('',(#235,#236),#17,.F.);
#269=ADVANCED_FACE('',(#237),#254,.F.);
#270=ADVANCED_FACE('',(#238),#18,.T.);
#271=ADVANCED_FACE('',(#239),#255,.F.);
#272=ADVANCED_FACE('',(#240),#19,.T.);
#273=ADVANCED_FACE('',(#241),#256,.F.);
#274=ADVANCED_FACE('',(#242),#20,.T.);
#275=ADVANCED_FACE('',(#243),#257,.F.);
#276=ADVANCED_FACE('',(#244),#21,.T.);
#277=ADVANCED_FACE('',(#245,#246),#258,.F.);
#278=ADVANCED_FACE('',(#247,#248),#14,.T.);
#279=CLOSED_SHELL('',(#259,#260,#261,#262,#263,#264,#265,#266,#267,#268,
#269,#270,#271,#272,#273,#274,#275,#276,#277,#278));
#280=STYLED_ITEM('',(#281),#288);
#281=PRESENTATION_STYLE_ASSIGNMENT((#282));
#282=SURFACE_STYLE_USAGE(.BOTH.,#283);
#283=SURFACE_SIDE_STYLE('',(#284));
#284=SURFACE_STYLE_FILL_AREA(#285);
#285=FILL_AREA_STYLE('',(#286));
#286=FILL_AREA_STYLE_COLOUR('',#287);
#287=COLOUR_RGB('',0.4,0.4,0.4);
#288=MANIFOLD_SOLID_BREP('magnet holder 2',#279);
#289=SHAPE_DEFINITION_REPRESENTATION(#528,#290);
#290=SHAPE_REPRESENTATION('magnet holder 2',(#291),#523);
#291=AXIS2_PLACEMENT_3D('',#443,#339,#340);
#292=AXIS2_PLACEMENT_3D('',#444,#341,#342);
#293=AXIS2_PLACEMENT_3D('',#445,#343,#344);
#294=AXIS2_PLACEMENT_3D('',#450,#346,#347);
#295=AXIS2_PLACEMENT_3D('',#453,#349,#350);
#296=AXIS2_PLACEMENT_3D('',#454,#351,#352);
#297=AXIS2_PLACEMENT_3D('',#459,#354,#355);
#298=AXIS2_PLACEMENT_3D('',#462,#357,#358);
#299=AXIS2_PLACEMENT_3D('',#463,#359,#360);
#300=AXIS2_PLACEMENT_3D('',#468,#362,#363);
#301=AXIS2_PLACEMENT_3D('',#471,#365,#366);
#302=AXIS2_PLACEMENT_3D('',#472,#367,#368);
#303=AXIS2_PLACEMENT_3D('',#474,#369,#370);
#304=AXIS2_PLACEMENT_3D('',#476,#371,#372);
#305=AXIS2_PLACEMENT_3D('',#477,#373,#374);
#306=AXIS2_PLACEMENT_3D('',#479,#375,#376);
#307=AXIS2_PLACEMENT_3D('',#480,#377,#378);
#308=AXIS2_PLACEMENT_3D('',#482,#379,#380);
#309=AXIS2_PLACEMENT_3D('',#484,#381,#382);
#310=AXIS2_PLACEMENT_3D('',#485,#383,#384);
#311=AXIS2_PLACEMENT_3D('',#486,#385,#386);
#312=AXIS2_PLACEMENT_3D('',#489,#388,#389);
#313=AXIS2_PLACEMENT_3D('',#492,#391,#392);
#314=AXIS2_PLACEMENT_3D('',#493,#393,#394);
#315=AXIS2_PLACEMENT_3D('',#495,#395,#396);
#316=AXIS2_PLACEMENT_3D('',#496,#397,#398);
#317=AXIS2_PLACEMENT_3D('',#497,#399,#400);
#318=AXIS2_PLACEMENT_3D('',#498,#401,#402);
#319=AXIS2_PLACEMENT_3D('',#499,#403,#404);
#320=AXIS2_PLACEMENT_3D('',#500,#405,#406);
#321=AXIS2_PLACEMENT_3D('',#502,#407,#408);
#322=AXIS2_PLACEMENT_3D('',#503,#409,#410);
#323=AXIS2_PLACEMENT_3D('',#505,#411,#412);
#324=AXIS2_PLACEMENT_3D('',#506,#413,#414);
#325=AXIS2_PLACEMENT_3D('',#508,#415,#416);
#326=AXIS2_PLACEMENT_3D('',#509,#417,#418);
#327=AXIS2_PLACEMENT_3D('',#510,#419,#420);
#328=AXIS2_PLACEMENT_3D('',#511,#421,#422);
#329=AXIS2_PLACEMENT_3D('',#512,#423,#424);
#330=AXIS2_PLACEMENT_3D('',#513,#425,#426);
#331=AXIS2_PLACEMENT_3D('',#514,#427,#428);
#332=AXIS2_PLACEMENT_3D('',#515,#429,#430);
#333=AXIS2_PLACEMENT_3D('',#516,#431,#432);
#334=AXIS2_PLACEMENT_3D('',#517,#433,#434);
#335=AXIS2_PLACEMENT_3D('',#518,#435,#436);
#336=AXIS2_PLACEMENT_3D('',#519,#437,#438);
#337=AXIS2_PLACEMENT_3D('',#520,#439,#440);
#338=AXIS2_PLACEMENT_3D('',#521,#441,#442);
#339=DIRECTION('',(0.,0.,1.));
#340=DIRECTION('',(1.,0.,0.));
#341=DIRECTION('',(0.,1.,0.));
#342=DIRECTION('',(0.,0.,1.));
#343=DIRECTION('',(0.,1.,0.));
#344=DIRECTION('',(0.,0.,1.));
#345=DIRECTION('',(0.,1.,0.));
#346=DIRECTION('',(0.,1.,0.));
#347=DIRECTION('',(0.,0.,1.));
#348=DIRECTION('',(0.,1.,0.));
#349=DIRECTION('',(0.,1.,0.));
#350=DIRECTION('',(0.,0.,1.));
#351=DIRECTION('',(0.,1.,0.));
#352=DIRECTION('',(0.,0.,1.));
#353=DIRECTION('',(0.,1.,0.));
#354=DIRECTION('',(0.,1.,0.));
#355=DIRECTION('',(0.,0.,1.));
#356=DIRECTION('',(0.,1.,0.));
#357=DIRECTION('',(0.,1.,0.));
#358=DIRECTION('',(0.,0.,1.));
#359=DIRECTION('',(0.,1.,0.));
#360=DIRECTION('',(0.,0.,1.));
#361=DIRECTION('',(0.,1.,0.));
#362=DIRECTION('',(0.,1.,0.));
#363=DIRECTION('',(0.,0.,1.));
#364=DIRECTION('',(0.,1.,0.));
#365=DIRECTION('',(0.,1.,0.));
#366=DIRECTION('',(0.,0.,1.));
#367=DIRECTION('',(0.,1.,0.));
#368=DIRECTION('',(0.,0.,1.));
#369=DIRECTION('',(0.,-1.,0.));
#370=DIRECTION('',(0.,0.,-1.));
#371=DIRECTION('',(0.,1.,0.));
#372=DIRECTION('',(0.,0.,1.));
#373=DIRECTION('',(0.,-1.,0.));
#374=DIRECTION('',(0.,0.,-1.));
#375=DIRECTION('',(0.,1.,0.));
#376=DIRECTION('',(0.,0.,1.));
#377=DIRECTION('',(0.,1.,0.));
#378=DIRECTION('',(0.,0.,1.));
#379=DIRECTION('',(0.,1.,0.));
#380=DIRECTION('',(0.,0.,1.));
#381=DIRECTION('',(0.,1.,0.));
#382=DIRECTION('',(0.,0.,1.));
#383=DIRECTION('',(0.,1.,0.));
#384=DIRECTION('',(0.,0.,1.));
#385=DIRECTION('',(0.,1.,0.));
#386=DIRECTION('',(0.,0.,1.));
#387=DIRECTION('',(0.,1.,0.));
#388=DIRECTION('',(0.,1.,0.));
#389=DIRECTION('',(0.,0.,1.));
#390=DIRECTION('',(0.,1.,0.));
#391=DIRECTION('',(0.,-1.,0.));
#392=DIRECTION('',(0.,0.,-1.));
#393=DIRECTION('',(0.,1.,0.));
#394=DIRECTION('',(0.,0.,1.));
#395=DIRECTION('',(0.,1.,0.));
#396=DIRECTION('',(0.,0.,1.));
#397=DIRECTION('',(0.,1.,0.));
#398=DIRECTION('',(0.,0.,1.));
#399=DIRECTION('',(0.,1.,0.));
#400=DIRECTION('',(0.,0.,1.));
#401=DIRECTION('',(0.,1.,0.));
#402=DIRECTION('',(0.,0.,1.));
#403=DIRECTION('',(0.,1.,0.));
#404=DIRECTION('',(0.,0.,1.));
#405=DIRECTION('',(0.,1.,0.));
#406=DIRECTION('',(0.,0.,1.));
#407=DIRECTION('',(0.,1.,0.));
#408=DIRECTION('',(0.,0.,1.));
#409=DIRECTION('',(0.,1.,0.));
#410=DIRECTION('',(0.,0.,1.));
#411=DIRECTION('',(0.,-1.,0.));
#412=DIRECTION('',(0.,0.,-1.));
#413=DIRECTION('',(0.,-1.,0.));
#414=DIRECTION('',(0.,0.,-1.));
#415=DIRECTION('',(0.,1.,0.));
#416=DIRECTION('',(0.,0.,1.));
#417=DIRECTION('',(0.,1.,0.));
#418=DIRECTION('',(0.,0.,1.));
#419=DIRECTION('',(0.,1.,0.));
#420=DIRECTION('',(-1.,0.,0.));
#421=DIRECTION('',(0.,1.,0.));
#422=DIRECTION('',(0.,0.,1.));
#423=DIRECTION('',(0.,1.,0.));
#424=DIRECTION('',(0.,0.,1.));
#425=DIRECTION('',(0.,1.,0.));
#426=DIRECTION('',(-1.,0.,0.));
#427=DIRECTION('',(0.,1.,0.));
#428=DIRECTION('',(0.,0.,1.));
#429=DIRECTION('',(0.,1.,0.));
#430=DIRECTION('',(0.,0.,1.));
#431=DIRECTION('',(0.,1.,0.));
#432=DIRECTION('',(-1.,0.,0.));
#433=DIRECTION('',(0.,1.,0.));
#434=DIRECTION('',(0.,0.,1.));
#435=DIRECTION('',(0.,1.,0.));
#436=DIRECTION('',(0.,0.,1.));
#437=DIRECTION('',(0.,1.,0.));
#438=DIRECTION('',(-1.,0.,0.));
#439=DIRECTION('',(0.,-1.,0.));
#440=DIRECTION('',(0.,0.,-1.));
#441=DIRECTION('',(0.,1.,0.));
#442=DIRECTION('',(0.,0.,1.));
#443=CARTESIAN_POINT('',(0.,0.,0.));
#444=CARTESIAN_POINT('',(0.,0.001,0.));
#445=CARTESIAN_POINT('',(0.,0.014,0.));
#446=CARTESIAN_POINT('',(0.00124009374015637,0.014,0.010929875));
#447=CARTESIAN_POINT('',(0.010929875,0.014,0.00124009374015637));
#448=CARTESIAN_POINT('',(0.00124009374015637,0.01,0.010929875));
#449=CARTESIAN_POINT('',(0.00124009374015637,0.01,0.010929875));
#450=CARTESIAN_POINT('',(0.,0.01,0.));
#451=CARTESIAN_POINT('',(0.010929875,0.01,0.00124009374015637));
#452=CARTESIAN_POINT('',(0.010929875,0.01,0.00124009374015637));
#453=CARTESIAN_POINT('',(0.,0.001,0.));
#454=CARTESIAN_POINT('',(0.,0.014,0.));
#455=CARTESIAN_POINT('',(0.010929875,0.014,-0.00124009374015637));
#456=CARTESIAN_POINT('',(0.00124009374015637,0.014,-0.010929875));
#457=CARTESIAN_POINT('',(0.010929875,0.01,-0.00124009374015637));
#458=CARTESIAN_POINT('',(0.010929875,0.01,-0.00124009374015637));
#459=CARTESIAN_POINT('',(0.,0.01,0.));
#460=CARTESIAN_POINT('',(0.00124009374015637,0.01,-0.010929875));
#461=CARTESIAN_POINT('',(0.00124009374015637,0.01,-0.010929875));
#462=CARTESIAN_POINT('',(0.,0.001,0.));
#463=CARTESIAN_POINT('',(0.,0.01,0.));
#464=CARTESIAN_POINT('',(-0.010929875,0.01,0.00124009374015637));
#465=CARTESIAN_POINT('',(-0.00124009374015637,0.01,0.010929875));
#466=CARTESIAN_POINT('',(-0.00124009374015637,0.01,0.010929875));
#467=CARTESIAN_POINT('',(-0.00124009374015637,0.014,0.010929875));
#468=CARTESIAN_POINT('',(0.,0.014,0.));
#469=CARTESIAN_POINT('',(-0.010929875,0.014,0.00124009374015635));
#470=CARTESIAN_POINT('',(-0.010929875,0.01,0.00124009374015637));
#471=CARTESIAN_POINT('',(0.0035,2.60208521396521E-18,0.));
#472=CARTESIAN_POINT('',(0.,2.60208521396521E-18,0.));
#473=CARTESIAN_POINT('',(0.,2.60208521396521E-18,0.0035));
#474=CARTESIAN_POINT('',(0.,2.60208521396521E-18,1.53080849893419E-19));
#475=CARTESIAN_POINT('',(0.,2.60208521396521E-18,-0.0025));
#476=CARTESIAN_POINT('',(0.,5.20417042793042E-18,0.));
#477=CARTESIAN_POINT('',(0.,0.00185695338177052,0.));
#478=CARTESIAN_POINT('',(0.,0.00185695338177052,-0.00774278135270821));
#479=CARTESIAN_POINT('',(0.,0.01,0.));
#480=CARTESIAN_POINT('',(0.,0.01,0.));
#481=CARTESIAN_POINT('',(-0.010929875,0.01,-0.00124009374015637));
#482=CARTESIAN_POINT('',(0.,0.01,0.));
#483=CARTESIAN_POINT('',(-0.00124009374015637,0.01,-0.010929875));
#484=CARTESIAN_POINT('',(0.,0.01,0.));
#485=CARTESIAN_POINT('',(0.,0.01,0.));
#486=CARTESIAN_POINT('',(0.,0.001,0.));
#487=CARTESIAN_POINT('',(-0.010929875,0.01,-0.00124009374015637));
#488=CARTESIAN_POINT('',(-0.010929875,0.014,-0.00124009374015637));
#489=CARTESIAN_POINT('',(0.,0.014,0.));
#490=CARTESIAN_POINT('',(-0.00124009374015637,0.014,-0.010929875));
#491=CARTESIAN_POINT('',(-0.00124009374015637,0.01,-0.010929875));
#492=CARTESIAN_POINT('',(0.0095,0.014,0.));
#493=CARTESIAN_POINT('',(0.,0.014,0.));
#494=CARTESIAN_POINT('',(0.,0.014,0.008));
#495=CARTESIAN_POINT('',(-4.74550634669599E-20,0.014,0.01));
#496=CARTESIAN_POINT('',(0.01,0.014,2.03330344182471E-19));
#497=CARTESIAN_POINT('',(-3.25260651745652E-19,0.014,-0.01));
#498=CARTESIAN_POINT('',(-0.01,0.014,-1.90819582357449E-17));
#499=CARTESIAN_POINT('',(0.,0.001,0.));
#500=CARTESIAN_POINT('',(0.,0.01,0.));
#501=CARTESIAN_POINT('',(0.,0.01,0.008));
#502=CARTESIAN_POINT('',(0.,0.01,0.));
#503=CARTESIAN_POINT('',(0.,0.002,0.));
#504=CARTESIAN_POINT('',(0.,0.002,0.005));
#505=CARTESIAN_POINT('',(0.0025,0.002,0.));
#506=CARTESIAN_POINT('',(0.,0.002,1.53080849893419E-19));
#507=CARTESIAN_POINT('',(0.,0.002,-0.0025));
#508=CARTESIAN_POINT('',(-3.25260651745652E-19,0.01,-0.01));
#509=CARTESIAN_POINT('',(-3.25260651745652E-19,0.01,-0.01));
#510=CARTESIAN_POINT('',(0.,0.01,0.));
#511=CARTESIAN_POINT('',(-0.01,0.01,-1.90819582357449E-17));
#512=CARTESIAN_POINT('',(-0.01,0.01,-1.90819582357449E-17));
#513=CARTESIAN_POINT('',(0.,0.01,0.));
#514=CARTESIAN_POINT('',(0.01,0.01,2.03330344182471E-19));
#515=CARTESIAN_POINT('',(0.01,0.01,2.03330344182471E-19));
#516=CARTESIAN_POINT('',(0.,0.01,0.));
#517=CARTESIAN_POINT('',(-4.74550634669599E-20,0.01,0.01));
#518=CARTESIAN_POINT('',(-4.74550634669599E-20,0.01,0.01));
#519=CARTESIAN_POINT('',(0.,0.01,0.));
#520=CARTESIAN_POINT('',(0.,0.025,1.53080849893419E-19));
#521=CARTESIAN_POINT('',(0.,0.00185695338177052,0.));
#522=MECHANICAL_DESIGN_GEOMETRIC_PRESENTATION_REPRESENTATION('',(#280),
#523);
#523=(
GEOMETRIC_REPRESENTATION_CONTEXT(3)
GLOBAL_UNCERTAINTY_ASSIGNED_CONTEXT((#524))
GLOBAL_UNIT_ASSIGNED_CONTEXT((#527,#526,#525))
REPRESENTATION_CONTEXT('magnet holder 2','TOP_LEVEL_ASSEMBLY_PART')
);
#524=UNCERTAINTY_MEASURE_WITH_UNIT(LENGTH_MEASURE(1.E-8),#527,
'DISTANCE_ACCURACY_VALUE','Maximum Tolerance applied to model');
#525=(
NAMED_UNIT(*)
SI_UNIT($,.STERADIAN.)
SOLID_ANGLE_UNIT()
);
#526=(
NAMED_UNIT(*)
PLANE_ANGLE_UNIT()
SI_UNIT($,.RADIAN.)
);
#527=(
LENGTH_UNIT()
NAMED_UNIT(*)
SI_UNIT($,.METRE.)
);
#528=PRODUCT_DEFINITION_SHAPE('','',#529);
#529=PRODUCT_DEFINITION('','',#531,#530);
#530=PRODUCT_DEFINITION_CONTEXT('',#537,'design');
#531=PRODUCT_DEFINITION_FORMATION_WITH_SPECIFIED_SOURCE('','',#533,
 .NOT_KNOWN.);
#532=PRODUCT_RELATED_PRODUCT_CATEGORY('','',(#533));
#533=PRODUCT('magnet holder 2','magnet holder 2','magnet holder 2',(#535));
#534=PRODUCT_CATEGORY('','');
#535=PRODUCT_CONTEXT('',#537,'mechanical');
#536=APPLICATION_PROTOCOL_DEFINITION('international standard',
'ap242_managed_model_based_3d_engineering',2020,#537);
#537=APPLICATION_CONTEXT('managed model based 3d engineering');
ENDSEC;
END-ISO-10303-21;
