ISO-10303-21;
HEADER;
FILE_DESCRIPTION(('FreeCAD Model'),'2;1');
FILE_NAME('Open CASCADE Shape Model','2026-07-19T15:59:53',('Author'),(
    ''),'Open CASCADE STEP processor 7.8','FreeCAD','Unknown');
FILE_SCHEMA(('AUTOMOTIVE_DESIGN { 1 0 10303 214 1 1 1 1 }'));
ENDSEC;
DATA;
#1 = APPLICATION_PROTOCOL_DEFINITION('international standard',
  'automotive_design',2000,#2);
#2 = APPLICATION_CONTEXT(
  'core data for automotive mechanical design processes');
#3 = SHAPE_DEFINITION_REPRESENTATION(#4,#10);
#4 = PRODUCT_DEFINITION_SHAPE('','',#5);
#5 = PRODUCT_DEFINITION('design','',#6,#9);
#6 = PRODUCT_DEFINITION_FORMATION('','',#7);
#7 = PRODUCT('Cup holder','Cup holder','',(#8));
#8 = PRODUCT_CONTEXT('',#2,'mechanical');
#9 = PRODUCT_DEFINITION_CONTEXT('part definition',#2,'design');
#10 = ADVANCED_BREP_SHAPE_REPRESENTATION('',(#11,#15),#1510);
#11 = AXIS2_PLACEMENT_3D('',#12,#13,#14);
#12 = CARTESIAN_POINT('',(0.,0.,0.));
#13 = DIRECTION('',(0.,0.,1.));
#14 = DIRECTION('',(1.,0.,-0.));
#15 = MANIFOLD_SOLID_BREP('',#16);
#16 = CLOSED_SHELL('',(#17,#125,#157,#181,#206,#230,#254,#279,#303,#327,
    #352,#376,#401,#535,#746,#767,#866,#883,#907,#998,#1015,#1032,#1056,
    #1073,#1090,#1107,#1124,#1141,#1158,#1175,#1192,#1204,#1221,#1238,
    #1255,#1272,#1289,#1306,#1323,#1340,#1352,#1376,#1396,#1416,#1449,
    #1473,#1493));
#17 = ADVANCED_FACE('',(#18),#120,.T.);
#18 = FACE_BOUND('',#19,.T.);
#19 = EDGE_LOOP('',(#20,#30,#38,#47,#55,#63,#72,#80,#88,#97,#105,#113));
#20 = ORIENTED_EDGE('',*,*,#21,.T.);
#21 = EDGE_CURVE('',#22,#24,#26,.T.);
#22 = VERTEX_POINT('',#23);
#23 = CARTESIAN_POINT('',(9.272959090894,-5.180540346555,-53.4));
#24 = VERTEX_POINT('',#25);
#25 = CARTESIAN_POINT('',(8.490050076458,-4.728527616319,-53.4));
#26 = LINE('',#27,#28);
#27 = CARTESIAN_POINT('',(7.5E-02,0.129903810568,-53.4));
#28 = VECTOR('',#29,1.);
#29 = DIRECTION('',(-0.866025403784,0.5,0.));
#30 = ORIENTED_EDGE('',*,*,#31,.T.);
#31 = EDGE_CURVE('',#24,#32,#34,.T.);
#32 = VERTEX_POINT('',#33);
#33 = CARTESIAN_POINT('',(7.111141606072,-5.461540081668,-53.4));
#34 = LINE('',#35,#36);
#35 = CARTESIAN_POINT('',(3.544120462246,-7.357729001196,-53.4));
#36 = VECTOR('',#37,1.);
#37 = DIRECTION('',(-0.882991698024,-0.469388603633,0.));
#38 = ORIENTED_EDGE('',*,*,#39,.F.);
#39 = EDGE_CURVE('',#40,#32,#42,.T.);
#40 = VERTEX_POINT('',#41);
#41 = CARTESIAN_POINT('',(6.523631147165,-5.122340760066,-53.4));
#42 = CIRCLE('',#43,0.4);
#43 = AXIS2_PLACEMENT_3D('',#44,#45,#46);
#44 = CARTESIAN_POINT('',(6.923386164619,-5.108343402459,-53.4));
#45 = DIRECTION('',(0.,0.,1.));
#46 = DIRECTION('',(1.,0.,0.));
#47 = ORIENTED_EDGE('',*,*,#48,.T.);
#48 = EDGE_CURVE('',#40,#49,#51,.T.);
#49 = VERTEX_POINT('',#50);
#50 = CARTESIAN_POINT('',(6.468984328255,-3.561664762545,-53.4));
#51 = LINE('',#52,#53);
#52 = CARTESIAN_POINT('',(6.347849448683,-0.102134953087,-53.4));
#53 = VECTOR('',#54,1.);
#54 = DIRECTION('',(-3.499339401933E-02,0.999387543636,0.));
#55 = ORIENTED_EDGE('',*,*,#56,.T.);
#56 = EDGE_CURVE('',#49,#57,#59,.T.);
#57 = VERTEX_POINT('',#58);
#58 = CARTESIAN_POINT('',(5.57272680296,-3.044210239052,-53.4));
#59 = LINE('',#60,#61);
#60 = CARTESIAN_POINT('',(7.500000000001E-02,0.129903810568,-53.4));
#61 = VECTOR('',#62,1.);
#62 = DIRECTION('',(-0.866025403784,0.5,0.));
#63 = ORIENTED_EDGE('',*,*,#64,.F.);
#64 = EDGE_CURVE('',#65,#57,#67,.T.);
#65 = VERTEX_POINT('',#66);
#66 = CARTESIAN_POINT('',(-1.250079403799,-6.225737023371,-53.4));
#67 = CIRCLE('',#68,6.349999999998);
#68 = AXIS2_PLACEMENT_3D('',#69,#70,#71);
#69 = CARTESIAN_POINT('',(-8.377272802354E-16,1.584779870705E-15,-53.4)
  );
#70 = DIRECTION('',(0.,0.,1.));
#71 = DIRECTION('',(-0.5,-0.866025403784,0.));
#72 = ORIENTED_EDGE('',*,*,#73,.F.);
#73 = EDGE_CURVE('',#74,#65,#76,.T.);
#74 = VERTEX_POINT('',#75);
#75 = CARTESIAN_POINT('',(-1.429789473859,-7.244923476504,-53.4));
#76 = LINE('',#77,#78);
#77 = CARTESIAN_POINT('',(-0.21010628583,-0.327756386543,-53.4));
#78 = VECTOR('',#79,1.);
#79 = DIRECTION('',(0.173648177667,0.984807753012,0.));
#80 = ORIENTED_EDGE('',*,*,#81,.F.);
#81 = EDGE_CURVE('',#82,#74,#84,.T.);
#82 = VERTEX_POINT('',#83);
#83 = CARTESIAN_POINT('',(-0.269368596552,-8.289968562406,-53.4));
#84 = LINE('',#85,#86);
#85 = CARTESIAN_POINT('',(-4.183897568217,-4.764644823872,-53.4));
#86 = VECTOR('',#87,1.);
#87 = DIRECTION('',(-0.743081954228,0.669200425359,0.));
#88 = ORIENTED_EDGE('',*,*,#89,.F.);
#89 = EDGE_CURVE('',#90,#82,#92,.T.);
#90 = VERTEX_POINT('',#91);
#91 = CARTESIAN_POINT('',(-0.387171284676,-8.958060805867,-53.4));
#92 = CIRCLE('',#93,0.4);
#93 = AXIS2_PLACEMENT_3D('',#94,#95,#96);
#94 = CARTESIAN_POINT('',(-0.537048766695,-8.587201344098,-53.4));
#95 = DIRECTION('',(0.,0.,1.));
#96 = DIRECTION('',(1.,0.,0.));
#97 = ORIENTED_EDGE('',*,*,#98,.F.);
#98 = EDGE_CURVE('',#99,#90,#101,.T.);
#99 = VERTEX_POINT('',#100);
#100 = CARTESIAN_POINT('',(-1.835036690149,-9.543194646703,-53.4));
#101 = LINE('',#102,#103);
#102 = CARTESIAN_POINT('',(2.778300904495,-7.67878105161,-53.4));
#103 = VECTOR('',#104,1.);
#104 = DIRECTION('',(0.927148654422,0.374693705049,0.));
#105 = ORIENTED_EDGE('',*,*,#106,.F.);
#106 = EDGE_CURVE('',#107,#99,#109,.T.);
#107 = VERTEX_POINT('',#108);
#108 = CARTESIAN_POINT('',(-1.992019063925,-10.43348592909,-53.4));
#109 = LINE('',#110,#111);
#110 = CARTESIAN_POINT('',(-0.21010628583,-0.327756386543,-53.4));
#111 = VECTOR('',#112,1.);
#112 = DIRECTION('',(0.173648177667,0.984807753012,0.));
#113 = ORIENTED_EDGE('',*,*,#114,.T.);
#114 = EDGE_CURVE('',#107,#22,#115,.T.);
#115 = CIRCLE('',#116,10.621947494866);
#116 = AXIS2_PLACEMENT_3D('',#117,#118,#119);
#117 = CARTESIAN_POINT('',(0.,0.,-53.4));
#118 = DIRECTION('',(0.,0.,1.));
#119 = DIRECTION('',(-0.5,-0.866025403784,0.));
#120 = PLANE('',#121);
#121 = AXIS2_PLACEMENT_3D('',#122,#123,#124);
#122 = CARTESIAN_POINT('',(-0.191159106856,-0.331097285404,-53.4));
#123 = DIRECTION('',(0.,0.,1.));
#124 = DIRECTION('',(-0.5,-0.866025403784,0.));
#125 = ADVANCED_FACE('',(#126),#152,.F.);
#126 = FACE_BOUND('',#127,.T.);
#127 = EDGE_LOOP('',(#128,#137,#145,#151));
#128 = ORIENTED_EDGE('',*,*,#129,.T.);
#129 = EDGE_CURVE('',#22,#130,#132,.T.);
#130 = VERTEX_POINT('',#131);
#131 = CARTESIAN_POINT('',(10.899538096381,-6.119646173231,-37.7));
#132 = B_SPLINE_CURVE_WITH_KNOTS('',3,(#133,#134,#135,#136),
  .UNSPECIFIED.,.F.,.F.,(4,4),(1.397323666901E-02,2.988073685655E-02),
  .PIECEWISE_BEZIER_KNOTS.);
#133 = CARTESIAN_POINT('',(9.272959090894,-5.180540346555,-53.4));
#134 = CARTESIAN_POINT('',(10.352792127635,-5.803982240998,
    -48.26328715074));
#135 = CARTESIAN_POINT('',(10.899538096381,-6.119646173231,
    -42.94652299004));
#136 = CARTESIAN_POINT('',(10.899538096381,-6.119646173231,
    -37.69999999999));
#137 = ORIENTED_EDGE('',*,*,#138,.T.);
#138 = EDGE_CURVE('',#130,#139,#141,.T.);
#139 = VERTEX_POINT('',#140);
#140 = CARTESIAN_POINT('',(8.490050076458,-4.728527616319,-37.7));
#141 = LINE('',#142,#143);
#142 = CARTESIAN_POINT('',(7.5E-02,0.129903810568,-37.7));
#143 = VECTOR('',#144,1.);
#144 = DIRECTION('',(-0.866025403784,0.5,0.));
#145 = ORIENTED_EDGE('',*,*,#146,.F.);
#146 = EDGE_CURVE('',#24,#139,#147,.T.);
#147 = LINE('',#148,#149);
#148 = CARTESIAN_POINT('',(8.490050076458,-4.728527616319,-53.4));
#149 = VECTOR('',#150,1.);
#150 = DIRECTION('',(0.,0.,1.));
#151 = ORIENTED_EDGE('',*,*,#21,.F.);
#152 = PLANE('',#153);
#153 = AXIS2_PLACEMENT_3D('',#154,#155,#156);
#154 = CARTESIAN_POINT('',(9.731183252197,-5.445096189432,-53.4));
#155 = DIRECTION('',(0.5,0.866025403784,0.));
#156 = DIRECTION('',(0.,0.,1.));
#157 = ADVANCED_FACE('',(#158),#176,.F.);
#158 = FACE_BOUND('',#159,.T.);
#159 = EDGE_LOOP('',(#160,#168,#174,#175));
#160 = ORIENTED_EDGE('',*,*,#161,.T.);
#161 = EDGE_CURVE('',#139,#162,#164,.T.);
#162 = VERTEX_POINT('',#163);
#163 = CARTESIAN_POINT('',(7.111141606072,-5.461540081668,-37.7));
#164 = LINE('',#165,#166);
#165 = CARTESIAN_POINT('',(3.544120462246,-7.357729001196,-37.7));
#166 = VECTOR('',#167,1.);
#167 = DIRECTION('',(-0.882991698024,-0.469388603633,0.));
#168 = ORIENTED_EDGE('',*,*,#169,.F.);
#169 = EDGE_CURVE('',#32,#162,#170,.T.);
#170 = LINE('',#171,#172);
#171 = CARTESIAN_POINT('',(7.111141606072,-5.461540081668,-53.4));
#172 = VECTOR('',#173,1.);
#173 = DIRECTION('',(0.,0.,1.));
#174 = ORIENTED_EDGE('',*,*,#31,.F.);
#175 = ORIENTED_EDGE('',*,*,#146,.T.);
#176 = PLANE('',#177);
#177 = AXIS2_PLACEMENT_3D('',#178,#179,#180);
#178 = CARTESIAN_POINT('',(7.375374789177,-5.321076649081,-53.4));
#179 = DIRECTION('',(-0.469388603633,0.882991698024,0.));
#180 = DIRECTION('',(-0.882991698024,-0.469388603633,0.));
#181 = ADVANCED_FACE('',(#182),#201,.T.);
#182 = FACE_BOUND('',#183,.T.);
#183 = EDGE_LOOP('',(#184,#185,#186,#195));
#184 = ORIENTED_EDGE('',*,*,#39,.T.);
#185 = ORIENTED_EDGE('',*,*,#169,.T.);
#186 = ORIENTED_EDGE('',*,*,#187,.F.);
#187 = EDGE_CURVE('',#188,#162,#190,.T.);
#188 = VERTEX_POINT('',#189);
#189 = CARTESIAN_POINT('',(6.523631147165,-5.122340760066,-37.7));
#190 = CIRCLE('',#191,0.4);
#191 = AXIS2_PLACEMENT_3D('',#192,#193,#194);
#192 = CARTESIAN_POINT('',(6.923386164619,-5.108343402459,-37.7));
#193 = DIRECTION('',(0.,0.,1.));
#194 = DIRECTION('',(1.,0.,0.));
#195 = ORIENTED_EDGE('',*,*,#196,.F.);
#196 = EDGE_CURVE('',#40,#188,#197,.T.);
#197 = LINE('',#198,#199);
#198 = CARTESIAN_POINT('',(6.523631147165,-5.122340760066,-53.4));
#199 = VECTOR('',#200,1.);
#200 = DIRECTION('',(0.,0.,1.));
#201 = CYLINDRICAL_SURFACE('',#202,0.4);
#202 = AXIS2_PLACEMENT_3D('',#203,#204,#205);
#203 = CARTESIAN_POINT('',(6.923386164619,-5.108343402459,-53.4));
#204 = DIRECTION('',(0.,0.,1.));
#205 = DIRECTION('',(1.,0.,0.));
#206 = ADVANCED_FACE('',(#207),#225,.F.);
#207 = FACE_BOUND('',#208,.T.);
#208 = EDGE_LOOP('',(#209,#210,#211,#219));
#209 = ORIENTED_EDGE('',*,*,#48,.F.);
#210 = ORIENTED_EDGE('',*,*,#196,.T.);
#211 = ORIENTED_EDGE('',*,*,#212,.T.);
#212 = EDGE_CURVE('',#188,#213,#215,.T.);
#213 = VERTEX_POINT('',#214);
#214 = CARTESIAN_POINT('',(6.468984328255,-3.561664762545,-37.7));
#215 = LINE('',#216,#217);
#216 = CARTESIAN_POINT('',(6.347849448683,-0.102134953087,-37.7));
#217 = VECTOR('',#218,1.);
#218 = DIRECTION('',(-3.499339401933E-02,0.999387543636,0.));
#219 = ORIENTED_EDGE('',*,*,#220,.F.);
#220 = EDGE_CURVE('',#49,#213,#221,.T.);
#221 = LINE('',#222,#223);
#222 = CARTESIAN_POINT('',(6.468984328255,-3.561664762545,-53.4));
#223 = VECTOR('',#224,1.);
#224 = DIRECTION('',(0.,0.,1.));
#225 = PLANE('',#226);
#226 = AXIS2_PLACEMENT_3D('',#227,#228,#229);
#227 = CARTESIAN_POINT('',(6.513159456536,-4.823276394681,-53.4));
#228 = DIRECTION('',(0.999387543636,3.499339401933E-02,0.));
#229 = DIRECTION('',(-3.499339401933E-02,0.999387543636,0.));
#230 = ADVANCED_FACE('',(#231),#249,.F.);
#231 = FACE_BOUND('',#232,.T.);
#232 = EDGE_LOOP('',(#233,#241,#247,#248));
#233 = ORIENTED_EDGE('',*,*,#234,.T.);
#234 = EDGE_CURVE('',#213,#235,#237,.T.);
#235 = VERTEX_POINT('',#236);
#236 = CARTESIAN_POINT('',(5.57272680296,-3.044210239052,-37.7));
#237 = LINE('',#238,#239);
#238 = CARTESIAN_POINT('',(7.500000000001E-02,0.129903810568,-37.7));
#239 = VECTOR('',#240,1.);
#240 = DIRECTION('',(-0.866025403784,0.5,0.));
#241 = ORIENTED_EDGE('',*,*,#242,.F.);
#242 = EDGE_CURVE('',#57,#235,#243,.T.);
#243 = LINE('',#244,#245);
#244 = CARTESIAN_POINT('',(5.57272680296,-3.044210239052,-53.4));
#245 = VECTOR('',#246,1.);
#246 = DIRECTION('',(0.,0.,1.));
#247 = ORIENTED_EDGE('',*,*,#56,.F.);
#248 = ORIENTED_EDGE('',*,*,#220,.T.);
#249 = PLANE('',#250);
#250 = AXIS2_PLACEMENT_3D('',#251,#252,#253);
#251 = CARTESIAN_POINT('',(6.050575286111,-3.320096189432,-53.4));
#252 = DIRECTION('',(0.5,0.866025403784,0.));
#253 = DIRECTION('',(-0.866025403784,0.5,0.));
#254 = ADVANCED_FACE('',(#255),#274,.T.);
#255 = FACE_BOUND('',#256,.T.);
#256 = EDGE_LOOP('',(#257,#266,#272,#273));
#257 = ORIENTED_EDGE('',*,*,#258,.F.);
#258 = EDGE_CURVE('',#259,#235,#261,.T.);
#259 = VERTEX_POINT('',#260);
#260 = CARTESIAN_POINT('',(-1.250079403799,-6.225737023371,-37.7));
#261 = CIRCLE('',#262,6.349999999998);
#262 = AXIS2_PLACEMENT_3D('',#263,#264,#265);
#263 = CARTESIAN_POINT('',(-8.377272802354E-16,1.584779870705E-15,-37.7)
  );
#264 = DIRECTION('',(0.,0.,1.));
#265 = DIRECTION('',(-0.5,-0.866025403784,0.));
#266 = ORIENTED_EDGE('',*,*,#267,.F.);
#267 = EDGE_CURVE('',#65,#259,#268,.T.);
#268 = LINE('',#269,#270);
#269 = CARTESIAN_POINT('',(-1.250079403799,-6.225737023371,-53.4));
#270 = VECTOR('',#271,1.);
#271 = DIRECTION('',(0.,0.,1.));
#272 = ORIENTED_EDGE('',*,*,#64,.T.);
#273 = ORIENTED_EDGE('',*,*,#242,.T.);
#274 = CYLINDRICAL_SURFACE('',#275,6.349999999998);
#275 = AXIS2_PLACEMENT_3D('',#276,#277,#278);
#276 = CARTESIAN_POINT('',(-8.377272802354E-16,1.584779870705E-15,-53.4)
  );
#277 = DIRECTION('',(0.,0.,1.));
#278 = DIRECTION('',(-0.5,-0.866025403784,0.));
#279 = ADVANCED_FACE('',(#280),#298,.T.);
#280 = FACE_BOUND('',#281,.T.);
#281 = EDGE_LOOP('',(#282,#290,#296,#297));
#282 = ORIENTED_EDGE('',*,*,#283,.F.);
#283 = EDGE_CURVE('',#284,#259,#286,.T.);
#284 = VERTEX_POINT('',#285);
#285 = CARTESIAN_POINT('',(-1.429789473859,-7.244923476504,-37.7));
#286 = LINE('',#287,#288);
#287 = CARTESIAN_POINT('',(-0.21010628583,-0.327756386543,-37.7));
#288 = VECTOR('',#289,1.);
#289 = DIRECTION('',(0.173648177667,0.984807753012,0.));
#290 = ORIENTED_EDGE('',*,*,#291,.F.);
#291 = EDGE_CURVE('',#74,#284,#292,.T.);
#292 = LINE('',#293,#294);
#293 = CARTESIAN_POINT('',(-1.429789473859,-7.244923476504,-53.4));
#294 = VECTOR('',#295,1.);
#295 = DIRECTION('',(0.,0.,1.));
#296 = ORIENTED_EDGE('',*,*,#73,.T.);
#297 = ORIENTED_EDGE('',*,*,#267,.T.);
#298 = PLANE('',#299);
#299 = AXIS2_PLACEMENT_3D('',#300,#301,#302);
#300 = CARTESIAN_POINT('',(-1.345893588853,-6.769126269133,-53.4));
#301 = DIRECTION('',(0.984807753012,-0.173648177667,0.));
#302 = DIRECTION('',(0.173648177667,0.984807753012,0.));
#303 = ADVANCED_FACE('',(#304),#322,.T.);
#304 = FACE_BOUND('',#305,.T.);
#305 = EDGE_LOOP('',(#306,#314,#320,#321));
#306 = ORIENTED_EDGE('',*,*,#307,.F.);
#307 = EDGE_CURVE('',#308,#284,#310,.T.);
#308 = VERTEX_POINT('',#309);
#309 = CARTESIAN_POINT('',(-0.269368596552,-8.289968562406,-37.7));
#310 = LINE('',#311,#312);
#311 = CARTESIAN_POINT('',(-4.183897568217,-4.764644823872,-37.7));
#312 = VECTOR('',#313,1.);
#313 = DIRECTION('',(-0.743081954228,0.669200425359,0.));
#314 = ORIENTED_EDGE('',*,*,#315,.F.);
#315 = EDGE_CURVE('',#82,#308,#316,.T.);
#316 = LINE('',#317,#318);
#317 = CARTESIAN_POINT('',(-0.269368596552,-8.289968562406,-53.4));
#318 = VECTOR('',#319,1.);
#319 = DIRECTION('',(0.,0.,1.));
#320 = ORIENTED_EDGE('',*,*,#81,.T.);
#321 = ORIENTED_EDGE('',*,*,#291,.T.);
#322 = PLANE('',#323);
#323 = AXIS2_PLACEMENT_3D('',#324,#325,#326);
#324 = CARTESIAN_POINT('',(-0.491734118802,-8.089711913422,-53.4));
#325 = DIRECTION('',(0.669200425359,0.743081954228,0.));
#326 = DIRECTION('',(-0.743081954228,0.669200425359,0.));
#327 = ADVANCED_FACE('',(#328),#347,.T.);
#328 = FACE_BOUND('',#329,.T.);
#329 = EDGE_LOOP('',(#330,#331,#332,#341));
#330 = ORIENTED_EDGE('',*,*,#89,.T.);
#331 = ORIENTED_EDGE('',*,*,#315,.T.);
#332 = ORIENTED_EDGE('',*,*,#333,.F.);
#333 = EDGE_CURVE('',#334,#308,#336,.T.);
#334 = VERTEX_POINT('',#335);
#335 = CARTESIAN_POINT('',(-0.387171284676,-8.958060805867,-37.7));
#336 = CIRCLE('',#337,0.4);
#337 = AXIS2_PLACEMENT_3D('',#338,#339,#340);
#338 = CARTESIAN_POINT('',(-0.537048766695,-8.587201344098,-37.7));
#339 = DIRECTION('',(0.,0.,1.));
#340 = DIRECTION('',(1.,0.,0.));
#341 = ORIENTED_EDGE('',*,*,#342,.F.);
#342 = EDGE_CURVE('',#90,#334,#343,.T.);
#343 = LINE('',#344,#345);
#344 = CARTESIAN_POINT('',(-0.387171284676,-8.958060805867,-53.4));
#345 = VECTOR('',#346,1.);
#346 = DIRECTION('',(0.,0.,1.));
#347 = CYLINDRICAL_SURFACE('',#348,0.4);
#348 = AXIS2_PLACEMENT_3D('',#349,#350,#351);
#349 = CARTESIAN_POINT('',(-0.537048766695,-8.587201344098,-53.4));
#350 = DIRECTION('',(0.,0.,1.));
#351 = DIRECTION('',(1.,0.,0.));
#352 = ADVANCED_FACE('',(#353),#371,.T.);
#353 = FACE_BOUND('',#354,.T.);
#354 = EDGE_LOOP('',(#355,#356,#357,#365));
#355 = ORIENTED_EDGE('',*,*,#98,.T.);
#356 = ORIENTED_EDGE('',*,*,#342,.T.);
#357 = ORIENTED_EDGE('',*,*,#358,.F.);
#358 = EDGE_CURVE('',#359,#334,#361,.T.);
#359 = VERTEX_POINT('',#360);
#360 = CARTESIAN_POINT('',(-1.835036690149,-9.543194646703,-37.7));
#361 = LINE('',#362,#363);
#362 = CARTESIAN_POINT('',(2.778300904495,-7.67878105161,-37.7));
#363 = VECTOR('',#364,1.);
#364 = DIRECTION('',(0.927148654422,0.374693705049,0.));
#365 = ORIENTED_EDGE('',*,*,#366,.F.);
#366 = EDGE_CURVE('',#99,#359,#367,.T.);
#367 = LINE('',#368,#369);
#368 = CARTESIAN_POINT('',(-1.835036690149,-9.543194646703,-53.4));
#369 = VECTOR('',#370,1.);
#370 = DIRECTION('',(0.,0.,1.));
#371 = PLANE('',#372);
#372 = AXIS2_PLACEMENT_3D('',#373,#374,#375);
#373 = CARTESIAN_POINT('',(-0.664618332839,-9.07018701339,-53.4));
#374 = DIRECTION('',(0.374693705049,-0.927148654422,0.));
#375 = DIRECTION('',(0.927148654422,0.374693705049,0.));
#376 = ADVANCED_FACE('',(#377),#396,.T.);
#377 = FACE_BOUND('',#378,.T.);
#378 = EDGE_LOOP('',(#379,#380,#381,#389));
#379 = ORIENTED_EDGE('',*,*,#106,.T.);
#380 = ORIENTED_EDGE('',*,*,#366,.T.);
#381 = ORIENTED_EDGE('',*,*,#382,.F.);
#382 = EDGE_CURVE('',#383,#359,#385,.T.);
#383 = VERTEX_POINT('',#384);
#384 = CARTESIAN_POINT('',(-2.318167094802,-12.28316332711,-37.7));
#385 = LINE('',#386,#387);
#386 = CARTESIAN_POINT('',(-0.21010628583,-0.327756386543,-37.7));
#387 = VECTOR('',#388,1.);
#388 = DIRECTION('',(0.173648177667,0.984807753012,0.));
#389 = ORIENTED_EDGE('',*,*,#390,.F.);
#390 = EDGE_CURVE('',#107,#383,#391,.T.);
#391 = B_SPLINE_CURVE_WITH_KNOTS('',3,(#392,#393,#394,#395),
  .UNSPECIFIED.,.F.,.F.,(4,4),(1.985299312786E-02,3.576097342907E-02),
  .PIECEWISE_BEZIER_KNOTS.);
#392 = CARTESIAN_POINT('',(-1.992019063925,-10.43348592909,-53.4));
#393 = CARTESIAN_POINT('',(-2.208726738496,-11.66249622406,
    -48.25881334109));
#394 = CARTESIAN_POINT('',(-2.318167094802,-12.28316332711,
    -42.93911483934));
#395 = CARTESIAN_POINT('',(-2.318167094802,-12.28316332711,-37.7));
#396 = PLANE('',#397);
#397 = AXIS2_PLACEMENT_3D('',#398,#399,#400);
#398 = CARTESIAN_POINT('',(-2.083898343938,-10.95455921943,-53.4));
#399 = DIRECTION('',(0.984807753012,-0.173648177667,0.));
#400 = DIRECTION('',(0.173648177667,0.984807753012,0.));
#401 = ADVANCED_FACE('',(#402),#524,.F.);
#402 = FACE_BOUND('',#403,.F.);
#403 = EDGE_LOOP('',(#404,#415,#427,#436,#445,#452,#453,#454,#455,#464,
    #473,#482,#491,#500,#509,#516,#517));
#404 = ORIENTED_EDGE('',*,*,#405,.F.);
#405 = EDGE_CURVE('',#406,#408,#410,.T.);
#406 = VERTEX_POINT('',#407);
#407 = CARTESIAN_POINT('',(-7.739667429394,-4.593206731944,-59.));
#408 = VERTEX_POINT('',#409);
#409 = CARTESIAN_POINT('',(9.,0.,-59.));
#410 = CIRCLE('',#411,9.);
#411 = AXIS2_PLACEMENT_3D('',#412,#413,#414);
#412 = CARTESIAN_POINT('',(0.,0.,-59.));
#413 = DIRECTION('',(0.,0.,1.));
#414 = DIRECTION('',(1.,0.,0.));
#415 = ORIENTED_EDGE('',*,*,#416,.F.);
#416 = EDGE_CURVE('',#417,#406,#419,.T.);
#417 = VERTEX_POINT('',#418);
#418 = CARTESIAN_POINT('',(-9.134482340306,-5.420977859975,-53.4));
#419 = ( BOUNDED_CURVE() B_SPLINE_CURVE(6,(#420,#421,#422,#423,#424,#425
,#426),.UNSPECIFIED.,.F.,.F.) B_SPLINE_CURVE_WITH_KNOTS((7,7),(
3.379703584711,3.467320328633),.PIECEWISE_BEZIER_KNOTS.) CURVE() 
GEOMETRIC_REPRESENTATION_ITEM() RATIONAL_B_SPLINE_CURVE((1.000095963934,
    1.000031983885,0.999993602405,0.999980809668,0.999993602405,
1.000031983885,1.000095963934)) REPRESENTATION_ITEM('') );
#420 = CARTESIAN_POINT('',(-9.134482340306,-5.420977859975,-53.4));
#421 = CARTESIAN_POINT('',(-8.937311318921,-5.303964141875,
    -54.34463909285));
#422 = CARTESIAN_POINT('',(-8.725919714945,-5.178511033286,
    -55.28518777548));
#423 = CARTESIAN_POINT('',(-8.500379190378,-5.044661062959,
    -56.22132073748));
#424 = CARTESIAN_POINT('',(-8.260767202046,-4.902460198659,
    -57.1527144644));
#425 = CARTESIAN_POINT('',(-8.007166967961,-4.7519578272,-58.07904738217
    ));
#426 = CARTESIAN_POINT('',(-7.739667429394,-4.593206731944,-59.));
#427 = ORIENTED_EDGE('',*,*,#428,.T.);
#428 = EDGE_CURVE('',#417,#429,#431,.T.);
#429 = VERTEX_POINT('',#430);
#430 = CARTESIAN_POINT('',(-9.122959090895,-5.440347967691,-53.4));
#431 = CIRCLE('',#432,10.621947494866);
#432 = AXIS2_PLACEMENT_3D('',#433,#434,#435);
#433 = CARTESIAN_POINT('',(0.,0.,-53.4));
#434 = DIRECTION('',(0.,0.,1.));
#435 = DIRECTION('',(-0.5,0.866025403784,0.));
#436 = ORIENTED_EDGE('',*,*,#437,.T.);
#437 = EDGE_CURVE('',#429,#438,#440,.T.);
#438 = VERTEX_POINT('',#439);
#439 = CARTESIAN_POINT('',(-10.74953809638,-6.379453794366,-37.7));
#440 = B_SPLINE_CURVE_WITH_KNOTS('',3,(#441,#442,#443,#444),
  .UNSPECIFIED.,.F.,.F.,(4,4),(1.397323666901E-02,2.988073685655E-02),
  .PIECEWISE_BEZIER_KNOTS.);
#441 = CARTESIAN_POINT('',(-9.122959090894,-5.440347967691,-53.4));
#442 = CARTESIAN_POINT('',(-10.20279212763,-6.063789862133,
    -48.26328715074));
#443 = CARTESIAN_POINT('',(-10.74953809638,-6.379453794367,
    -42.94652299004));
#444 = CARTESIAN_POINT('',(-10.74953809638,-6.379453794366,
    -37.69999999999));
#445 = ORIENTED_EDGE('',*,*,#446,.T.);
#446 = EDGE_CURVE('',#438,#383,#447,.T.);
#447 = CIRCLE('',#448,12.5);
#448 = AXIS2_PLACEMENT_3D('',#449,#450,#451);
#449 = CARTESIAN_POINT('',(0.,0.,-37.7));
#450 = DIRECTION('',(0.,0.,1.));
#451 = DIRECTION('',(1.,0.,0.));
#452 = ORIENTED_EDGE('',*,*,#390,.F.);
#453 = ORIENTED_EDGE('',*,*,#114,.T.);
#454 = ORIENTED_EDGE('',*,*,#129,.T.);
#455 = ORIENTED_EDGE('',*,*,#456,.T.);
#456 = EDGE_CURVE('',#130,#457,#459,.T.);
#457 = VERTEX_POINT('',#458);
#458 = CARTESIAN_POINT('',(11.796615027516,4.133990069242,-37.7));
#459 = CIRCLE('',#460,12.5);
#460 = AXIS2_PLACEMENT_3D('',#461,#462,#463);
#461 = CARTESIAN_POINT('',(0.,0.,-37.7));
#462 = DIRECTION('',(0.,0.,1.));
#463 = DIRECTION('',(1.,0.,0.));
#464 = ORIENTED_EDGE('',*,*,#465,.F.);
#465 = EDGE_CURVE('',#466,#457,#468,.T.);
#466 = VERTEX_POINT('',#467);
#467 = CARTESIAN_POINT('',(10.031673396587,3.491603850367,-53.4));
#468 = B_SPLINE_CURVE_WITH_KNOTS('',3,(#469,#470,#471,#472),
  .UNSPECIFIED.,.F.,.F.,(4,4),(1.985299312786E-02,3.576097342907E-02),
  .PIECEWISE_BEZIER_KNOTS.);
#469 = CARTESIAN_POINT('',(10.031673396587,3.491603850366,-53.4));
#470 = CARTESIAN_POINT('',(11.204381370829,3.918434646477,
    -48.25881334109));
#471 = CARTESIAN_POINT('',(11.796615027516,4.133990069242,
    -42.93911483934));
#472 = CARTESIAN_POINT('',(11.796615027516,4.133990069242,
    -37.69999999999));
#473 = ORIENTED_EDGE('',*,*,#474,.T.);
#474 = EDGE_CURVE('',#466,#475,#477,.T.);
#475 = VERTEX_POINT('',#476);
#476 = CARTESIAN_POINT('',(-0.15,10.620888314246,-53.4));
#477 = CIRCLE('',#478,10.621947494866);
#478 = AXIS2_PLACEMENT_3D('',#479,#480,#481);
#479 = CARTESIAN_POINT('',(0.,0.,-53.4));
#480 = DIRECTION('',(0.,0.,1.));
#481 = DIRECTION('',(1.,0.,0.));
#482 = ORIENTED_EDGE('',*,*,#483,.T.);
#483 = EDGE_CURVE('',#475,#484,#486,.T.);
#484 = VERTEX_POINT('',#485);
#485 = CARTESIAN_POINT('',(-0.15,12.499099967598,-37.7));
#486 = B_SPLINE_CURVE_WITH_KNOTS('',3,(#487,#488,#489,#490),
  .UNSPECIFIED.,.F.,.F.,(4,4),(1.397323666901E-02,2.988073685655E-02),
  .PIECEWISE_BEZIER_KNOTS.);
#487 = CARTESIAN_POINT('',(-0.15,10.620888314246,-53.4));
#488 = CARTESIAN_POINT('',(-0.15,11.867772103131,-48.26328715074));
#489 = CARTESIAN_POINT('',(-0.15,12.499099967598,-42.94652299004));
#490 = CARTESIAN_POINT('',(-0.15,12.499099967598,-37.69999999999));
#491 = ORIENTED_EDGE('',*,*,#492,.T.);
#492 = EDGE_CURVE('',#484,#493,#495,.T.);
#493 = VERTEX_POINT('',#494);
#494 = CARTESIAN_POINT('',(-9.478447932714,8.149173257873,-37.7));
#495 = CIRCLE('',#496,12.5);
#496 = AXIS2_PLACEMENT_3D('',#497,#498,#499);
#497 = CARTESIAN_POINT('',(0.,0.,-37.7));
#498 = DIRECTION('',(0.,0.,1.));
#499 = DIRECTION('',(1.,0.,0.));
#500 = ORIENTED_EDGE('',*,*,#501,.F.);
#501 = EDGE_CURVE('',#502,#493,#504,.T.);
#502 = VERTEX_POINT('',#503);
#503 = CARTESIAN_POINT('',(-8.039654332663,6.94188207873,-53.4));
#504 = B_SPLINE_CURVE_WITH_KNOTS('',3,(#505,#506,#507,#508),
  .UNSPECIFIED.,.F.,.F.,(4,4),(1.985299312786E-02,3.576097342907E-02),
  .PIECEWISE_BEZIER_KNOTS.);
#505 = CARTESIAN_POINT('',(-8.039654332663,6.94188207873,-53.4));
#506 = CARTESIAN_POINT('',(-8.995654632333,7.744061577589,
    -48.25881334109));
#507 = CARTESIAN_POINT('',(-9.478447932714,8.149173257873,
    -42.93911483934));
#508 = CARTESIAN_POINT('',(-9.478447932714,8.149173257873,
    -37.69999999999));
#509 = ORIENTED_EDGE('',*,*,#510,.T.);
#510 = EDGE_CURVE('',#502,#417,#511,.T.);
#511 = CIRCLE('',#512,10.621947494866);
#512 = AXIS2_PLACEMENT_3D('',#513,#514,#515);
#513 = CARTESIAN_POINT('',(0.,0.,-53.4));
#514 = DIRECTION('',(0.,0.,1.));
#515 = DIRECTION('',(-0.5,0.866025403784,0.));
#516 = ORIENTED_EDGE('',*,*,#416,.T.);
#517 = ORIENTED_EDGE('',*,*,#518,.F.);
#518 = EDGE_CURVE('',#408,#406,#519,.T.);
#519 = CIRCLE('',#520,9.);
#520 = AXIS2_PLACEMENT_3D('',#521,#522,#523);
#521 = CARTESIAN_POINT('',(0.,0.,-59.));
#522 = DIRECTION('',(0.,0.,1.));
#523 = DIRECTION('',(1.,0.,0.));
#524 = SURFACE_OF_REVOLUTION('',#525,#532);
#525 = B_SPLINE_CURVE_WITH_KNOTS('',5,(#526,#527,#528,#529,#530,#531),
  .UNSPECIFIED.,.F.,.F.,(6,6),(3.14159265359,3.467320328633),
  .PIECEWISE_BEZIER_KNOTS.);
#526 = CARTESIAN_POINT('',(-12.5,0.,-37.69999999999));
#527 = CARTESIAN_POINT('',(-12.5,0.,-42.03627294027));
#528 = CARTESIAN_POINT('',(-12.14689145481,0.,-46.37254623815));
#529 = CARTESIAN_POINT('',(-11.44065847088,0.,-50.67047839752));
#530 = CARTESIAN_POINT('',(-10.38759989568,0.,-54.89173643225));
#531 = CARTESIAN_POINT('',(-9.,0.,-59.));
#532 = AXIS1_PLACEMENT('',#533,#534);
#533 = CARTESIAN_POINT('',(0.,0.,-37.7));
#534 = DIRECTION('',(0.,0.,1.));
#535 = ADVANCED_FACE('',(#536,#547),#741,.T.);
#536 = FACE_BOUND('',#537,.T.);
#537 = EDGE_LOOP('',(#538));
#538 = ORIENTED_EDGE('',*,*,#539,.F.);
#539 = EDGE_CURVE('',#540,#540,#542,.T.);
#540 = VERTEX_POINT('',#541);
#541 = CARTESIAN_POINT('',(6.2,0.,-37.7));
#542 = CIRCLE('',#543,6.2);
#543 = AXIS2_PLACEMENT_3D('',#544,#545,#546);
#544 = CARTESIAN_POINT('',(0.,0.,-37.7));
#545 = DIRECTION('',(0.,0.,1.));
#546 = DIRECTION('',(1.,0.,0.));
#547 = FACE_BOUND('',#548,.T.);
#548 = EDGE_LOOP('',(#549,#559,#568,#576,#584,#593,#601,#609,#618,#626,
    #632,#633,#634,#635,#636,#637,#638,#639,#640,#641,#642,#643,#644,
    #645,#653,#661,#670,#678,#686,#695,#703,#711,#720,#728,#734,#735));
#549 = ORIENTED_EDGE('',*,*,#550,.T.);
#550 = EDGE_CURVE('',#551,#553,#555,.T.);
#551 = VERTEX_POINT('',#552);
#552 = CARTESIAN_POINT('',(-7.34713065223,6.360785713897,-37.7));
#553 = VERTEX_POINT('',#554);
#554 = CARTESIAN_POINT('',(-7.564322584188,4.814330571079,-37.7));
#555 = LINE('',#556,#557);
#556 = CARTESIAN_POINT('',(-8.03916991304,1.433311363155,-37.7));
#557 = VECTOR('',#558,1.);
#558 = DIRECTION('',(-0.139080060001,-0.990281140339,0.));
#559 = ORIENTED_EDGE('',*,*,#560,.T.);
#560 = EDGE_CURVE('',#553,#561,#563,.T.);
#561 = VERTEX_POINT('',#562);
#562 = CARTESIAN_POINT('',(-7.044639073342,4.378264328799,-37.7));
#563 = CIRCLE('',#564,0.4);
#564 = AXIS2_PLACEMENT_3D('',#565,#566,#567);
#565 = CARTESIAN_POINT('',(-7.168210128053,4.758698547078,-37.7));
#566 = DIRECTION('',(0.,0.,1.));
#567 = DIRECTION('',(1.,0.,0.));
#568 = ORIENTED_EDGE('',*,*,#569,.T.);
#569 = EDGE_CURVE('',#561,#570,#572,.T.);
#570 = VERTEX_POINT('',#571);
#571 = CARTESIAN_POINT('',(-5.559393042198,4.860695744677,-37.7));
#572 = LINE('',#573,#574);
#573 = CARTESIAN_POINT('',(-2.034354673374,6.005683992844,-37.7));
#574 = VECTOR('',#575,1.);
#575 = DIRECTION('',(0.951085545698,0.308927636776,0.));
#576 = ORIENTED_EDGE('',*,*,#577,.T.);
#577 = EDGE_CURVE('',#570,#578,#580,.T.);
#578 = VERTEX_POINT('',#579);
#579 = CARTESIAN_POINT('',(-4.766606717622,4.195469032123,-37.7));
#580 = LINE('',#581,#582);
#581 = CARTESIAN_POINT('',(-0.178792214084,0.345835574295,-37.7));
#582 = VECTOR('',#583,1.);
#583 = DIRECTION('',(0.766044443119,-0.642787609687,0.));
#584 = ORIENTED_EDGE('',*,*,#585,.T.);
#585 = EDGE_CURVE('',#578,#586,#588,.T.);
#586 = VERTEX_POINT('',#587);
#587 = CARTESIAN_POINT('',(-5.42272680296,-3.304017860188,-37.7));
#588 = CIRCLE('',#589,6.349999999998);
#589 = AXIS2_PLACEMENT_3D('',#590,#591,#592);
#590 = CARTESIAN_POINT('',(1.791323267555E-15,-6.689682922542E-17,-37.7)
  );
#591 = DIRECTION('',(0.,0.,1.));
#592 = DIRECTION('',(-0.5,0.866025403784,0.));
#593 = ORIENTED_EDGE('',*,*,#594,.F.);
#594 = EDGE_CURVE('',#595,#586,#597,.T.);
#595 = VERTEX_POINT('',#596);
#596 = CARTESIAN_POINT('',(-6.318984328255,-3.82147238368,-37.7));
#597 = LINE('',#598,#599);
#598 = CARTESIAN_POINT('',(7.499999999999E-02,-0.129903810568,-37.7));
#599 = VECTOR('',#600,1.);
#600 = DIRECTION('',(0.866025403784,0.5,0.));
#601 = ORIENTED_EDGE('',*,*,#602,.F.);
#602 = EDGE_CURVE('',#603,#595,#605,.T.);
#603 = VERTEX_POINT('',#604);
#604 = CARTESIAN_POINT('',(-7.69789279864,-3.088459918331,-37.7));
#605 = LINE('',#606,#607);
#606 = CARTESIAN_POINT('',(-3.262376188329,-5.446331405415,-37.7));
#607 = VECTOR('',#608,1.);
#608 = DIRECTION('',(0.882991698024,-0.469388603633,0.));
#609 = ORIENTED_EDGE('',*,*,#610,.T.);
#610 = EDGE_CURVE('',#603,#611,#613,.T.);
#611 = VERTEX_POINT('',#612);
#612 = CARTESIAN_POINT('',(-8.285403257548,-3.427659239933,-37.7));
#613 = CIRCLE('',#614,0.4);
#614 = AXIS2_PLACEMENT_3D('',#615,#616,#617);
#615 = CARTESIAN_POINT('',(-7.885648240093,-3.441656597541,-37.7));
#616 = DIRECTION('',(0.,0.,1.));
#617 = DIRECTION('',(1.,0.,0.));
#618 = ORIENTED_EDGE('',*,*,#619,.F.);
#619 = EDGE_CURVE('',#620,#611,#622,.T.);
#620 = VERTEX_POINT('',#621);
#621 = CARTESIAN_POINT('',(-8.340050076458,-4.988335237455,-37.7));
#622 = LINE('',#623,#624);
#623 = CARTESIAN_POINT('',(-8.144040460321,0.609566146221,-37.7));
#624 = VECTOR('',#625,1.);
#625 = DIRECTION('',(3.499339401933E-02,0.999387543636,0.));
#626 = ORIENTED_EDGE('',*,*,#627,.F.);
#627 = EDGE_CURVE('',#438,#620,#628,.T.);
#628 = LINE('',#629,#630);
#629 = CARTESIAN_POINT('',(7.499999999999E-02,-0.129903810568,-37.7));
#630 = VECTOR('',#631,1.);
#631 = DIRECTION('',(0.866025403784,0.5,0.));
#632 = ORIENTED_EDGE('',*,*,#446,.T.);
#633 = ORIENTED_EDGE('',*,*,#382,.T.);
#634 = ORIENTED_EDGE('',*,*,#358,.T.);
#635 = ORIENTED_EDGE('',*,*,#333,.T.);
#636 = ORIENTED_EDGE('',*,*,#307,.T.);
#637 = ORIENTED_EDGE('',*,*,#283,.T.);
#638 = ORIENTED_EDGE('',*,*,#258,.T.);
#639 = ORIENTED_EDGE('',*,*,#234,.F.);
#640 = ORIENTED_EDGE('',*,*,#212,.F.);
#641 = ORIENTED_EDGE('',*,*,#187,.T.);
#642 = ORIENTED_EDGE('',*,*,#161,.F.);
#643 = ORIENTED_EDGE('',*,*,#138,.F.);
#644 = ORIENTED_EDGE('',*,*,#456,.T.);
#645 = ORIENTED_EDGE('',*,*,#646,.T.);
#646 = EDGE_CURVE('',#457,#647,#649,.T.);
#647 = VERTEX_POINT('',#648);
#648 = CARTESIAN_POINT('',(9.182167342379,3.182408932806,-37.7));
#649 = LINE('',#650,#651);
#650 = CARTESIAN_POINT('',(0.388898499913,-1.80791877521E-02,-37.7));
#651 = VECTOR('',#652,1.);
#652 = DIRECTION('',(-0.939692620786,-0.342020143326,0.));
#653 = ORIENTED_EDGE('',*,*,#654,.T.);
#654 = EDGE_CURVE('',#647,#655,#657,.T.);
#655 = VERTEX_POINT('',#656);
#656 = CARTESIAN_POINT('',(7.951493868864,4.143730234788,-37.7));
#657 = LINE('',#658,#659);
#658 = CARTESIAN_POINT('',(5.260869008546,6.245469688455,-37.7));
#659 = VECTOR('',#660,1.);
#660 = DIRECTION('',(-0.788068594421,0.61558743529,0.));
#661 = ORIENTED_EDGE('',*,*,#662,.T.);
#662 = EDGE_CURVE('',#655,#663,#665,.T.);
#663 = VERTEX_POINT('',#664);
#664 = CARTESIAN_POINT('',(7.314007669894,3.911704233607,-37.7));
#665 = CIRCLE('',#666,0.4);
#666 = AXIS2_PLACEMENT_3D('',#667,#668,#669);
#667 = CARTESIAN_POINT('',(7.705258894748,3.828502797019,-37.7));
#668 = DIRECTION('',(0.,0.,1.));
#669 = DIRECTION('',(1.,0.,0.));
#670 = ORIENTED_EDGE('',*,*,#671,.T.);
#671 = EDGE_CURVE('',#663,#672,#674,.T.);
#672 = VERTEX_POINT('',#673);
#673 = CARTESIAN_POINT('',(6.989182516056,2.384227731827,-37.7));
#674 = LINE('',#675,#676);
#675 = CARTESIAN_POINT('',(6.218252241592,-1.241039168972,-37.7));
#676 = VECTOR('',#677,1.);
#677 = DIRECTION('',(-0.20800359147,-0.978128062135,0.));
#678 = ORIENTED_EDGE('',*,*,#679,.T.);
#679 = EDGE_CURVE('',#672,#680,#682,.T.);
#680 = VERTEX_POINT('',#681);
#681 = CARTESIAN_POINT('',(6.01668612142,2.030267991248,-37.7));
#682 = LINE('',#683,#684);
#683 = CARTESIAN_POINT('',(0.388898499913,-1.80791877521E-02,-37.7));
#684 = VECTOR('',#685,1.);
#685 = DIRECTION('',(-0.939692620786,-0.342020143326,0.));
#686 = ORIENTED_EDGE('',*,*,#687,.T.);
#687 = EDGE_CURVE('',#680,#688,#690,.T.);
#688 = VERTEX_POINT('',#689);
#689 = CARTESIAN_POINT('',(-0.15,6.34822809924,-37.7));
#690 = CIRCLE('',#691,6.349999999998);
#691 = AXIS2_PLACEMENT_3D('',#692,#693,#694);
#692 = CARTESIAN_POINT('',(-9.535959873191E-16,-1.51788304148E-15,-37.7)
  );
#693 = DIRECTION('',(0.,0.,1.));
#694 = DIRECTION('',(1.,0.,0.));
#695 = ORIENTED_EDGE('',*,*,#696,.F.);
#696 = EDGE_CURVE('',#697,#688,#699,.T.);
#697 = VERTEX_POINT('',#698);
#698 = CARTESIAN_POINT('',(-0.15,7.383137146224,-37.7));
#699 = LINE('',#700,#701);
#700 = CARTESIAN_POINT('',(-0.15,6.990426082968E-15,-37.7));
#701 = VECTOR('',#702,1.);
#702 = DIRECTION('',(-9.680709345182E-17,-1.,0.));
#703 = ORIENTED_EDGE('',*,*,#704,.F.);
#704 = EDGE_CURVE('',#705,#697,#707,.T.);
#705 = VERTEX_POINT('',#706);
#706 = CARTESIAN_POINT('',(1.174261651476,8.210800678397,-37.7));
#707 = LINE('',#708,#709);
#708 = CARTESIAN_POINT('',(-3.085473260354,5.548466358502,-37.7));
#709 = VECTOR('',#710,1.);
#710 = DIRECTION('',(-0.847998304005,-0.529998940003,0.));
#711 = ORIENTED_EDGE('',*,*,#712,.T.);
#712 = EDGE_CURVE('',#705,#713,#715,.T.);
#713 = VERTEX_POINT('',#714);
#714 = CARTESIAN_POINT('',(1.174261651476,8.889199321601,-37.7));
#715 = CIRCLE('',#716,0.4);
#716 = AXIS2_PLACEMENT_3D('',#717,#718,#719);
#717 = CARTESIAN_POINT('',(0.962262075474,8.549999999999,-37.7));
#718 = DIRECTION('',(0.,0.,1.));
#719 = DIRECTION('',(1.,0.,0.));
#720 = ORIENTED_EDGE('',*,*,#721,.F.);
#721 = EDGE_CURVE('',#722,#713,#724,.T.);
#722 = VERTEX_POINT('',#723);
#723 = CARTESIAN_POINT('',(-0.15,9.716862853774,-37.7));
#724 = LINE('',#725,#726);
#725 = CARTESIAN_POINT('',(4.599919998074,6.748162854975,-37.7));
#726 = VECTOR('',#727,1.);
#727 = DIRECTION('',(0.847998304005,-0.529998940003,0.));
#728 = ORIENTED_EDGE('',*,*,#729,.F.);
#729 = EDGE_CURVE('',#484,#722,#730,.T.);
#730 = LINE('',#731,#732);
#731 = CARTESIAN_POINT('',(-0.15,6.938893903907E-15,-37.7));
#732 = VECTOR('',#733,1.);
#733 = DIRECTION('',(0.,-1.,0.));
#734 = ORIENTED_EDGE('',*,*,#492,.T.);
#735 = ORIENTED_EDGE('',*,*,#736,.T.);
#736 = EDGE_CURVE('',#493,#551,#737,.T.);
#737 = LINE('',#738,#739);
#738 = CARTESIAN_POINT('',(-0.178792214084,0.345835574295,-37.7));
#739 = VECTOR('',#740,1.);
#740 = DIRECTION('',(0.766044443119,-0.642787609687,0.));
#741 = PLANE('',#742);
#742 = AXIS2_PLACEMENT_3D('',#743,#744,#745);
#743 = CARTESIAN_POINT('',(9.35,0.,-37.7));
#744 = DIRECTION('',(0.,0.,1.));
#745 = DIRECTION('',(1.,0.,0.));
#746 = ADVANCED_FACE('',(#747,#758),#762,.T.);
#747 = FACE_BOUND('',#748,.T.);
#748 = EDGE_LOOP('',(#749));
#749 = ORIENTED_EDGE('',*,*,#750,.T.);
#750 = EDGE_CURVE('',#751,#751,#753,.T.);
#751 = VERTEX_POINT('',#752);
#752 = CARTESIAN_POINT('',(5.,0.,-59.));
#753 = CIRCLE('',#754,5.);
#754 = AXIS2_PLACEMENT_3D('',#755,#756,#757);
#755 = CARTESIAN_POINT('',(0.,0.,-59.));
#756 = DIRECTION('',(0.,0.,1.));
#757 = DIRECTION('',(1.,0.,0.));
#758 = FACE_BOUND('',#759,.T.);
#759 = EDGE_LOOP('',(#760,#761));
#760 = ORIENTED_EDGE('',*,*,#518,.F.);
#761 = ORIENTED_EDGE('',*,*,#405,.F.);
#762 = PLANE('',#763);
#763 = AXIS2_PLACEMENT_3D('',#764,#765,#766);
#764 = CARTESIAN_POINT('',(7.,0.,-59.));
#765 = DIRECTION('',(0.,0.,-1.));
#766 = DIRECTION('',(-1.,0.,0.));
#767 = ADVANCED_FACE('',(#768),#861,.T.);
#768 = FACE_BOUND('',#769,.T.);
#769 = EDGE_LOOP('',(#770,#778,#786,#795,#803,#811,#820,#828,#836,#845,
    #853,#859,#860));
#770 = ORIENTED_EDGE('',*,*,#771,.T.);
#771 = EDGE_CURVE('',#429,#772,#774,.T.);
#772 = VERTEX_POINT('',#773);
#773 = CARTESIAN_POINT('',(-8.340050076458,-4.988335237455,-53.4));
#774 = LINE('',#775,#776);
#775 = CARTESIAN_POINT('',(7.499999999999E-02,-0.129903810568,-53.4));
#776 = VECTOR('',#777,1.);
#777 = DIRECTION('',(0.866025403784,0.5,0.));
#778 = ORIENTED_EDGE('',*,*,#779,.T.);
#779 = EDGE_CURVE('',#772,#780,#782,.T.);
#780 = VERTEX_POINT('',#781);
#781 = CARTESIAN_POINT('',(-8.285403257548,-3.427659239933,-53.4));
#782 = LINE('',#783,#784);
#783 = CARTESIAN_POINT('',(-8.144040460321,0.609566146221,-53.4));
#784 = VECTOR('',#785,1.);
#785 = DIRECTION('',(3.499339401933E-02,0.999387543636,0.));
#786 = ORIENTED_EDGE('',*,*,#787,.F.);
#787 = EDGE_CURVE('',#788,#780,#790,.T.);
#788 = VERTEX_POINT('',#789);
#789 = CARTESIAN_POINT('',(-7.69789279864,-3.088459918331,-53.4));
#790 = CIRCLE('',#791,0.4);
#791 = AXIS2_PLACEMENT_3D('',#792,#793,#794);
#792 = CARTESIAN_POINT('',(-7.885648240093,-3.441656597541,-53.4));
#793 = DIRECTION('',(0.,0.,1.));
#794 = DIRECTION('',(1.,0.,0.));
#795 = ORIENTED_EDGE('',*,*,#796,.T.);
#796 = EDGE_CURVE('',#788,#797,#799,.T.);
#797 = VERTEX_POINT('',#798);
#798 = CARTESIAN_POINT('',(-6.318984328255,-3.82147238368,-53.4));
#799 = LINE('',#800,#801);
#800 = CARTESIAN_POINT('',(-3.262376188329,-5.446331405415,-53.4));
#801 = VECTOR('',#802,1.);
#802 = DIRECTION('',(0.882991698024,-0.469388603633,0.));
#803 = ORIENTED_EDGE('',*,*,#804,.T.);
#804 = EDGE_CURVE('',#797,#805,#807,.T.);
#805 = VERTEX_POINT('',#806);
#806 = CARTESIAN_POINT('',(-5.42272680296,-3.304017860188,-53.4));
#807 = LINE('',#808,#809);
#808 = CARTESIAN_POINT('',(7.499999999999E-02,-0.129903810568,-53.4));
#809 = VECTOR('',#810,1.);
#810 = DIRECTION('',(0.866025403784,0.5,0.));
#811 = ORIENTED_EDGE('',*,*,#812,.F.);
#812 = EDGE_CURVE('',#813,#805,#815,.T.);
#813 = VERTEX_POINT('',#814);
#814 = CARTESIAN_POINT('',(-4.766606717622,4.195469032123,-53.4));
#815 = CIRCLE('',#816,6.349999999998);
#816 = AXIS2_PLACEMENT_3D('',#817,#818,#819);
#817 = CARTESIAN_POINT('',(1.791323267555E-15,-6.689682922542E-17,-53.4)
  );
#818 = DIRECTION('',(0.,0.,1.));
#819 = DIRECTION('',(-0.5,0.866025403784,0.));
#820 = ORIENTED_EDGE('',*,*,#821,.F.);
#821 = EDGE_CURVE('',#822,#813,#824,.T.);
#822 = VERTEX_POINT('',#823);
#823 = CARTESIAN_POINT('',(-5.559393042198,4.860695744677,-53.4));
#824 = LINE('',#825,#826);
#825 = CARTESIAN_POINT('',(-0.178792214084,0.345835574295,-53.4));
#826 = VECTOR('',#827,1.);
#827 = DIRECTION('',(0.766044443119,-0.642787609687,0.));
#828 = ORIENTED_EDGE('',*,*,#829,.F.);
#829 = EDGE_CURVE('',#830,#822,#832,.T.);
#830 = VERTEX_POINT('',#831);
#831 = CARTESIAN_POINT('',(-7.044639073342,4.378264328799,-53.4));
#832 = LINE('',#833,#834);
#833 = CARTESIAN_POINT('',(-2.034354673374,6.005683992844,-53.4));
#834 = VECTOR('',#835,1.);
#835 = DIRECTION('',(0.951085545698,0.308927636776,0.));
#836 = ORIENTED_EDGE('',*,*,#837,.F.);
#837 = EDGE_CURVE('',#838,#830,#840,.T.);
#838 = VERTEX_POINT('',#839);
#839 = CARTESIAN_POINT('',(-7.564322584188,4.814330571079,-53.4));
#840 = CIRCLE('',#841,0.4);
#841 = AXIS2_PLACEMENT_3D('',#842,#843,#844);
#842 = CARTESIAN_POINT('',(-7.168210128053,4.758698547078,-53.4));
#843 = DIRECTION('',(0.,0.,1.));
#844 = DIRECTION('',(1.,0.,0.));
#845 = ORIENTED_EDGE('',*,*,#846,.F.);
#846 = EDGE_CURVE('',#847,#838,#849,.T.);
#847 = VERTEX_POINT('',#848);
#848 = CARTESIAN_POINT('',(-7.34713065223,6.360785713897,-53.4));
#849 = LINE('',#850,#851);
#850 = CARTESIAN_POINT('',(-8.03916991304,1.433311363155,-53.4));
#851 = VECTOR('',#852,1.);
#852 = DIRECTION('',(-0.139080060001,-0.990281140339,0.));
#853 = ORIENTED_EDGE('',*,*,#854,.F.);
#854 = EDGE_CURVE('',#502,#847,#855,.T.);
#855 = LINE('',#856,#857);
#856 = CARTESIAN_POINT('',(-0.178792214084,0.345835574295,-53.4));
#857 = VECTOR('',#858,1.);
#858 = DIRECTION('',(0.766044443119,-0.642787609687,0.));
#859 = ORIENTED_EDGE('',*,*,#510,.T.);
#860 = ORIENTED_EDGE('',*,*,#428,.T.);
#861 = PLANE('',#862);
#862 = AXIS2_PLACEMENT_3D('',#863,#864,#865);
#863 = CARTESIAN_POINT('',(-0.191159106856,0.331097285404,-53.4));
#864 = DIRECTION('',(0.,0.,1.));
#865 = DIRECTION('',(-0.5,0.866025403784,0.));
#866 = ADVANCED_FACE('',(#867),#878,.F.);
#867 = FACE_BOUND('',#868,.T.);
#868 = EDGE_LOOP('',(#869,#870,#871,#877));
#869 = ORIENTED_EDGE('',*,*,#437,.T.);
#870 = ORIENTED_EDGE('',*,*,#627,.T.);
#871 = ORIENTED_EDGE('',*,*,#872,.F.);
#872 = EDGE_CURVE('',#772,#620,#873,.T.);
#873 = LINE('',#874,#875);
#874 = CARTESIAN_POINT('',(-8.340050076458,-4.988335237455,-53.4));
#875 = VECTOR('',#876,1.);
#876 = DIRECTION('',(0.,0.,1.));
#877 = ORIENTED_EDGE('',*,*,#771,.F.);
#878 = PLANE('',#879);
#879 = AXIS2_PLACEMENT_3D('',#880,#881,#882);
#880 = CARTESIAN_POINT('',(-9.581183252197,-5.704903810568,-53.4));
#881 = DIRECTION('',(0.5,-0.866025403784,0.));
#882 = DIRECTION('',(0.,0.,1.));
#883 = ADVANCED_FACE('',(#884),#902,.T.);
#884 = FACE_BOUND('',#885,.T.);
#885 = EDGE_LOOP('',(#886,#894,#900,#901));
#886 = ORIENTED_EDGE('',*,*,#887,.T.);
#887 = EDGE_CURVE('',#466,#888,#890,.T.);
#888 = VERTEX_POINT('',#889);
#889 = CARTESIAN_POINT('',(9.182167342379,3.182408932806,-53.4));
#890 = LINE('',#891,#892);
#891 = CARTESIAN_POINT('',(0.388898499913,-1.80791877521E-02,-53.4));
#892 = VECTOR('',#893,1.);
#893 = DIRECTION('',(-0.939692620786,-0.342020143326,0.));
#894 = ORIENTED_EDGE('',*,*,#895,.T.);
#895 = EDGE_CURVE('',#888,#647,#896,.T.);
#896 = LINE('',#897,#898);
#897 = CARTESIAN_POINT('',(9.182167342379,3.182408932806,-53.4));
#898 = VECTOR('',#899,1.);
#899 = DIRECTION('',(0.,0.,1.));
#900 = ORIENTED_EDGE('',*,*,#646,.F.);
#901 = ORIENTED_EDGE('',*,*,#465,.F.);
#902 = PLANE('',#903);
#903 = AXIS2_PLACEMENT_3D('',#904,#905,#906);
#904 = CARTESIAN_POINT('',(10.528875743262,3.672570704963,-53.4));
#905 = DIRECTION('',(-0.342020143326,0.939692620786,0.));
#906 = DIRECTION('',(-0.939692620786,-0.342020143326,0.));
#907 = ADVANCED_FACE('',(#908),#993,.T.);
#908 = FACE_BOUND('',#909,.T.);
#909 = EDGE_LOOP('',(#910,#918,#926,#935,#943,#951,#960,#968,#976,#985,
    #991,#992));
#910 = ORIENTED_EDGE('',*,*,#911,.T.);
#911 = EDGE_CURVE('',#475,#912,#914,.T.);
#912 = VERTEX_POINT('',#913);
#913 = CARTESIAN_POINT('',(-0.15,9.716862853774,-53.4));
#914 = LINE('',#915,#916);
#915 = CARTESIAN_POINT('',(-0.15,6.938893903907E-15,-53.4));
#916 = VECTOR('',#917,1.);
#917 = DIRECTION('',(0.,-1.,0.));
#918 = ORIENTED_EDGE('',*,*,#919,.T.);
#919 = EDGE_CURVE('',#912,#920,#922,.T.);
#920 = VERTEX_POINT('',#921);
#921 = CARTESIAN_POINT('',(1.174261651476,8.889199321601,-53.4));
#922 = LINE('',#923,#924);
#923 = CARTESIAN_POINT('',(4.599919998074,6.748162854975,-53.4));
#924 = VECTOR('',#925,1.);
#925 = DIRECTION('',(0.847998304005,-0.529998940003,0.));
#926 = ORIENTED_EDGE('',*,*,#927,.F.);
#927 = EDGE_CURVE('',#928,#920,#930,.T.);
#928 = VERTEX_POINT('',#929);
#929 = CARTESIAN_POINT('',(1.174261651476,8.210800678397,-53.4));
#930 = CIRCLE('',#931,0.4);
#931 = AXIS2_PLACEMENT_3D('',#932,#933,#934);
#932 = CARTESIAN_POINT('',(0.962262075474,8.549999999999,-53.4));
#933 = DIRECTION('',(0.,0.,1.));
#934 = DIRECTION('',(1.,0.,0.));
#935 = ORIENTED_EDGE('',*,*,#936,.T.);
#936 = EDGE_CURVE('',#928,#937,#939,.T.);
#937 = VERTEX_POINT('',#938);
#938 = CARTESIAN_POINT('',(-0.15,7.383137146224,-53.4));
#939 = LINE('',#940,#941);
#940 = CARTESIAN_POINT('',(-3.085473260354,5.548466358502,-53.4));
#941 = VECTOR('',#942,1.);
#942 = DIRECTION('',(-0.847998304005,-0.529998940003,0.));
#943 = ORIENTED_EDGE('',*,*,#944,.T.);
#944 = EDGE_CURVE('',#937,#945,#947,.T.);
#945 = VERTEX_POINT('',#946);
#946 = CARTESIAN_POINT('',(-0.15,6.34822809924,-53.4));
#947 = LINE('',#948,#949);
#948 = CARTESIAN_POINT('',(-0.15,6.990426082968E-15,-53.4));
#949 = VECTOR('',#950,1.);
#950 = DIRECTION('',(-9.680709345182E-17,-1.,0.));
#951 = ORIENTED_EDGE('',*,*,#952,.F.);
#952 = EDGE_CURVE('',#953,#945,#955,.T.);
#953 = VERTEX_POINT('',#954);
#954 = CARTESIAN_POINT('',(6.01668612142,2.030267991248,-53.4));
#955 = CIRCLE('',#956,6.349999999998);
#956 = AXIS2_PLACEMENT_3D('',#957,#958,#959);
#957 = CARTESIAN_POINT('',(-9.535959873191E-16,-1.51788304148E-15,-53.4)
  );
#958 = DIRECTION('',(0.,0.,1.));
#959 = DIRECTION('',(1.,0.,0.));
#960 = ORIENTED_EDGE('',*,*,#961,.F.);
#961 = EDGE_CURVE('',#962,#953,#964,.T.);
#962 = VERTEX_POINT('',#963);
#963 = CARTESIAN_POINT('',(6.989182516056,2.384227731827,-53.4));
#964 = LINE('',#965,#966);
#965 = CARTESIAN_POINT('',(0.388898499913,-1.80791877521E-02,-53.4));
#966 = VECTOR('',#967,1.);
#967 = DIRECTION('',(-0.939692620786,-0.342020143326,0.));
#968 = ORIENTED_EDGE('',*,*,#969,.F.);
#969 = EDGE_CURVE('',#970,#962,#972,.T.);
#970 = VERTEX_POINT('',#971);
#971 = CARTESIAN_POINT('',(7.314007669894,3.911704233607,-53.4));
#972 = LINE('',#973,#974);
#973 = CARTESIAN_POINT('',(6.218252241592,-1.241039168972,-53.4));
#974 = VECTOR('',#975,1.);
#975 = DIRECTION('',(-0.20800359147,-0.978128062135,0.));
#976 = ORIENTED_EDGE('',*,*,#977,.F.);
#977 = EDGE_CURVE('',#978,#970,#980,.T.);
#978 = VERTEX_POINT('',#979);
#979 = CARTESIAN_POINT('',(7.951493868864,4.143730234788,-53.4));
#980 = CIRCLE('',#981,0.4);
#981 = AXIS2_PLACEMENT_3D('',#982,#983,#984);
#982 = CARTESIAN_POINT('',(7.705258894748,3.828502797019,-53.4));
#983 = DIRECTION('',(0.,0.,1.));
#984 = DIRECTION('',(1.,0.,0.));
#985 = ORIENTED_EDGE('',*,*,#986,.F.);
#986 = EDGE_CURVE('',#888,#978,#987,.T.);
#987 = LINE('',#988,#989);
#988 = CARTESIAN_POINT('',(5.260869008546,6.245469688455,-53.4));
#989 = VECTOR('',#990,1.);
#990 = DIRECTION('',(-0.788068594421,0.61558743529,0.));
#991 = ORIENTED_EDGE('',*,*,#887,.F.);
#992 = ORIENTED_EDGE('',*,*,#474,.T.);
#993 = PLANE('',#994);
#994 = AXIS2_PLACEMENT_3D('',#995,#996,#997);
#995 = CARTESIAN_POINT('',(0.382318213712,6.938893903907E-15,-53.4));
#996 = DIRECTION('',(0.,0.,1.));
#997 = DIRECTION('',(1.,0.,0.));
#998 = ADVANCED_FACE('',(#999),#1010,.F.);
#999 = FACE_BOUND('',#1000,.T.);
#1000 = EDGE_LOOP('',(#1001,#1002,#1003,#1009));
#1001 = ORIENTED_EDGE('',*,*,#483,.T.);
#1002 = ORIENTED_EDGE('',*,*,#729,.T.);
#1003 = ORIENTED_EDGE('',*,*,#1004,.F.);
#1004 = EDGE_CURVE('',#912,#722,#1005,.T.);
#1005 = LINE('',#1006,#1007);
#1006 = CARTESIAN_POINT('',(-0.15,9.716862853774,-53.4));
#1007 = VECTOR('',#1008,1.);
#1008 = DIRECTION('',(0.,0.,1.));
#1009 = ORIENTED_EDGE('',*,*,#911,.F.);
#1010 = PLANE('',#1011);
#1011 = AXIS2_PLACEMENT_3D('',#1012,#1013,#1014);
#1012 = CARTESIAN_POINT('',(-0.15,11.15,-53.4));
#1013 = DIRECTION('',(-1.,0.,0.));
#1014 = DIRECTION('',(0.,0.,1.));
#1015 = ADVANCED_FACE('',(#1016),#1027,.T.);
#1016 = FACE_BOUND('',#1017,.T.);
#1017 = EDGE_LOOP('',(#1018,#1019,#1025,#1026));
#1018 = ORIENTED_EDGE('',*,*,#854,.T.);
#1019 = ORIENTED_EDGE('',*,*,#1020,.T.);
#1020 = EDGE_CURVE('',#847,#551,#1021,.T.);
#1021 = LINE('',#1022,#1023);
#1022 = CARTESIAN_POINT('',(-7.34713065223,6.360785713897,-53.4));
#1023 = VECTOR('',#1024,1.);
#1024 = DIRECTION('',(0.,0.,1.));
#1025 = ORIENTED_EDGE('',*,*,#736,.F.);
#1026 = ORIENTED_EDGE('',*,*,#501,.F.);
#1027 = PLANE('',#1028);
#1028 = AXIS2_PLACEMENT_3D('',#1029,#1030,#1031);
#1029 = CARTESIAN_POINT('',(-8.444977399324,7.281988514473,-53.4));
#1030 = DIRECTION('',(-0.642787609687,-0.766044443119,0.));
#1031 = DIRECTION('',(0.766044443119,-0.642787609687,0.));
#1032 = ADVANCED_FACE('',(#1033),#1051,.T.);
#1033 = FACE_BOUND('',#1034,.T.);
#1034 = EDGE_LOOP('',(#1035,#1036,#1043,#1050));
#1035 = ORIENTED_EDGE('',*,*,#539,.T.);
#1036 = ORIENTED_EDGE('',*,*,#1037,.T.);
#1037 = EDGE_CURVE('',#540,#1038,#1040,.T.);
#1038 = VERTEX_POINT('',#1039);
#1039 = CARTESIAN_POINT('',(6.2,0.,-35.7));
#1040 = B_SPLINE_CURVE_WITH_KNOTS('',1,(#1041,#1042),.UNSPECIFIED.,.F.,
  .F.,(2,2),(-33.68730887663,-31.68730887663),.PIECEWISE_BEZIER_KNOTS.);
#1041 = CARTESIAN_POINT('',(6.2,0.,-37.7));
#1042 = CARTESIAN_POINT('',(6.2,0.,-35.7));
#1043 = ORIENTED_EDGE('',*,*,#1044,.F.);
#1044 = EDGE_CURVE('',#1038,#1038,#1045,.T.);
#1045 = CIRCLE('',#1046,6.2);
#1046 = AXIS2_PLACEMENT_3D('',#1047,#1048,#1049);
#1047 = CARTESIAN_POINT('',(0.,0.,-35.7));
#1048 = DIRECTION('',(0.,0.,1.));
#1049 = DIRECTION('',(1.,0.,0.));
#1050 = ORIENTED_EDGE('',*,*,#1037,.F.);
#1051 = CYLINDRICAL_SURFACE('',#1052,6.2);
#1052 = AXIS2_PLACEMENT_3D('',#1053,#1054,#1055);
#1053 = CARTESIAN_POINT('',(0.,0.,-4.01269112337));
#1054 = DIRECTION('',(0.,0.,1.));
#1055 = DIRECTION('',(1.,0.,0.));
#1056 = ADVANCED_FACE('',(#1057),#1068,.T.);
#1057 = FACE_BOUND('',#1058,.T.);
#1058 = EDGE_LOOP('',(#1059,#1060,#1066,#1067));
#1059 = ORIENTED_EDGE('',*,*,#846,.T.);
#1060 = ORIENTED_EDGE('',*,*,#1061,.T.);
#1061 = EDGE_CURVE('',#838,#553,#1062,.T.);
#1062 = LINE('',#1063,#1064);
#1063 = CARTESIAN_POINT('',(-7.564322584188,4.814330571079,-53.4));
#1064 = VECTOR('',#1065,1.);
#1065 = DIRECTION('',(0.,0.,1.));
#1066 = ORIENTED_EDGE('',*,*,#550,.F.);
#1067 = ORIENTED_EDGE('',*,*,#1020,.F.);
#1068 = PLANE('',#1069);
#1069 = AXIS2_PLACEMENT_3D('',#1070,#1071,#1072);
#1070 = CARTESIAN_POINT('',(-7.522703204252,5.110669866755,-53.4));
#1071 = DIRECTION('',(-0.990281140339,0.139080060001,0.));
#1072 = DIRECTION('',(-0.139080060001,-0.990281140339,0.));
#1073 = ADVANCED_FACE('',(#1074),#1085,.T.);
#1074 = FACE_BOUND('',#1075,.T.);
#1075 = EDGE_LOOP('',(#1076,#1077,#1083,#1084));
#1076 = ORIENTED_EDGE('',*,*,#837,.T.);
#1077 = ORIENTED_EDGE('',*,*,#1078,.T.);
#1078 = EDGE_CURVE('',#830,#561,#1079,.T.);
#1079 = LINE('',#1080,#1081);
#1080 = CARTESIAN_POINT('',(-7.044639073342,4.378264328799,-53.4));
#1081 = VECTOR('',#1082,1.);
#1082 = DIRECTION('',(0.,0.,1.));
#1083 = ORIENTED_EDGE('',*,*,#560,.F.);
#1084 = ORIENTED_EDGE('',*,*,#1061,.F.);
#1085 = CYLINDRICAL_SURFACE('',#1086,0.4);
#1086 = AXIS2_PLACEMENT_3D('',#1087,#1088,#1089);
#1087 = CARTESIAN_POINT('',(-7.168210128053,4.758698547078,-53.4));
#1088 = DIRECTION('',(0.,0.,1.));
#1089 = DIRECTION('',(1.,0.,0.));
#1090 = ADVANCED_FACE('',(#1091),#1102,.T.);
#1091 = FACE_BOUND('',#1092,.T.);
#1092 = EDGE_LOOP('',(#1093,#1094,#1095,#1096));
#1093 = ORIENTED_EDGE('',*,*,#569,.F.);
#1094 = ORIENTED_EDGE('',*,*,#1078,.F.);
#1095 = ORIENTED_EDGE('',*,*,#829,.T.);
#1096 = ORIENTED_EDGE('',*,*,#1097,.T.);
#1097 = EDGE_CURVE('',#822,#570,#1098,.T.);
#1098 = LINE('',#1099,#1100);
#1099 = CARTESIAN_POINT('',(-5.559393042198,4.860695744677,-53.4));
#1100 = VECTOR('',#1101,1.);
#1101 = DIRECTION('',(0.,0.,1.));
#1102 = PLANE('',#1103);
#1103 = AXIS2_PLACEMENT_3D('',#1104,#1105,#1106);
#1104 = CARTESIAN_POINT('',(-6.76002896692,4.470710195501,-53.4));
#1105 = DIRECTION('',(0.308927636776,-0.951085545698,0.));
#1106 = DIRECTION('',(0.951085545698,0.308927636776,0.));
#1107 = ADVANCED_FACE('',(#1108),#1119,.T.);
#1108 = FACE_BOUND('',#1109,.T.);
#1109 = EDGE_LOOP('',(#1110,#1111,#1112,#1113));
#1110 = ORIENTED_EDGE('',*,*,#577,.F.);
#1111 = ORIENTED_EDGE('',*,*,#1097,.F.);
#1112 = ORIENTED_EDGE('',*,*,#821,.T.);
#1113 = ORIENTED_EDGE('',*,*,#1114,.T.);
#1114 = EDGE_CURVE('',#813,#578,#1115,.T.);
#1115 = LINE('',#1116,#1117);
#1116 = CARTESIAN_POINT('',(-4.766606717622,4.195469032123,-53.4));
#1117 = VECTOR('',#1118,1.);
#1118 = DIRECTION('',(0.,0.,1.));
#1119 = PLANE('',#1120);
#1120 = AXIS2_PLACEMENT_3D('',#1121,#1122,#1123);
#1121 = CARTESIAN_POINT('',(-5.189288516067,4.550141173304,-53.4));
#1122 = DIRECTION('',(-0.642787609687,-0.766044443119,0.));
#1123 = DIRECTION('',(0.766044443119,-0.642787609687,0.));
#1124 = ADVANCED_FACE('',(#1125),#1136,.T.);
#1125 = FACE_BOUND('',#1126,.T.);
#1126 = EDGE_LOOP('',(#1127,#1128,#1129,#1130));
#1127 = ORIENTED_EDGE('',*,*,#585,.F.);
#1128 = ORIENTED_EDGE('',*,*,#1114,.F.);
#1129 = ORIENTED_EDGE('',*,*,#812,.T.);
#1130 = ORIENTED_EDGE('',*,*,#1131,.T.);
#1131 = EDGE_CURVE('',#805,#586,#1132,.T.);
#1132 = LINE('',#1133,#1134);
#1133 = CARTESIAN_POINT('',(-5.42272680296,-3.304017860188,-53.4));
#1134 = VECTOR('',#1135,1.);
#1135 = DIRECTION('',(0.,0.,1.));
#1136 = CYLINDRICAL_SURFACE('',#1137,6.349999999998);
#1137 = AXIS2_PLACEMENT_3D('',#1138,#1139,#1140);
#1138 = CARTESIAN_POINT('',(1.791323267555E-15,-6.689682922542E-17,-53.4
    ));
#1139 = DIRECTION('',(0.,0.,1.));
#1140 = DIRECTION('',(-0.5,0.866025403784,0.));
#1141 = ADVANCED_FACE('',(#1142),#1153,.F.);
#1142 = FACE_BOUND('',#1143,.T.);
#1143 = EDGE_LOOP('',(#1144,#1145,#1146,#1147));
#1144 = ORIENTED_EDGE('',*,*,#594,.T.);
#1145 = ORIENTED_EDGE('',*,*,#1131,.F.);
#1146 = ORIENTED_EDGE('',*,*,#804,.F.);
#1147 = ORIENTED_EDGE('',*,*,#1148,.T.);
#1148 = EDGE_CURVE('',#797,#595,#1149,.T.);
#1149 = LINE('',#1150,#1151);
#1150 = CARTESIAN_POINT('',(-6.318984328255,-3.82147238368,-53.4));
#1151 = VECTOR('',#1152,1.);
#1152 = DIRECTION('',(0.,0.,1.));
#1153 = PLANE('',#1154);
#1154 = AXIS2_PLACEMENT_3D('',#1155,#1156,#1157);
#1155 = CARTESIAN_POINT('',(-5.900575286111,-3.579903810567,-53.4));
#1156 = DIRECTION('',(0.5,-0.866025403784,0.));
#1157 = DIRECTION('',(0.866025403784,0.5,0.));
#1158 = ADVANCED_FACE('',(#1159),#1170,.F.);
#1159 = FACE_BOUND('',#1160,.T.);
#1160 = EDGE_LOOP('',(#1161,#1162,#1168,#1169));
#1161 = ORIENTED_EDGE('',*,*,#796,.F.);
#1162 = ORIENTED_EDGE('',*,*,#1163,.T.);
#1163 = EDGE_CURVE('',#788,#603,#1164,.T.);
#1164 = LINE('',#1165,#1166);
#1165 = CARTESIAN_POINT('',(-7.69789279864,-3.088459918331,-53.4));
#1166 = VECTOR('',#1167,1.);
#1167 = DIRECTION('',(0.,0.,1.));
#1168 = ORIENTED_EDGE('',*,*,#602,.T.);
#1169 = ORIENTED_EDGE('',*,*,#1148,.F.);
#1170 = PLANE('',#1171);
#1171 = AXIS2_PLACEMENT_3D('',#1172,#1173,#1174);
#1172 = CARTESIAN_POINT('',(-7.433659615536,-3.228923350919,-53.4));
#1173 = DIRECTION('',(-0.469388603633,-0.882991698024,0.));
#1174 = DIRECTION('',(0.882991698024,-0.469388603633,0.));
#1175 = ADVANCED_FACE('',(#1176),#1187,.T.);
#1176 = FACE_BOUND('',#1177,.T.);
#1177 = EDGE_LOOP('',(#1178,#1179,#1185,#1186));
#1178 = ORIENTED_EDGE('',*,*,#787,.T.);
#1179 = ORIENTED_EDGE('',*,*,#1180,.T.);
#1180 = EDGE_CURVE('',#780,#611,#1181,.T.);
#1181 = LINE('',#1182,#1183);
#1182 = CARTESIAN_POINT('',(-8.285403257548,-3.427659239933,-53.4));
#1183 = VECTOR('',#1184,1.);
#1184 = DIRECTION('',(0.,0.,1.));
#1185 = ORIENTED_EDGE('',*,*,#610,.F.);
#1186 = ORIENTED_EDGE('',*,*,#1163,.F.);
#1187 = CYLINDRICAL_SURFACE('',#1188,0.4);
#1188 = AXIS2_PLACEMENT_3D('',#1189,#1190,#1191);
#1189 = CARTESIAN_POINT('',(-7.885648240093,-3.441656597541,-53.4));
#1190 = DIRECTION('',(0.,0.,1.));
#1191 = DIRECTION('',(1.,0.,0.));
#1192 = ADVANCED_FACE('',(#1193),#1199,.F.);
#1193 = FACE_BOUND('',#1194,.T.);
#1194 = EDGE_LOOP('',(#1195,#1196,#1197,#1198));
#1195 = ORIENTED_EDGE('',*,*,#619,.T.);
#1196 = ORIENTED_EDGE('',*,*,#1180,.F.);
#1197 = ORIENTED_EDGE('',*,*,#779,.F.);
#1198 = ORIENTED_EDGE('',*,*,#872,.T.);
#1199 = PLANE('',#1200);
#1200 = AXIS2_PLACEMENT_3D('',#1201,#1202,#1203);
#1201 = CARTESIAN_POINT('',(-8.295874948176,-3.726723605318,-53.4));
#1202 = DIRECTION('',(0.999387543636,-3.499339401933E-02,0.));
#1203 = DIRECTION('',(3.499339401933E-02,0.999387543636,0.));
#1204 = ADVANCED_FACE('',(#1205),#1216,.T.);
#1205 = FACE_BOUND('',#1206,.T.);
#1206 = EDGE_LOOP('',(#1207,#1208,#1214,#1215));
#1207 = ORIENTED_EDGE('',*,*,#986,.T.);
#1208 = ORIENTED_EDGE('',*,*,#1209,.T.);
#1209 = EDGE_CURVE('',#978,#655,#1210,.T.);
#1210 = LINE('',#1211,#1212);
#1211 = CARTESIAN_POINT('',(7.951493868864,4.143730234788,-53.4));
#1212 = VECTOR('',#1213,1.);
#1213 = DIRECTION('',(0.,0.,1.));
#1214 = ORIENTED_EDGE('',*,*,#654,.F.);
#1215 = ORIENTED_EDGE('',*,*,#895,.F.);
#1216 = PLANE('',#1217);
#1217 = AXIS2_PLACEMENT_3D('',#1218,#1219,#1220);
#1218 = CARTESIAN_POINT('',(8.187321537091,3.959517146636,-53.4));
#1219 = DIRECTION('',(0.61558743529,0.788068594421,0.));
#1220 = DIRECTION('',(-0.788068594421,0.61558743529,0.));
#1221 = ADVANCED_FACE('',(#1222),#1233,.T.);
#1222 = FACE_BOUND('',#1223,.T.);
#1223 = EDGE_LOOP('',(#1224,#1225,#1231,#1232));
#1224 = ORIENTED_EDGE('',*,*,#977,.T.);
#1225 = ORIENTED_EDGE('',*,*,#1226,.T.);
#1226 = EDGE_CURVE('',#970,#663,#1227,.T.);
#1227 = LINE('',#1228,#1229);
#1228 = CARTESIAN_POINT('',(7.314007669894,3.911704233607,-53.4));
#1229 = VECTOR('',#1230,1.);
#1230 = DIRECTION('',(0.,0.,1.));
#1231 = ORIENTED_EDGE('',*,*,#662,.F.);
#1232 = ORIENTED_EDGE('',*,*,#1209,.F.);
#1233 = CYLINDRICAL_SURFACE('',#1234,0.4);
#1234 = AXIS2_PLACEMENT_3D('',#1235,#1236,#1237);
#1235 = CARTESIAN_POINT('',(7.705258894748,3.828502797019,-53.4));
#1236 = DIRECTION('',(0.,0.,1.));
#1237 = DIRECTION('',(1.,0.,0.));
#1238 = ADVANCED_FACE('',(#1239),#1250,.T.);
#1239 = FACE_BOUND('',#1240,.T.);
#1240 = EDGE_LOOP('',(#1241,#1242,#1243,#1244));
#1241 = ORIENTED_EDGE('',*,*,#671,.F.);
#1242 = ORIENTED_EDGE('',*,*,#1226,.F.);
#1243 = ORIENTED_EDGE('',*,*,#969,.T.);
#1244 = ORIENTED_EDGE('',*,*,#1245,.T.);
#1245 = EDGE_CURVE('',#962,#672,#1246,.T.);
#1246 = LINE('',#1247,#1248);
#1247 = CARTESIAN_POINT('',(6.989182516056,2.384227731827,-53.4));
#1248 = VECTOR('',#1249,1.);
#1249 = DIRECTION('',(0.,0.,1.));
#1250 = PLANE('',#1251);
#1251 = AXIS2_PLACEMENT_3D('',#1252,#1253,#1254);
#1252 = CARTESIAN_POINT('',(7.251763085722,3.619001717921,-53.4));
#1253 = DIRECTION('',(-0.978128062135,0.20800359147,0.));
#1254 = DIRECTION('',(-0.20800359147,-0.978128062135,0.));
#1255 = ADVANCED_FACE('',(#1256),#1267,.T.);
#1256 = FACE_BOUND('',#1257,.T.);
#1257 = EDGE_LOOP('',(#1258,#1259,#1260,#1261));
#1258 = ORIENTED_EDGE('',*,*,#679,.F.);
#1259 = ORIENTED_EDGE('',*,*,#1245,.F.);
#1260 = ORIENTED_EDGE('',*,*,#961,.T.);
#1261 = ORIENTED_EDGE('',*,*,#1262,.T.);
#1262 = EDGE_CURVE('',#953,#680,#1263,.T.);
#1263 = LINE('',#1264,#1265);
#1264 = CARTESIAN_POINT('',(6.01668612142,2.030267991248,-53.4));
#1265 = VECTOR('',#1266,1.);
#1266 = DIRECTION('',(0.,0.,1.));
#1267 = PLANE('',#1268);
#1268 = AXIS2_PLACEMENT_3D('',#1269,#1270,#1271);
#1269 = CARTESIAN_POINT('',(6.53518210492,2.218985095829,-53.4));
#1270 = DIRECTION('',(-0.342020143326,0.939692620786,0.));
#1271 = DIRECTION('',(-0.939692620786,-0.342020143326,0.));
#1272 = ADVANCED_FACE('',(#1273),#1284,.T.);
#1273 = FACE_BOUND('',#1274,.T.);
#1274 = EDGE_LOOP('',(#1275,#1276,#1277,#1278));
#1275 = ORIENTED_EDGE('',*,*,#687,.F.);
#1276 = ORIENTED_EDGE('',*,*,#1262,.F.);
#1277 = ORIENTED_EDGE('',*,*,#952,.T.);
#1278 = ORIENTED_EDGE('',*,*,#1279,.T.);
#1279 = EDGE_CURVE('',#945,#688,#1280,.T.);
#1280 = LINE('',#1281,#1282);
#1281 = CARTESIAN_POINT('',(-0.15,6.34822809924,-53.4));
#1282 = VECTOR('',#1283,1.);
#1283 = DIRECTION('',(0.,0.,1.));
#1284 = CYLINDRICAL_SURFACE('',#1285,6.349999999998);
#1285 = AXIS2_PLACEMENT_3D('',#1286,#1287,#1288);
#1286 = CARTESIAN_POINT('',(-9.535959873191E-16,-1.51788304148E-15,-53.4
    ));
#1287 = DIRECTION('',(0.,0.,1.));
#1288 = DIRECTION('',(1.,0.,0.));
#1289 = ADVANCED_FACE('',(#1290),#1301,.F.);
#1290 = FACE_BOUND('',#1291,.T.);
#1291 = EDGE_LOOP('',(#1292,#1293,#1294,#1295));
#1292 = ORIENTED_EDGE('',*,*,#696,.T.);
#1293 = ORIENTED_EDGE('',*,*,#1279,.F.);
#1294 = ORIENTED_EDGE('',*,*,#944,.F.);
#1295 = ORIENTED_EDGE('',*,*,#1296,.T.);
#1296 = EDGE_CURVE('',#937,#697,#1297,.T.);
#1297 = LINE('',#1298,#1299);
#1298 = CARTESIAN_POINT('',(-0.15,7.383137146224,-53.4));
#1299 = VECTOR('',#1300,1.);
#1300 = DIRECTION('',(0.,0.,1.));
#1301 = PLANE('',#1302);
#1302 = AXIS2_PLACEMENT_3D('',#1303,#1304,#1305);
#1303 = CARTESIAN_POINT('',(-0.15,6.899999999998,-53.4));
#1304 = DIRECTION('',(-1.,9.680709345182E-17,0.));
#1305 = DIRECTION('',(-9.680709345182E-17,-1.,0.));
#1306 = ADVANCED_FACE('',(#1307),#1318,.F.);
#1307 = FACE_BOUND('',#1308,.T.);
#1308 = EDGE_LOOP('',(#1309,#1310,#1316,#1317));
#1309 = ORIENTED_EDGE('',*,*,#936,.F.);
#1310 = ORIENTED_EDGE('',*,*,#1311,.T.);
#1311 = EDGE_CURVE('',#928,#705,#1312,.T.);
#1312 = LINE('',#1313,#1314);
#1313 = CARTESIAN_POINT('',(1.174261651476,8.210800678397,-53.4));
#1314 = VECTOR('',#1315,1.);
#1315 = DIRECTION('',(0.,0.,1.));
#1316 = ORIENTED_EDGE('',*,*,#704,.T.);
#1317 = ORIENTED_EDGE('',*,*,#1296,.F.);
#1318 = PLANE('',#1319);
#1319 = AXIS2_PLACEMENT_3D('',#1320,#1321,#1322);
#1320 = CARTESIAN_POINT('',(0.920500158999,8.0521997456,-53.4));
#1321 = DIRECTION('',(-0.529998940003,0.847998304005,0.));
#1322 = DIRECTION('',(-0.847998304005,-0.529998940003,0.));
#1323 = ADVANCED_FACE('',(#1324),#1335,.T.);
#1324 = FACE_BOUND('',#1325,.T.);
#1325 = EDGE_LOOP('',(#1326,#1327,#1333,#1334));
#1326 = ORIENTED_EDGE('',*,*,#927,.T.);
#1327 = ORIENTED_EDGE('',*,*,#1328,.T.);
#1328 = EDGE_CURVE('',#920,#713,#1329,.T.);
#1329 = LINE('',#1330,#1331);
#1330 = CARTESIAN_POINT('',(1.174261651476,8.889199321601,-53.4));
#1331 = VECTOR('',#1332,1.);
#1332 = DIRECTION('',(0.,0.,1.));
#1333 = ORIENTED_EDGE('',*,*,#712,.F.);
#1334 = ORIENTED_EDGE('',*,*,#1311,.F.);
#1335 = CYLINDRICAL_SURFACE('',#1336,0.4);
#1336 = AXIS2_PLACEMENT_3D('',#1337,#1338,#1339);
#1337 = CARTESIAN_POINT('',(0.962262075474,8.549999999999,-53.4));
#1338 = DIRECTION('',(0.,0.,1.));
#1339 = DIRECTION('',(1.,0.,0.));
#1340 = ADVANCED_FACE('',(#1341),#1347,.F.);
#1341 = FACE_BOUND('',#1342,.T.);
#1342 = EDGE_LOOP('',(#1343,#1344,#1345,#1346));
#1343 = ORIENTED_EDGE('',*,*,#721,.T.);
#1344 = ORIENTED_EDGE('',*,*,#1328,.F.);
#1345 = ORIENTED_EDGE('',*,*,#919,.F.);
#1346 = ORIENTED_EDGE('',*,*,#1004,.T.);
#1347 = PLANE('',#1348);
#1348 = AXIS2_PLACEMENT_3D('',#1349,#1350,#1351);
#1349 = CARTESIAN_POINT('',(0.920500158999,9.047800254399,-53.4));
#1350 = DIRECTION('',(-0.529998940003,-0.847998304005,0.));
#1351 = DIRECTION('',(0.847998304005,-0.529998940003,0.));
#1352 = ADVANCED_FACE('',(#1353),#1371,.F.);
#1353 = FACE_BOUND('',#1354,.F.);
#1354 = EDGE_LOOP('',(#1355,#1364,#1369,#1370));
#1355 = ORIENTED_EDGE('',*,*,#1356,.F.);
#1356 = EDGE_CURVE('',#1357,#1357,#1359,.T.);
#1357 = VERTEX_POINT('',#1358);
#1358 = CARTESIAN_POINT('',(5.,0.,-45.5));
#1359 = CIRCLE('',#1360,5.);
#1360 = AXIS2_PLACEMENT_3D('',#1361,#1362,#1363);
#1361 = CARTESIAN_POINT('',(0.,0.,-45.5));
#1362 = DIRECTION('',(0.,0.,1.));
#1363 = DIRECTION('',(1.,0.,0.));
#1364 = ORIENTED_EDGE('',*,*,#1365,.F.);
#1365 = EDGE_CURVE('',#751,#1357,#1366,.T.);
#1366 = B_SPLINE_CURVE_WITH_KNOTS('',1,(#1367,#1368),.UNSPECIFIED.,.F.,
  .F.,(2,2),(-54.98730887663,-41.48730887663),.PIECEWISE_BEZIER_KNOTS.);
#1367 = CARTESIAN_POINT('',(5.,-1.224646799147E-15,-59.));
#1368 = CARTESIAN_POINT('',(5.,-1.224646799147E-15,-45.5));
#1369 = ORIENTED_EDGE('',*,*,#750,.T.);
#1370 = ORIENTED_EDGE('',*,*,#1365,.T.);
#1371 = CYLINDRICAL_SURFACE('',#1372,5.);
#1372 = AXIS2_PLACEMENT_3D('',#1373,#1374,#1375);
#1373 = CARTESIAN_POINT('',(0.,0.,-4.01269112337));
#1374 = DIRECTION('',(0.,0.,1.));
#1375 = DIRECTION('',(1.,0.,0.));
#1376 = ADVANCED_FACE('',(#1377,#1380),#1391,.T.);
#1377 = FACE_BOUND('',#1378,.T.);
#1378 = EDGE_LOOP('',(#1379));
#1379 = ORIENTED_EDGE('',*,*,#1044,.T.);
#1380 = FACE_BOUND('',#1381,.T.);
#1381 = EDGE_LOOP('',(#1382));
#1382 = ORIENTED_EDGE('',*,*,#1383,.F.);
#1383 = EDGE_CURVE('',#1384,#1384,#1386,.T.);
#1384 = VERTEX_POINT('',#1385);
#1385 = CARTESIAN_POINT('',(4.6,0.,-35.7));
#1386 = CIRCLE('',#1387,4.6);
#1387 = AXIS2_PLACEMENT_3D('',#1388,#1389,#1390);
#1388 = CARTESIAN_POINT('',(0.,0.,-35.7));
#1389 = DIRECTION('',(0.,0.,1.));
#1390 = DIRECTION('',(1.,0.,0.));
#1391 = PLANE('',#1392);
#1392 = AXIS2_PLACEMENT_3D('',#1393,#1394,#1395);
#1393 = CARTESIAN_POINT('',(5.4,0.,-35.7));
#1394 = DIRECTION('',(0.,0.,1.));
#1395 = DIRECTION('',(1.,0.,0.));
#1396 = ADVANCED_FACE('',(#1397,#1408),#1411,.T.);
#1397 = FACE_BOUND('',#1398,.T.);
#1398 = EDGE_LOOP('',(#1399));
#1399 = ORIENTED_EDGE('',*,*,#1400,.F.);
#1400 = EDGE_CURVE('',#1401,#1401,#1403,.T.);
#1401 = VERTEX_POINT('',#1402);
#1402 = CARTESIAN_POINT('',(-3.2,0.,-45.5));
#1403 = CIRCLE('',#1404,3.2);
#1404 = AXIS2_PLACEMENT_3D('',#1405,#1406,#1407);
#1405 = CARTESIAN_POINT('',(0.,0.,-45.5));
#1406 = DIRECTION('',(0.,0.,-1.));
#1407 = DIRECTION('',(-1.,0.,0.));
#1408 = FACE_BOUND('',#1409,.T.);
#1409 = EDGE_LOOP('',(#1410));
#1410 = ORIENTED_EDGE('',*,*,#1356,.F.);
#1411 = PLANE('',#1412);
#1412 = AXIS2_PLACEMENT_3D('',#1413,#1414,#1415);
#1413 = CARTESIAN_POINT('',(3.55,0.,-45.5));
#1414 = DIRECTION('',(0.,0.,-1.));
#1415 = DIRECTION('',(-1.,0.,0.));
#1416 = ADVANCED_FACE('',(#1417),#1444,.F.);
#1417 = FACE_BOUND('',#1418,.F.);
#1418 = EDGE_LOOP('',(#1419,#1430,#1435,#1436,#1437));
#1419 = ORIENTED_EDGE('',*,*,#1420,.T.);
#1420 = EDGE_CURVE('',#1421,#1423,#1425,.T.);
#1421 = VERTEX_POINT('',#1422);
#1422 = CARTESIAN_POINT('',(2.6,-6.368163355567E-16,-44.9));
#1423 = VERTEX_POINT('',#1424);
#1424 = CARTESIAN_POINT('',(-2.6,0.,-44.9));
#1425 = CIRCLE('',#1426,2.6);
#1426 = AXIS2_PLACEMENT_3D('',#1427,#1428,#1429);
#1427 = CARTESIAN_POINT('',(0.,0.,-44.9));
#1428 = DIRECTION('',(0.,0.,-1.));
#1429 = DIRECTION('',(-1.,0.,0.));
#1430 = ORIENTED_EDGE('',*,*,#1431,.T.);
#1431 = EDGE_CURVE('',#1423,#1401,#1432,.T.);
#1432 = B_SPLINE_CURVE_WITH_KNOTS('',1,(#1433,#1434),.UNSPECIFIED.,.F.,
  .F.,(2,2),(-0.848528137424,0.),.PIECEWISE_BEZIER_KNOTS.);
#1433 = CARTESIAN_POINT('',(-2.6,0.,-44.9));
#1434 = CARTESIAN_POINT('',(-3.2,0.,-45.5));
#1435 = ORIENTED_EDGE('',*,*,#1400,.F.);
#1436 = ORIENTED_EDGE('',*,*,#1431,.F.);
#1437 = ORIENTED_EDGE('',*,*,#1438,.T.);
#1438 = EDGE_CURVE('',#1423,#1421,#1439,.T.);
#1439 = CIRCLE('',#1440,2.6);
#1440 = AXIS2_PLACEMENT_3D('',#1441,#1442,#1443);
#1441 = CARTESIAN_POINT('',(0.,0.,-44.9));
#1442 = DIRECTION('',(0.,0.,-1.));
#1443 = DIRECTION('',(-1.,0.,0.));
#1444 = CONICAL_SURFACE('',#1445,3.2,0.785398163397);
#1445 = AXIS2_PLACEMENT_3D('',#1446,#1447,#1448);
#1446 = CARTESIAN_POINT('',(0.,0.,-45.5));
#1447 = DIRECTION('',(0.,0.,-1.));
#1448 = DIRECTION('',(-1.,0.,0.));
#1449 = ADVANCED_FACE('',(#1450),#1468,.T.);
#1450 = FACE_BOUND('',#1451,.T.);
#1451 = EDGE_LOOP('',(#1452,#1453,#1460,#1467));
#1452 = ORIENTED_EDGE('',*,*,#1383,.T.);
#1453 = ORIENTED_EDGE('',*,*,#1454,.T.);
#1454 = EDGE_CURVE('',#1384,#1455,#1457,.T.);
#1455 = VERTEX_POINT('',#1456);
#1456 = CARTESIAN_POINT('',(4.6,-1.126675055216E-15,-34.2));
#1457 = B_SPLINE_CURVE_WITH_KNOTS('',1,(#1458,#1459),.UNSPECIFIED.,.F.,
  .F.,(2,2),(-31.68730887663,-30.18730887663),.PIECEWISE_BEZIER_KNOTS.);
#1458 = CARTESIAN_POINT('',(4.6,0.,-35.7));
#1459 = CARTESIAN_POINT('',(4.6,0.,-34.2));
#1460 = ORIENTED_EDGE('',*,*,#1461,.F.);
#1461 = EDGE_CURVE('',#1455,#1455,#1462,.T.);
#1462 = CIRCLE('',#1463,4.6);
#1463 = AXIS2_PLACEMENT_3D('',#1464,#1465,#1466);
#1464 = CARTESIAN_POINT('',(0.,0.,-34.2));
#1465 = DIRECTION('',(0.,0.,1.));
#1466 = DIRECTION('',(1.,0.,0.));
#1467 = ORIENTED_EDGE('',*,*,#1454,.F.);
#1468 = CYLINDRICAL_SURFACE('',#1469,4.6);
#1469 = AXIS2_PLACEMENT_3D('',#1470,#1471,#1472);
#1470 = CARTESIAN_POINT('',(0.,0.,-4.01269112337));
#1471 = DIRECTION('',(0.,0.,1.));
#1472 = DIRECTION('',(1.,0.,0.));
#1473 = ADVANCED_FACE('',(#1474,#1477),#1488,.T.);
#1474 = FACE_BOUND('',#1475,.T.);
#1475 = EDGE_LOOP('',(#1476));
#1476 = ORIENTED_EDGE('',*,*,#1461,.T.);
#1477 = FACE_BOUND('',#1478,.T.);
#1478 = EDGE_LOOP('',(#1479));
#1479 = ORIENTED_EDGE('',*,*,#1480,.F.);
#1480 = EDGE_CURVE('',#1481,#1481,#1483,.T.);
#1481 = VERTEX_POINT('',#1482);
#1482 = CARTESIAN_POINT('',(2.6,-6.368163355566E-16,-34.2));
#1483 = CIRCLE('',#1484,2.6);
#1484 = AXIS2_PLACEMENT_3D('',#1485,#1486,#1487);
#1485 = CARTESIAN_POINT('',(0.,0.,-34.2));
#1486 = DIRECTION('',(0.,0.,1.));
#1487 = DIRECTION('',(1.,0.,0.));
#1488 = PLANE('',#1489);
#1489 = AXIS2_PLACEMENT_3D('',#1490,#1491,#1492);
#1490 = CARTESIAN_POINT('',(0.,0.,-34.2));
#1491 = DIRECTION('',(0.,0.,1.));
#1492 = DIRECTION('',(1.,0.,0.));
#1493 = ADVANCED_FACE('',(#1494),#1505,.F.);
#1494 = FACE_BOUND('',#1495,.F.);
#1495 = EDGE_LOOP('',(#1496,#1497,#1502,#1503,#1504));
#1496 = ORIENTED_EDGE('',*,*,#1420,.F.);
#1497 = ORIENTED_EDGE('',*,*,#1498,.T.);
#1498 = EDGE_CURVE('',#1421,#1481,#1499,.T.);
#1499 = B_SPLINE_CURVE_WITH_KNOTS('',1,(#1500,#1501),.UNSPECIFIED.,.F.,
  .F.,(2,2),(-40.88730887663,-30.18730887663),.PIECEWISE_BEZIER_KNOTS.);
#1500 = CARTESIAN_POINT('',(2.6,0.,-44.9));
#1501 = CARTESIAN_POINT('',(2.6,0.,-34.2));
#1502 = ORIENTED_EDGE('',*,*,#1480,.F.);
#1503 = ORIENTED_EDGE('',*,*,#1498,.F.);
#1504 = ORIENTED_EDGE('',*,*,#1438,.F.);
#1505 = CYLINDRICAL_SURFACE('',#1506,2.6);
#1506 = AXIS2_PLACEMENT_3D('',#1507,#1508,#1509);
#1507 = CARTESIAN_POINT('',(0.,0.,-4.01269112337));
#1508 = DIRECTION('',(0.,0.,1.));
#1509 = DIRECTION('',(1.,0.,0.));
#1510 = ( GEOMETRIC_REPRESENTATION_CONTEXT(3) 
GLOBAL_UNCERTAINTY_ASSIGNED_CONTEXT((#1514)) 
GLOBAL_UNIT_ASSIGNED_CONTEXT((#1511,#1512,#1513)) REPRESENTATION_CONTEXT
('Context #1','3D Context with UNIT and UNCERTAINTY') );
#1511 = ( LENGTH_UNIT() NAMED_UNIT(*) SI_UNIT(.MILLI.,.METRE.) );
#1512 = ( NAMED_UNIT(*) PLANE_ANGLE_UNIT() SI_UNIT($,.RADIAN.) );
#1513 = ( NAMED_UNIT(*) SI_UNIT($,.STERADIAN.) SOLID_ANGLE_UNIT() );
#1514 = UNCERTAINTY_MEASURE_WITH_UNIT(LENGTH_MEASURE(1.E-03),#1511,
  'distance_accuracy_value','confusion accuracy');
#1515 = PRODUCT_RELATED_PRODUCT_CATEGORY('part',$,(#7));
#1516 = MECHANICAL_DESIGN_GEOMETRIC_PRESENTATION_REPRESENTATION('',(
    #1517,#1530,#1538,#1545,#1552),#1510);
#1517 = STYLED_ITEM('color',(#1518),#15);
#1518 = PRESENTATION_STYLE_ASSIGNMENT((#1519,#1527));
#1519 = SURFACE_STYLE_USAGE(.BOTH.,#1520);
#1520 = SURFACE_SIDE_STYLE('',(#1521,#1525));
#1521 = SURFACE_STYLE_FILL_AREA(#1522);
#1522 = FILL_AREA_STYLE('',(#1523));
#1523 = FILL_AREA_STYLE_COLOUR('',#1524);
#1524 = DRAUGHTING_PRE_DEFINED_COLOUR('black');
#1525 = SURFACE_STYLE_RENDERING_WITH_PROPERTIES(.NORMAL_SHADING.,#1524,(
    #1526));
#1526 = SURFACE_STYLE_TRANSPARENT(0.699999988079);
#1527 = CURVE_STYLE('',#1528,POSITIVE_LENGTH_MEASURE(0.1),#1529);
#1528 = DRAUGHTING_PRE_DEFINED_CURVE_FONT('continuous');
#1529 = COLOUR_RGB('',9.803921802644E-02,9.803921802644E-02,
  9.803921802644E-02);
#1530 = OVER_RIDING_STYLED_ITEM('overriding color',(#1531),#1376,#1517);
#1531 = PRESENTATION_STYLE_ASSIGNMENT((#1532));
#1532 = SURFACE_STYLE_USAGE(.BOTH.,#1533);
#1533 = SURFACE_SIDE_STYLE('',(#1534));
#1534 = SURFACE_STYLE_FILL_AREA(#1535);
#1535 = FILL_AREA_STYLE('',(#1536));
#1536 = FILL_AREA_STYLE_COLOUR('',#1537);
#1537 = COLOUR_RGB('',0.678431390124,0.709803936702,0.741176476869);
#1538 = OVER_RIDING_STYLED_ITEM('overriding color',(#1539),#1416,#1517);
#1539 = PRESENTATION_STYLE_ASSIGNMENT((#1540));
#1540 = SURFACE_STYLE_USAGE(.BOTH.,#1541);
#1541 = SURFACE_SIDE_STYLE('',(#1542));
#1542 = SURFACE_STYLE_FILL_AREA(#1543);
#1543 = FILL_AREA_STYLE('',(#1544));
#1544 = FILL_AREA_STYLE_COLOUR('',#1537);
#1545 = OVER_RIDING_STYLED_ITEM('overriding color',(#1546),#1473,#1517);
#1546 = PRESENTATION_STYLE_ASSIGNMENT((#1547));
#1547 = SURFACE_STYLE_USAGE(.BOTH.,#1548);
#1548 = SURFACE_SIDE_STYLE('',(#1549));
#1549 = SURFACE_STYLE_FILL_AREA(#1550);
#1550 = FILL_AREA_STYLE('',(#1551));
#1551 = FILL_AREA_STYLE_COLOUR('',#1537);
#1552 = OVER_RIDING_STYLED_ITEM('overriding color',(#1553),#1493,#1517);
#1553 = PRESENTATION_STYLE_ASSIGNMENT((#1554));
#1554 = SURFACE_STYLE_USAGE(.BOTH.,#1555);
#1555 = SURFACE_SIDE_STYLE('',(#1556));
#1556 = SURFACE_STYLE_FILL_AREA(#1557);
#1557 = FILL_AREA_STYLE('',(#1558));
#1558 = FILL_AREA_STYLE_COLOUR('',#1537);
ENDSEC;
END-ISO-10303-21;
